<?xml version="1.0" encoding="utf-8"?>
<!-- Generator: Adobe Illustrator 22.1.0, SVG Export Plug-In . SVG Version: 6.00 Build 0)  -->
<svg version="1.1" id="Icon_Set" xmlns="http://www.w3.org/2000/svg" xmlns:xlink="http://www.w3.org/1999/xlink" x="0px" y="0px"
	 viewBox="0 0 512 512" style="enable-background:new 0 0 512 512;" xml:space="preserve">
<style type="text/css">
	.st0{fill:#F0C48A;}
	.st1{fill:#FD919E;}
	.st2{fill:#4C4372;}
	.st3{fill:#D3E6F8;}
	.st4{fill:#A4CFF2;}
	.st5{fill:#7BABF1;}
	.st6{fill:#FFFFFF;}
	.st7{fill:#E8677D;}
	.st8{fill:none;stroke:#4C4372;stroke-width:12;stroke-linecap:round;stroke-linejoin:round;stroke-miterlimit:10;}
</style>
<g id="Hospital">
	<g>
		<g>
			<circle class="st0" cx="256" cy="256" r="207"/>
		</g>
	</g>
	<g>
		<g>
			<path class="st3" d="M397.508,385.09H114.492V241.083c0-11.154,9.042-20.197,20.197-20.197h242.623
				c11.154,0,20.197,9.042,20.197,20.197V385.09z"/>
		</g>
		<g>
			<rect x="165.416" y="220.886" class="st4" width="33.606" height="162.264"/>
		</g>
		<g>
			<path class="st4" d="M377.311,220.886h-6.131V385.09h26.328V241.083C397.508,229.929,388.466,220.886,377.311,220.886z"/>
		</g>
		<g>
			<rect x="327.761" y="250.794" class="st5" width="49.67" height="36.58"/>
		</g>
		<g>
			<rect x="327.761" y="312.345" class="st5" width="49.67" height="36.58"/>
		</g>
		<g>
			<rect x="134.568" y="250.794" class="st5" width="49.67" height="36.58"/>
		</g>
		<g>
			<rect x="134.568" y="312.345" class="st5" width="49.67" height="36.58"/>
		</g>
		<g>
			<path class="st2" d="M397.508,391.09H114.492c-3.313,0-6-2.686-6-6V241.083c0-14.445,11.751-26.197,26.196-26.197h242.623
				c14.445,0,26.196,11.752,26.196,26.197V385.09C403.508,388.404,400.821,391.09,397.508,391.09z M120.492,379.09h271.016V241.083
				c0-7.828-6.369-14.197-14.196-14.197H134.688c-7.828,0-14.196,6.369-14.196,14.197V379.09z"/>
		</g>
		<g>
			<path class="st2" d="M377.432,293.374h-49.67c-3.313,0-6-2.686-6-6v-36.58c0-3.314,2.687-6,6-6h49.67c3.313,0,6,2.686,6,6v36.58
				C383.432,290.688,380.745,293.374,377.432,293.374z M333.761,281.374h37.67v-24.58h-37.67V281.374z"/>
		</g>
		<g>
			<path class="st2" d="M377.432,354.925h-49.67c-3.313,0-6-2.686-6-6v-36.58c0-3.314,2.687-6,6-6h49.67c3.313,0,6,2.686,6,6v36.58
				C383.432,352.239,380.745,354.925,377.432,354.925z M333.761,342.925h37.67v-24.58h-37.67V342.925z"/>
		</g>
		<g>
			<rect x="184.239" y="157.46" class="st6" width="143.523" height="227.63"/>
		</g>
		<g>
			<rect x="301.522" y="157.46" class="st3" width="26.24" height="227.63"/>
		</g>
		<g>
			<rect x="210.478" y="294.046" class="st5" width="91.044" height="91.044"/>
		</g>
		<g>
			<rect x="168.854" y="126.91" class="st5" width="174.292" height="30.55"/>
		</g>
		<g>
			<path class="st2" d="M327.761,391.09H184.239c-3.314,0-6-2.686-6-6V157.46c0-3.314,2.686-6,6-6h143.522c3.314,0,6,2.686,6,6
				v227.63C333.761,388.404,331.075,391.09,327.761,391.09z M190.239,379.09h131.522V163.46H190.239V379.09z"/>
		</g>
		<g>
			<path class="st2" d="M343.146,163.46H168.854c-3.313,0-6-2.686-6-6v-30.55c0-3.314,2.687-6,6-6h174.292c3.313,0,6,2.686,6,6
				v30.55C349.146,160.774,346.459,163.46,343.146,163.46z M174.854,151.46h162.292v-18.55H174.854V151.46z"/>
		</g>
		<g>
			<path class="st2" d="M301.522,391.09h-91.044c-3.313,0-6-2.686-6-6v-91.044c0-3.314,2.687-6,6-6h91.044c3.313,0,6,2.686,6,6
				v91.044C307.522,388.404,304.835,391.09,301.522,391.09z M216.478,379.09h79.044v-79.044h-79.044V379.09z"/>
		</g>
		<g>
			<path class="st2" d="M257.068,391.09c-3.313,0-6-2.686-6-6v-91.044c0-3.314,2.687-6,6-6s6,2.686,6,6v91.044
				C263.068,388.404,260.382,391.09,257.068,391.09z"/>
		</g>
		<g>
			<path class="st2" d="M184.239,293.374h-49.67c-3.313,0-6-2.686-6-6v-36.58c0-3.314,2.687-6,6-6h49.67c3.313,0,6,2.686,6,6v36.58
				C190.239,290.688,187.552,293.374,184.239,293.374z M140.568,281.374h37.67v-24.58h-37.67V281.374z"/>
		</g>
		<g>
			<path class="st2" d="M184.239,354.925h-49.67c-3.313,0-6-2.686-6-6v-36.58c0-3.314,2.687-6,6-6h49.67c3.313,0,6,2.686,6,6v36.58
				C190.239,352.239,187.552,354.925,184.239,354.925z M140.568,342.925h37.67v-24.58h-37.67V342.925z"/>
		</g>
		<g>
			<polygon class="st1" points="289.219,206.299 267.395,206.299 267.395,184.475 244.605,184.475 244.605,206.299 222.781,206.299 
				222.781,229.09 244.605,229.09 244.605,250.914 267.395,250.914 267.395,229.09 289.219,229.09 			"/>
		</g>
		<g>
			<path class="st2" d="M267.396,256.914h-22.791c-3.313,0-6-2.686-6-6V235.09h-15.824c-3.313,0-6-2.686-6-6v-22.791
				c0-3.314,2.687-6,6-6h15.824v-15.824c0-3.314,2.687-6,6-6h22.791c3.313,0,6,2.686,6,6v15.824h15.824c3.313,0,6,2.686,6,6v22.791
				c0,3.314-2.687,6-6,6h-15.824v15.824C273.396,254.227,270.709,256.914,267.396,256.914z M250.604,244.914h10.791V229.09
				c0-3.314,2.687-6,6-6h15.824v-10.791h-15.824c-3.313,0-6-2.686-6-6v-15.824h-10.791v15.824c0,3.314-2.687,6-6,6h-15.824v10.791
				h15.824c3.313,0,6,2.686,6,6V244.914z"/>
		</g>
		<g>
			<rect x="200.327" y="271.275" class="st4" width="111.345" height="22.771"/>
		</g>
		<g>
			<rect x="281.949" y="271.275" class="st5" width="29.723" height="22.771"/>
		</g>
		<g>
			<path class="st2" d="M311.672,300.046H200.328c-3.313,0-6-2.686-6-6v-22.771c0-3.314,2.687-6,6-6h111.345c3.313,0,6,2.686,6,6
				v22.771C317.672,297.36,314.986,300.046,311.672,300.046z M206.328,288.046h99.345v-10.771h-99.345V288.046z"/>
		</g>
	</g>
</g>
</svg>
