<?xml version="1.0" encoding="iso-8859-1"?>
<!-- Generator: Adobe Illustrator 19.0.0, SVG Export Plug-In . SVG Version: 6.00 Build 0)  -->
<svg version="1.1" id="Layer_1" xmlns="http://www.w3.org/2000/svg" xmlns:xlink="http://www.w3.org/1999/xlink" x="0px" y="0px"
	 viewBox="0 0 512 512" style="enable-background:new 0 0 512 512;" xml:space="preserve">
<path style="fill:#333E48;" d="M504.061,488.327c0,2.352-1.922,4.276-4.275,4.276H12.215c-2.353,0-4.276-1.924-4.276-4.276v-15.302
	c0-2.352,1.923-4.276,4.276-4.276h487.571c2.353,0,4.275,1.924,4.275,4.276V488.327z"/>
<path style="fill:#00AD68;" d="M499.786,468.749h-227.91v23.855h227.909c2.353,0,4.275-1.924,4.275-4.276v-15.302
	C504.061,470.672,502.138,468.749,499.786,468.749z"/>
<rect x="46.351" y="73.866" style="fill:#D1D3D3;" width="239.49" height="394.885"/>
<rect x="46.351" y="73.866" style="opacity:0.1;enable-background:new    ;" width="239.49" height="54.643"/>
<rect x="76.305" y="312.334" style="fill:#FFFFFF;" width="179.591" height="48.69"/>
<rect x="76.305" y="312.334" style="opacity:0.2;enable-background:new    ;" width="179.591" height="17.922"/>
<rect x="158.157" y="312.334" style="fill:#333E48;" width="15.877" height="48.69"/>
<rect x="76.305" y="232.07" style="fill:#FFFFFF;" width="179.591" height="48.69"/>
<rect x="76.305" y="232.07" style="opacity:0.2;enable-background:new    ;" width="179.591" height="17.922"/>
<rect x="158.157" y="232.07" style="fill:#333E48;" width="15.877" height="48.69"/>
<rect x="76.305" y="151.816" style="fill:#FFFFFF;" width="179.591" height="48.69"/>
<rect x="76.305" y="151.816" style="opacity:0.2;enable-background:new    ;" width="179.591" height="17.922"/>
<rect x="158.157" y="151.816" style="fill:#333E48;" width="15.877" height="48.69"/>
<rect x="119.798" y="400.463" style="fill:#FFFFFF;" width="92.585" height="68.282"/>
<rect x="158.157" y="400.463" style="fill:#333E48;" width="15.877" height="68.282"/>
<path style="fill:#FF5959;" d="M293.317,54.415h-74.659V29.981c0-5.822-4.763-10.585-10.585-10.585H124.12
	c-5.822,0-10.585,4.763-10.585,10.585v24.435H38.874c-5.822,0-10.585,4.763-10.585,10.585v41.281
	c0,5.822,4.763,10.585,10.585,10.585h254.444c5.822,0,10.585-4.763,10.585-10.585V65C303.902,59.178,299.139,54.415,293.317,54.415z
	"/>
<path style="fill:#FFFFFF;" d="M191.724,55.93h-13.382V42.546c0-2.911-2.382-5.292-5.292-5.292h-13.906
	c-2.911,0-5.292,2.382-5.292,5.292V55.93h-13.384c-2.911,0-5.292,2.382-5.292,5.292v13.906c0,2.911,2.382,5.292,5.292,5.292h13.384
	v13.382c0,2.911,2.382,5.292,5.292,5.292h13.906c2.911,0,5.292-2.382,5.292-5.292V80.421h13.382c2.911,0,5.292-2.382,5.292-5.292
	V61.223C197.016,58.312,194.634,55.93,191.724,55.93z"/>
<rect x="285.841" y="288.751" style="fill:#D1D3D3;" width="179.729" height="179.994"/>
<rect x="315.838" y="339.272" style="fill:#FFFFFF;" width="119.735" height="48.69"/>
<rect x="315.838" y="339.272" style="opacity:0.2;enable-background:new    ;" width="119.735" height="17.922"/>
<rect x="367.767" y="339.272" style="fill:#333E48;" width="15.877" height="48.69"/>
<path style="fill:#FF5959;" d="M285.842,257.793h189.401c5.822,0,10.585,4.763,10.585,10.585v20.288
	c0,5.822-4.763,10.585-10.585,10.585H285.842V257.793z"/>
<polygon style="opacity:0.2;enable-background:new    ;" points="305.886,299.25 305.886,257.793 285.842,257.793 285.842,468.749 
	305.886,468.749 305.886,319.449 465.57,319.449 465.57,299.25 "/>
<path style="fill:#218649;" d="M426.576,468.749c0-18.719-15.174-33.893-33.893-33.893c-18.718,0-33.893,15.174-33.893,33.893
	H426.576z"/>
<path style="fill:#1E252B;" d="M140.467,88.36h5.446v5.444c0,7.296,5.935,13.231,13.231,13.231h13.906
	c7.296,0,13.231-5.935,13.231-13.231V88.36h5.444c7.296,0,13.231-5.935,13.231-13.231V61.223c0-7.296-5.935-13.231-13.231-13.231
	h-5.444v-5.446c0-7.296-5.935-13.231-13.231-13.231h-13.906c-7.296,0-13.231,5.935-13.231,13.231v5.446h-5.446
	c-7.296,0-13.231,5.935-13.231,13.231v13.906C127.236,82.424,133.171,88.36,140.467,88.36z M143.113,63.869h10.738
	c4.384,0,7.939-3.554,7.939-7.939V45.192h8.614V55.93c0,4.384,3.554,7.939,7.939,7.939h10.736v8.614h-10.736
	c-4.384,0-7.939,3.554-7.939,7.939v10.736h-8.614V80.421c0-4.384-3.554-7.939-7.939-7.939h-10.738V63.869z M76.302,208.445H255.89
	c4.385,0,7.939-3.554,7.939-7.939v-48.69c0-4.384-3.553-7.939-7.939-7.939H76.302c-4.384,0-7.939,3.554-7.939,7.939v48.69
	C68.364,204.891,71.918,208.445,76.302,208.445z M84.241,159.755h163.711v32.813H84.241V159.755z M443.511,387.964v-48.69
	c0-4.384-3.553-7.939-7.939-7.939H315.839c-4.385,0-7.939,3.554-7.939,7.939v48.69c0,4.384,3.553,7.939,7.939,7.939h119.734
	C439.957,395.903,443.511,392.348,443.511,387.964z M427.634,380.026H323.778v-32.813h103.856V380.026z M499.786,460.811h-26.278
	V307.189h1.735c10.213,0,18.523-8.31,18.523-18.523v-20.288c0-10.213-8.31-18.523-18.523-18.523H293.781V124.78
	c9.998-0.249,18.061-8.442,18.061-18.5V64.999c0-10.213-8.31-18.523-18.523-18.523h-66.721V29.981
	c0-10.213-8.31-18.523-18.523-18.523h-83.953c-10.213,0-18.523,8.31-18.523,18.523v16.496H38.874
	C28.66,46.477,20.35,54.787,20.35,65v41.281c0,10.058,8.062,18.251,18.062,18.5v336.03H12.215C5.48,460.811,0,466.29,0,473.025
	v15.302c0,6.735,5.48,12.215,12.215,12.215h487.571c6.734,0,12.214-5.48,12.214-12.215v-15.302
	C512,466.289,506.52,460.811,499.786,460.811z M475.242,265.732c1.434,0,2.646,1.212,2.646,2.646v20.288
	c0,1.434-1.212,2.646-2.646,2.646H293.781v-25.58H475.242z M392.681,426.916c-20.352,0-37.346,14.612-41.068,33.893H293.78V307.189
	h163.852v153.622h-23.882C430.029,441.528,413.034,426.916,392.681,426.916z M417.39,460.811h-49.418
	c3.362-10.44,13.165-18.016,24.709-18.016C404.226,442.793,414.029,450.37,417.39,460.811z M36.227,106.28V64.999
	c0-1.434,1.212-2.646,2.646-2.646h74.661c4.384,0,7.939-3.554,7.939-7.939V29.981c0-1.434,1.212-2.646,2.646-2.646h83.953
	c1.434,0,2.646,1.212,2.646,2.646v24.435c0,4.384,3.554,7.939,7.939,7.939h74.66c1.434,0,2.646,1.212,2.646,2.646v41.281
	c0,1.434-1.212,2.646-2.646,2.646H38.874C37.44,108.926,36.227,107.714,36.227,106.28z M263.938,484.664H15.877v-7.978h248.061
	V484.664z M127.741,460.811v-52.409h76.708v52.408h-76.708V460.811z M277.904,460.811h-57.577v-60.348
	c0-4.384-3.554-7.939-7.939-7.939h-92.585c-4.384,0-7.939,3.554-7.939,7.939v60.347H54.289V124.803h223.614V460.811z
	 M496.123,484.664H279.815v-7.978h216.307v7.978H496.123z M76.302,368.958H255.89c4.385,0,7.939-3.554,7.939-7.939v-48.69
	c0-4.384-3.553-7.939-7.939-7.939H76.302c-4.384,0-7.939,3.554-7.939,7.939v48.69C68.364,365.404,71.918,368.958,76.302,368.958z
	 M84.241,320.268h163.711v32.813H84.241V320.268z M76.302,288.702H255.89c4.385,0,7.939-3.554,7.939-7.939v-48.69
	c0-4.384-3.553-7.939-7.939-7.939H76.302c-4.384,0-7.939,3.554-7.939,7.939v48.69C68.364,285.147,71.918,288.702,76.302,288.702z
	 M84.241,240.012h163.711v32.813H84.241V240.012z"/>
<g>
</g>
<g>
</g>
<g>
</g>
<g>
</g>
<g>
</g>
<g>
</g>
<g>
</g>
<g>
</g>
<g>
</g>
<g>
</g>
<g>
</g>
<g>
</g>
<g>
</g>
<g>
</g>
<g>
</g>
</svg>
