<?xml version="1.0" encoding="iso-8859-1"?>
<!-- Generator: Adobe Illustrator 22.0.1, SVG Export Plug-In . SVG Version: 6.00 Build 0)  -->
<svg version="1.1" xmlns="http://www.w3.org/2000/svg" xmlns:xlink="http://www.w3.org/1999/xlink" x="0px" y="0px"
	 viewBox="0 0 512 512" style="enable-background:new 0 0 512 512;" xml:space="preserve">
<g id="BULINE">
	<circle id="XMLID_1285_" style="fill:#273277;" cx="256" cy="256" r="256"/>
</g>
<g id="Icons">
	<g id="XMLID_1635_">
		<g id="XMLID_2345_">
			<path id="XMLID_2355_" style="fill:#71B4F5;" d="M463.864,256c0,1.476-0.02,2.942-0.049,4.408
				c-0.089,4.555-0.334,9.071-0.718,13.538c-9.101,106.394-98.346,189.924-207.102,189.924
				c-113.921,0-206.433-91.646-207.84-205.232c-0.01-0.876-0.02-1.761-0.02-2.637c0-66.223,30.972-125.215,79.21-163.271
				c4.063-3.207,8.245-6.267,12.544-9.16c3.129-2.125,6.326-4.152,9.573-6.1c10.626-6.356,21.871-11.787,33.628-16.194
				c22.688-8.501,47.255-13.144,72.904-13.144c21.271,0,41.784,3.198,61.107,9.13c9.563,2.932,18.831,6.543,27.755,10.773
				c70.031,33.156,118.564,104.299,118.997,186.824C463.864,255.242,463.864,255.616,463.864,256z"/>
			<path id="XMLID_2354_" style="fill:#67A2D2;" d="M370.417,429.562c-32.821,21.684-72.146,34.307-114.422,34.307
				c-113.921,0-206.433-91.646-207.84-205.232c-0.01-0.876-0.02-1.761-0.02-2.637c0-66.223,30.972-125.215,79.21-163.271
				c4.063-3.207,8.245-6.267,12.544-9.16c3.129-2.125,6.326-4.152,9.573-6.1c5.992-3.581,12.18-6.867,18.536-9.848
				c25.541,28.837,63.006,89.403,51.643,172.785c0,0-3.847,28.06,25.354,54.811c5.893,5.392,12.977,10.508,21.487,15.033
				c11.354,6.031,25.265,10.999,42.286,14.108c0,0,50.039,3.699,54.594,78.384C363.363,402.742,363.363,416.86,370.417,429.562z"/>
			<path id="XMLID_2353_" style="fill:#5FA258;" d="M253.939,325.722v13.187c-2.051,8.193-6.159,12.078-9.451,13.916
				c-2.82,1.575-4.749,4.393-5.056,7.608c-1.1,11.513-6.313,16.692-10.324,18.996c-3.024,1.737-4.842,4.999-4.842,8.486v8.364
				c0,3.685-2.255,6.995-5.684,8.345l-0.511,0.201c-3.585,1.411-5.896,4.971-5.628,8.814c0.265,3.803,0.111,7.347-0.179,10.268
				c-0.416,4.189,2.004,8.072,5.848,9.789c10.8,4.823,4.088,13.506,4.088,13.506c-39.39,3.105-43.824-59.376-44.205-80.37
				c-0.07-3.876-2.123-7.419-5.416-9.465c-14.154-8.797-32.531-31.524-32.531-31.524c-15.163-8.924-8.598-22.314-3.656-29.188
				c2.012-2.798,1.069-6.695-1.949-8.36c-10.233-5.648-23.181-5.847-32.037-5.072c-2.519-0.472-5.313-0.994-8.412-1.574
				c-19.441-3.581-34.415-12.426-45.838-23.012c-0.01-0.876-0.02-1.761-0.02-2.637c0-66.223,30.972-125.215,79.21-163.271
				c6.572,1.122,10.832,2.214,10.832,2.214c25.521,16.184,2.489,19.923,2.489,19.923l-4.875,13.288
				c-1.253,3.414-3.925,6.117-7.325,7.407l-6.879,2.61c-2.633,0.999-2.847,4.632-0.359,5.951c7.47,3.963,16.266,4.84,21.192,4.993
				c1.891,0.058,3.456-1.513,3.342-3.402c-0.744-12.271,8.6-28.359,8.6-28.359c11.826-15.565-1.869-21.163-1.869-21.163
				c-8.264-4.132-11.541-8.756-12.603-12.623c3.129-2.125,6.326-4.152,9.573-6.1l24.813,6.897
				c28.63,18.674,8.707,38.587,8.707,38.587c-18.664,3.739-9.327,13.066-9.327,13.066c9.327-13.066,16.175,0,16.175,0
				c1.249,9.337,11.826,16.804,11.826,16.804c8.087,16.804-15.555,17.424-15.555,17.424c-12.446,2.499-8.097,9.966-8.097,9.966
				c13.075-2.489,19.293,0,19.293,0c0,15.555-21.153,11.816-21.153,11.816c-22.412-6.218-26.761,23.652-26.761,23.652
				c-8.805,8.002-7.577,16.52-5.578,21.583c1.602,4.057-1.29,8.501-5.648,8.656c-5.989,0.212-13.046-1.608-13.046-1.608
				c-9.337-12.446-21.783-4.978-21.783-4.978c-7.782,3.114-7.782,7.003-5.837,10.113c2.09,3.341,6.229,4.889,10.047,3.914
				c14.13-3.608,18.812,11.485,18.812,11.485c9.337,23.032,23.652,13.076,23.652,13.076c19.913-15.565,57.251,0,57.251,0
				c10.484,2.368,14.722,7.307,16.406,11.324c1.471,3.509,4.917,5.79,8.72,5.68c14.19-0.411,22.733,1.502,27.518,3.278
				c3.658,1.358,6.347,4.637,6.72,8.521c0.648,6.741-3.585,9.786-7.333,11.157C256.033,319.071,253.939,322.257,253.939,325.722z"/>
			<path id="XMLID_2349_" style="fill:#78C478;" d="M437.526,244.932l12.465,10.655c0,0,6.484-0.138,13.863-0.728
				c-0.433-82.526-48.966-153.668-118.997-186.824c-7.768,0.024-15.585,0.815-20.644,3.308c-4.077,2.01-4.379,7.713-0.604,10.245
				c4.973,3.335,12.858,8.301,19.704,11.184c3.654,1.539,4.611,6.281,1.801,9.078c-6.478,6.449-13.287,16.575-6.534,26.701
				c0,0,10.576,8.097-1.25,14.935c0,0-29.25,10.586-22.402,20.543c0,0,6.011,3.109-1.033,5.598c0,0-18.88-4.978-15.771,28.01v0
				c-0.182,6.384-3.942,12.103-9.71,14.846c-6.818,3.242-14.214,10.856-10.204,28.719c0,0,4.978,34.228,22.402,34.848
				c0,0,29.87-3.729,35.478,4.978c0,0,2.694,10.343,12.674,13.445c3.682,1.145,6.448,4.196,6.975,8.016l1.503,10.897
				c0,0-9.337,6.848,1.25,19.293c0,0,7.467,39.836,7.467,44.195c0,0,32.359,3.729,38.587-6.228c0,0,18.664-19.293,18.044-32.359h0
				c8.504-2.589,14.315-10.433,14.315-19.322v-21.134c0,0,16.243-10.754,26.19-23.888c0.384-4.467,0.63-8.983,0.718-13.538
				l-19.441-2.401C444.374,258.007,428.819,249.91,437.526,244.932z M414.504,201.996c0,0-19.913,5.598-26.141,0
				c0,0-14.6-4.358-13.528,2.489c0,0-15.102,2.489-15.722-8.097c0,0,9.337-11.196-15.555-10.576c0,0-16.804-1.869-3.119-7.467
				c0,0,3.739-9.337,9.957-3.109c0,0,16.184,8.087,17.434,16.175c0,0,8.707-5.874,8.707-9.16l-15.555-9.16
				c0,0,19.913-1.249,23.652,9.16c0,0-1.25,12.269,7.467,9.16C392.102,191.41,416.373,188.921,414.504,201.996z"/>
			<path id="XMLID_2348_" style="fill:#5FA258;" d="M311.192,124.198c0,0-17.426,10.58-8.713,20.538c0,0,16.803,8.713,23.649,0
				c0,0,12.906-6.224,8.943-13.692C335.071,131.044,333.597,114.24,311.192,124.198z"/>
			<path id="XMLID_2347_" style="fill:#78C478;" d="M287.956,80.553l-5.397,0.705c6.228,5.598,3.119,12.475,3.119,12.475
				c-1.272,7.651-13.78,8.334-21.646,7.989c-3.07-0.135-6.09,1.128-7.962,3.566c-1.91,2.488-5.225,4.607-8.212,6.158
				c-3.383,1.756-5.814,4.946-6.634,8.668c-1.403,6.368-5.56,14.188-7.724,17.982c-1.342,2.353-3.922,3.868-6.613,3.552
				c-6.021-0.707-8.603-9.822-9.647-15.689c-0.537-3.016-2.123-5.741-4.497-7.678c-10.232-8.351-3.62-13.371-3.62-13.371
				c2.593-2.593,3.643-9.592,4.069-14.836c0.266-3.283-1.206-6.394-3.752-8.482c-2.395-1.964-3.319-4.539-3.566-6.916
				c-0.379-3.64-3.306-6.496-6.946-6.873c-7.895-0.818-12.806-3.404-15.837-6.526c22.688-8.501,47.255-13.144,72.904-13.144
				c21.271,0,41.784,3.198,61.107,9.13l-12.761,1.594c-10.587,1.412-11.566,7.829-10.431,13.118
				C294.785,76.046,292.086,80.013,287.956,80.553z"/>
			<path id="XMLID_2346_" style="fill:#5FA258;" d="M266.585,310.25c-0.846,4.339-4.181,6.533-7.202,7.635
				c-3.247,1.19-5.342,4.368-5.342,7.841v13.184c-2.056,8.196-6.159,12.082-9.455,13.912c-2.814,1.574-4.752,4.398-5.057,7.615
				c-1.102,11.511-6.307,16.686-10.321,18.988c-3.02,1.741-4.841,5.008-4.841,8.491v8.363c0,3.689-2.253,6.995-5.687,8.343
				l-0.512,0.207c-3.581,1.407-5.893,4.968-5.628,8.815c0.266,3.798,0.108,7.34-0.177,10.262c-0.413,4.191,2.007,8.077,5.844,9.789
				c10.803,4.821,4.093,13.508,4.093,13.508c-39.394,3.109-43.831-59.376-44.205-80.371c-0.069-3.876-2.125-7.418-5.421-9.465
				c-14.148-8.796-32.526-31.523-32.526-31.523c-15.161-8.924-8.599-22.314-3.66-29.191c2.017-2.794,1.072-6.69-1.948-8.353
				c-10.232-5.657-23.18-5.854-32.034-5.077c-2.519-0.472-5.313-0.994-8.412-1.574c-19.441-3.581-34.415-12.426-45.838-23.012
				c-0.01-0.876-0.02-1.761-0.02-2.637c0-66.223,30.972-125.215,79.21-163.271c6.572,1.122,10.832,2.214,10.832,2.214
				c25.521,16.184,2.489,19.923,2.489,19.923l-4.88,13.292c-1.25,3.414-3.926,6.11-7.32,7.399l-6.887,2.617
				c-2.627,0.994-2.843,4.634-0.354,5.952c7.467,3.955,16.263,4.841,21.192,4.988c1.889,0.059,3.453-1.515,3.345-3.404
				c-0.748-12.269,8.599-28.355,8.599-28.355c11.826-15.565-1.869-21.163-1.869-21.163c-8.264-4.132-11.541-8.756-12.603-12.623
				c3.129-2.125,6.326-4.152,9.573-6.1l24.813,6.897c28.63,18.674,8.707,38.587,8.707,38.587
				c-18.664,3.739-9.327,13.066-9.327,13.066c9.327-13.066,16.175,0,16.175,0c1.25,9.337,11.826,16.804,11.826,16.804
				c8.087,16.804-15.555,17.424-15.555,17.424c-12.446,2.499-8.097,9.966-8.097,9.966c13.075-2.489,19.293,0,19.293,0
				c0,15.555-21.153,11.816-21.153,11.816c-22.412-6.218-26.761,23.652-26.761,23.652c-8.806,7.999-7.576,16.519-5.578,21.586
				c1.604,4.053-1.289,8.501-5.647,8.648c-5.992,0.216-13.046-1.604-13.046-1.604c-9.337-12.446-21.783-4.978-21.783-4.978
				c-7.782,3.109-7.782,7.005-5.844,10.114c2.096,3.335,6.238,4.89,10.055,3.916c14.128-3.611,18.811,11.482,18.811,11.482
				c9.337,23.032,23.652,13.076,23.652,13.076c19.913-15.565,57.251,0,57.251,0c10.478,2.371,14.719,7.31,16.401,11.324
				c1.476,3.512,4.919,5.795,8.727,5.677c4.841-0.138,9.022-0.01,12.613,0.295C250.99,300.608,258.074,305.724,266.585,310.25z"/>
		</g>
		<g id="XMLID_2308_">
			<g id="XMLID_2342_">
				<circle id="XMLID_2344_" style="fill:#F8E689;" cx="318.982" cy="232.509" r="29.465"/>
				<path id="XMLID_2343_" style="fill:#D1C377;" d="M318.133,252.904c3.058,3.187,6.829,5.694,11.054,7.255
					c-3.178,1.177-6.62,1.816-10.206,1.816c-16.27,0-29.464-13.194-29.464-29.464c0-16.275,13.194-29.468,29.464-29.468
					c3.586,0,7.028,0.639,10.206,1.816c-4.225,1.561-7.996,4.068-11.054,7.255c-5.077,5.295-8.2,12.485-8.2,20.398
					C309.934,240.423,313.056,247.608,318.133,252.904z"/>
			</g>
			<g id="XMLID_2309_">
				<g id="XMLID_2340_">
					<path id="XMLID_2341_" style="fill:#C60053;" d="M332.257,250.579l3.135-2.874c0.345-0.317,0.293-0.885-0.114-1.117
						c-0.762-0.434-1.681-0.5-2.496-0.191l-1.441-1.572c-0.406-0.443-1.094-0.472-1.536-0.067c-0.443,0.406-0.472,1.094-0.067,1.536
						l1.441,1.572c-0.378,0.785-0.392,1.706-0.025,2.503C331.35,250.794,331.912,250.895,332.257,250.579z"/>
				</g>
				<g id="XMLID_2338_">
					<path id="XMLID_2339_" style="fill:#C60053;" d="M338.561,223.109l-2.135-3.678c-0.235-0.405-0.802-0.476-1.116-0.128
						c-0.587,0.651-0.849,1.535-0.722,2.397l-1.844,1.071c-0.519,0.301-0.696,0.967-0.394,1.486
						c0.301,0.519,0.967,0.696,1.486,0.394l1.844-1.071c0.685,0.538,1.582,0.748,2.439,0.562
						C338.577,224.041,338.796,223.514,338.561,223.109z"/>
				</g>
				<g id="XMLID_2336_">
					<path id="XMLID_2337_" style="fill:#C60053;" d="M331.749,214.508l-3.77-1.968c-0.415-0.217-0.932,0.026-1.011,0.488
						c-0.148,0.864,0.103,1.751,0.67,2.411l-0.987,1.89c-0.278,0.532-0.072,1.189,0.461,1.467c0.532,0.278,1.189,0.072,1.467-0.461
						l0.987-1.89c0.866,0.088,1.737-0.213,2.362-0.829C332.26,215.288,332.164,214.725,331.749,214.508z"/>
				</g>
				<g id="XMLID_2334_">
					<path id="XMLID_2335_" style="fill:#C60053;" d="M299.605,242.82l2.415,3.501c0.266,0.386,0.836,0.412,1.122,0.041
						c0.535-0.695,0.727-1.596,0.534-2.445l1.755-1.211c0.494-0.341,0.619-1.018,0.278-1.512s-1.018-0.619-1.512-0.278l-1.755,1.211
						c-0.725-0.483-1.636-0.623-2.475-0.37C299.517,241.891,299.339,242.434,299.605,242.82z"/>
				</g>
				<g id="XMLID_2332_">
					<path id="XMLID_2333_" style="fill:#C60053;" d="M305.481,216.265l-3.36,2.608c-0.37,0.287-0.365,0.858,0.022,1.123
						c0.724,0.495,1.635,0.636,2.472,0.395l1.308,1.684c0.368,0.474,1.051,0.56,1.525,0.192c0.474-0.368,0.56-1.051,0.192-1.525
						l-1.308-1.684c0.441-0.751,0.53-1.668,0.23-2.492C306.403,216.124,305.851,215.977,305.481,216.265z"/>
				</g>
				<circle id="XMLID_2331_" style="fill:#C60053;" cx="318.948" cy="232.84" r="17.145"/>
				<path id="XMLID_2330_" style="fill:#970A4B;" d="M321.731,248.599c-2.453-1.055-3.346-4.088-1.873-6.315
					c1.791-2.708,2.833-5.954,2.833-9.443c0-3.489-1.043-6.735-2.833-9.442c-1.473-2.228-0.581-5.261,1.873-6.315
					c0.018-0.008,0.035-0.015,0.053-0.023c0.628-0.268,1.275-0.498,1.939-0.69c-1.515-0.439-3.118-0.674-4.775-0.674
					c-2.382,0-4.651,0.486-6.712,1.364c-6.134,2.611-10.433,8.694-10.433,15.78c0,7.087,4.3,13.169,10.433,15.781
					c2.061,0.878,4.33,1.364,6.712,1.364c1.657,0,3.26-0.235,4.775-0.674c-0.664-0.191-1.311-0.423-1.939-0.69
					C321.766,248.614,321.748,248.606,321.731,248.599z"/>
				<g id="XMLID_2328_">
					<circle id="XMLID_2329_" style="fill:#DC4355;" cx="309.046" cy="232.819" r="3.341"/>
				</g>
				<g id="XMLID_2326_">
					<circle id="XMLID_2327_" style="fill:#DC4355;" cx="327.43" cy="232.84" r="3.341"/>
				</g>
				<g id="XMLID_2322_">
					<circle id="XMLID_2323_" style="fill:#DC4355;" cx="318.349" cy="223.066" r="2.308"/>
				</g>
				<g id="XMLID_2320_">
					<circle id="XMLID_2321_" style="fill:#DC4355;" cx="318.922" cy="242.785" r="2.308"/>
				</g>
				<g id="XMLID_2318_">
					<path id="XMLID_2319_" style="fill:#C60053;" d="M318.081,211.074l-4.167,0.85c-0.459,0.094-0.707,0.608-0.477,1.017
						c0.43,0.764,1.184,1.294,2.041,1.449l0.426,2.089c0.12,0.588,0.694,0.968,1.283,0.848s0.968-0.694,0.848-1.283l-0.426-2.089
						c0.728-0.478,1.214-1.261,1.31-2.133C318.969,211.356,318.54,210.98,318.081,211.074z"/>
				</g>
				<g id="XMLID_2316_">
					<path id="XMLID_2317_" style="fill:#C60053;" d="M298.546,227.614l-0.553,4.217c-0.061,0.465,0.345,0.867,0.806,0.782
						c0.863-0.158,1.609-0.698,2.035-1.458l2.114,0.277c0.595,0.078,1.141-0.341,1.219-0.937c0.078-0.595-0.341-1.141-0.937-1.219
						L301.116,229c-0.215-0.844-0.797-1.559-1.59-1.933C299.102,226.866,298.607,227.15,298.546,227.614z"/>
				</g>
				<g id="XMLID_2314_">
					<path id="XMLID_2315_" style="fill:#C60053;" d="M340.222,236.73v-4.253c0-0.469-0.454-0.814-0.901-0.671
						c-0.835,0.269-1.505,0.901-1.828,1.71h-2.132c-0.6,0-1.087,0.487-1.087,1.087c0,0.6,0.487,1.087,1.087,1.087h2.132
						c0.323,0.809,0.993,1.442,1.828,1.71C339.767,237.544,340.222,237.198,340.222,236.73z"/>
				</g>
				<g id="XMLID_2312_">
					<path id="XMLID_2313_" style="fill:#C60053;" d="M323.532,254.256l-4.239,0.348c-0.467,0.038-0.849-0.386-0.742-0.843
						c0.199-0.854,0.775-1.574,1.555-1.961l-0.174-2.125c-0.049-0.598,0.396-1.123,0.995-1.172c0.598-0.049,1.123,0.396,1.172,0.995
						l0.174,2.125c0.833,0.255,1.518,0.872,1.854,1.682C324.306,253.737,323.999,254.218,323.532,254.256z"/>
				</g>
				<g id="XMLID_2310_">
					<path id="XMLID_2311_" style="fill:#C60053;" d="M309.697,253.1l-3.729-2.046c-0.411-0.225-0.495-0.79-0.155-1.112
						c0.637-0.603,1.514-0.886,2.378-0.78l1.026-1.87c0.289-0.526,0.95-0.719,1.476-0.43c0.526,0.289,0.719,0.95,0.43,1.476
						l-1.026,1.87c0.554,0.672,0.786,1.564,0.62,2.425C310.629,253.093,310.107,253.326,309.697,253.1z"/>
				</g>
			</g>
		</g>
		<g id="XMLID_2272_">
			<g id="XMLID_2305_">
				<circle id="XMLID_2307_" style="fill:#F8E689;" cx="109.885" cy="188.499" r="29.465"/>
				<path id="XMLID_2306_" style="fill:#D1C377;" d="M109.036,208.894c3.058,3.187,6.829,5.694,11.054,7.255
					c-3.178,1.177-6.62,1.816-10.206,1.816c-16.27,0-29.464-13.194-29.464-29.464c0-16.275,13.194-29.468,29.464-29.468
					c3.586,0,7.028,0.639,10.206,1.816c-4.225,1.561-7.996,4.068-11.054,7.255c-5.077,5.295-8.2,12.485-8.2,20.398
					C100.836,196.413,103.958,203.598,109.036,208.894z"/>
			</g>
			<g id="XMLID_2273_">
				<g id="XMLID_2303_">
					<path id="XMLID_2304_" style="fill:#C60053;" d="M123.16,206.569l3.135-2.874c0.345-0.317,0.293-0.885-0.114-1.117
						c-0.762-0.434-1.681-0.5-2.496-0.191l-1.441-1.572c-0.406-0.443-1.094-0.472-1.536-0.067c-0.443,0.406-0.472,1.094-0.067,1.536
						l1.441,1.572c-0.378,0.785-0.392,1.706-0.025,2.503C122.252,206.784,122.814,206.885,123.16,206.569z"/>
				</g>
				<g id="XMLID_2301_">
					<path id="XMLID_2302_" style="fill:#C60053;" d="M129.463,179.099l-2.135-3.678c-0.235-0.405-0.802-0.476-1.116-0.128
						c-0.587,0.651-0.849,1.535-0.722,2.397l-1.844,1.071c-0.519,0.301-0.696,0.967-0.394,1.486
						c0.301,0.519,0.967,0.696,1.486,0.394l1.844-1.071c0.685,0.538,1.582,0.748,2.439,0.562
						C129.479,180.031,129.698,179.504,129.463,179.099z"/>
				</g>
				<g id="XMLID_2299_">
					<path id="XMLID_2300_" style="fill:#C60053;" d="M122.651,170.498l-3.77-1.968c-0.415-0.217-0.932,0.026-1.011,0.488
						c-0.148,0.864,0.103,1.751,0.67,2.411l-0.987,1.89c-0.278,0.532-0.072,1.189,0.461,1.467c0.532,0.278,1.189,0.072,1.467-0.461
						l0.987-1.89c0.866,0.088,1.737-0.213,2.362-0.829C123.163,171.278,123.066,170.715,122.651,170.498z"/>
				</g>
				<g id="XMLID_2296_">
					<path id="XMLID_2298_" style="fill:#C60053;" d="M90.507,198.81l2.415,3.501c0.266,0.386,0.836,0.412,1.122,0.041
						c0.535-0.695,0.727-1.596,0.534-2.445l1.755-1.211c0.494-0.341,0.619-1.018,0.278-1.512c-0.341-0.494-1.018-0.619-1.512-0.278
						l-1.755,1.211c-0.725-0.483-1.636-0.623-2.475-0.37C90.419,197.881,90.241,198.424,90.507,198.81z"/>
				</g>
				<g id="XMLID_2294_">
					<path id="XMLID_2295_" style="fill:#C60053;" d="M96.383,172.255l-3.36,2.608c-0.37,0.287-0.365,0.858,0.022,1.123
						c0.724,0.495,1.635,0.636,2.472,0.395l1.308,1.684c0.368,0.474,1.051,0.56,1.525,0.192c0.474-0.368,0.56-1.051,0.192-1.525
						l-1.308-1.684c0.441-0.751,0.53-1.668,0.23-2.492C97.305,172.114,96.753,171.967,96.383,172.255z"/>
				</g>
				<circle id="XMLID_2293_" style="fill:#C60053;" cx="109.85" cy="188.83" r="17.145"/>
				<path id="XMLID_2292_" style="fill:#970A4B;" d="M112.633,204.588c-2.453-1.055-3.346-4.088-1.873-6.315
					c1.791-2.708,2.833-5.954,2.833-9.443c0-3.489-1.042-6.735-2.833-9.442c-1.473-2.228-0.581-5.261,1.873-6.315
					c0.018-0.008,0.035-0.015,0.053-0.023c0.628-0.268,1.275-0.498,1.939-0.69c-1.515-0.439-3.118-0.674-4.775-0.674
					c-2.382,0-4.651,0.486-6.712,1.364c-6.134,2.611-10.433,8.694-10.433,15.78s4.3,13.169,10.433,15.781
					c2.061,0.878,4.33,1.364,6.712,1.364c1.657,0,3.26-0.235,4.775-0.674c-0.664-0.191-1.311-0.423-1.939-0.69
					C112.668,204.604,112.651,204.596,112.633,204.588z"/>
				<g id="XMLID_2290_">
					<circle id="XMLID_2291_" style="fill:#DC4355;" cx="99.948" cy="188.809" r="3.341"/>
				</g>
				<g id="XMLID_2288_">
					<circle id="XMLID_2289_" style="fill:#DC4355;" cx="118.332" cy="188.83" r="3.341"/>
				</g>
				<g id="XMLID_2286_">
					<circle id="XMLID_2287_" style="fill:#DC4355;" cx="109.251" cy="179.056" r="2.308"/>
				</g>
				<g id="XMLID_2284_">
					<circle id="XMLID_2285_" style="fill:#DC4355;" cx="109.824" cy="198.775" r="2.308"/>
				</g>
				<g id="XMLID_2282_">
					<path id="XMLID_2283_" style="fill:#C60053;" d="M108.983,167.064l-4.167,0.85c-0.459,0.094-0.707,0.608-0.477,1.017
						c0.43,0.764,1.184,1.294,2.041,1.449l0.426,2.089c0.12,0.588,0.694,0.968,1.283,0.848c0.588-0.12,0.968-0.694,0.848-1.283
						l-0.426-2.089c0.728-0.478,1.214-1.261,1.31-2.133C109.872,167.346,109.442,166.97,108.983,167.064z"/>
				</g>
				<g id="XMLID_2280_">
					<path id="XMLID_2281_" style="fill:#C60053;" d="M89.448,183.604l-0.553,4.217c-0.061,0.465,0.345,0.867,0.806,0.782
						c0.863-0.158,1.609-0.698,2.035-1.458l2.114,0.277c0.595,0.078,1.141-0.341,1.219-0.937s-0.341-1.141-0.937-1.219l-2.114-0.277
						c-0.215-0.844-0.797-1.559-1.59-1.933C90.005,182.856,89.509,183.139,89.448,183.604z"/>
				</g>
				<g id="XMLID_2278_">
					<path id="XMLID_2279_" style="fill:#C60053;" d="M131.124,192.719v-4.253c0-0.469-0.454-0.814-0.901-0.671
						c-0.835,0.269-1.505,0.901-1.828,1.71h-2.132c-0.6,0-1.087,0.487-1.087,1.087c0,0.6,0.487,1.087,1.087,1.087h2.132
						c0.323,0.809,0.993,1.442,1.828,1.71C130.669,193.534,131.124,193.188,131.124,192.719z"/>
				</g>
				<g id="XMLID_2276_">
					<path id="XMLID_2277_" style="fill:#C60053;" d="M114.434,210.246l-4.239,0.348c-0.467,0.038-0.849-0.386-0.742-0.843
						c0.199-0.854,0.775-1.574,1.555-1.961l-0.174-2.125c-0.049-0.598,0.396-1.123,0.995-1.172c0.598-0.049,1.123,0.396,1.172,0.995
						l0.174,2.125c0.833,0.255,1.518,0.872,1.854,1.682C115.209,209.727,114.901,210.208,114.434,210.246z"/>
				</g>
				<g id="XMLID_2274_">
					<path id="XMLID_2275_" style="fill:#C60053;" d="M100.599,209.09l-3.729-2.046c-0.411-0.225-0.495-0.79-0.155-1.112
						c0.637-0.603,1.514-0.886,2.378-0.78l1.026-1.87c0.289-0.526,0.95-0.719,1.476-0.43c0.526,0.289,0.719,0.95,0.43,1.476
						l-1.026,1.87c0.554,0.672,0.786,1.564,0.62,2.425C101.531,209.083,101.01,209.316,100.599,209.09z"/>
				</g>
			</g>
		</g>
		<g id="XMLID_2237_">
			<g id="XMLID_2269_">
				<circle id="XMLID_2271_" style="fill:#F8E689;" cx="240.328" cy="93.965" r="29.465"/>
				<path id="XMLID_2270_" style="fill:#D1C377;" d="M239.479,114.359c3.058,3.187,6.829,5.694,11.054,7.255
					c-3.178,1.177-6.62,1.816-10.206,1.816c-16.27,0-29.464-13.194-29.464-29.464c0-16.275,13.194-29.468,29.464-29.468
					c3.586,0,7.028,0.639,10.206,1.816c-4.225,1.561-7.996,4.068-11.054,7.255c-5.077,5.295-8.2,12.485-8.2,20.398
					C231.279,101.878,234.401,109.064,239.479,114.359z"/>
			</g>
			<g id="XMLID_2238_">
				<g id="XMLID_2267_">
					<path id="XMLID_2268_" style="fill:#C60053;" d="M253.603,112.034l3.135-2.874c0.345-0.317,0.293-0.885-0.114-1.117
						c-0.762-0.434-1.681-0.5-2.496-0.191l-1.441-1.572c-0.406-0.443-1.094-0.472-1.536-0.067c-0.443,0.406-0.472,1.094-0.067,1.536
						l1.441,1.572c-0.378,0.785-0.392,1.706-0.025,2.503C252.695,112.249,253.257,112.351,253.603,112.034z"/>
				</g>
				<g id="XMLID_2265_">
					<path id="XMLID_2266_" style="fill:#C60053;" d="M259.906,84.564l-2.135-3.678c-0.235-0.405-0.802-0.476-1.116-0.128
						c-0.587,0.651-0.849,1.535-0.722,2.397l-1.844,1.071c-0.519,0.301-0.696,0.967-0.394,1.486s0.967,0.696,1.486,0.394
						l1.844-1.071c0.685,0.538,1.582,0.748,2.439,0.562C259.922,85.497,260.141,84.969,259.906,84.564z"/>
				</g>
				<g id="XMLID_2263_">
					<path id="XMLID_2264_" style="fill:#C60053;" d="M253.094,75.964l-3.77-1.968c-0.415-0.217-0.932,0.026-1.011,0.488
						c-0.148,0.864,0.103,1.751,0.67,2.411l-0.987,1.89c-0.278,0.532-0.072,1.189,0.461,1.467c0.532,0.278,1.189,0.072,1.467-0.461
						l0.987-1.89c0.866,0.088,1.737-0.213,2.362-0.829C253.606,76.743,253.51,76.18,253.094,75.964z"/>
				</g>
				<g id="XMLID_2261_">
					<path id="XMLID_2262_" style="fill:#C60053;" d="M220.95,104.275l2.415,3.501c0.266,0.386,0.836,0.412,1.122,0.041
						c0.535-0.695,0.727-1.596,0.534-2.445l1.755-1.211c0.494-0.341,0.619-1.018,0.278-1.512c-0.341-0.494-1.018-0.619-1.512-0.278
						l-1.755,1.211c-0.725-0.483-1.636-0.623-2.475-0.37C220.862,103.347,220.684,103.889,220.95,104.275z"/>
				</g>
				<g id="XMLID_2259_">
					<path id="XMLID_2260_" style="fill:#C60053;" d="M226.826,77.72l-3.36,2.608c-0.37,0.287-0.365,0.858,0.022,1.123
						c0.724,0.495,1.635,0.636,2.472,0.395l1.308,1.684c0.368,0.474,1.051,0.56,1.525,0.192c0.474-0.368,0.56-1.051,0.192-1.525
						l-1.308-1.684c0.441-0.751,0.53-1.668,0.23-2.492C227.748,77.58,227.197,77.433,226.826,77.72z"/>
				</g>
				<circle id="XMLID_2258_" style="fill:#C60053;" cx="240.293" cy="94.296" r="17.145"/>
				<path id="XMLID_2257_" style="fill:#970A4B;" d="M243.076,110.054c-2.453-1.055-3.346-4.088-1.873-6.315
					c1.791-2.708,2.833-5.954,2.833-9.443c0-3.489-1.042-6.735-2.833-9.442c-1.473-2.228-0.581-5.261,1.873-6.315
					c0.018-0.008,0.035-0.015,0.053-0.023c0.628-0.268,1.275-0.498,1.939-0.69c-1.515-0.439-3.118-0.674-4.775-0.674
					c-2.382,0-4.651,0.486-6.712,1.364c-6.134,2.611-10.433,8.694-10.433,15.78c0,7.087,4.3,13.169,10.433,15.781
					c2.061,0.878,4.33,1.364,6.712,1.364c1.657,0,3.26-0.235,4.775-0.674c-0.664-0.191-1.311-0.423-1.939-0.69
					C243.112,110.069,243.094,110.061,243.076,110.054z"/>
				<g id="XMLID_2255_">
					<circle id="XMLID_2256_" style="fill:#DC4355;" cx="230.392" cy="94.274" r="3.341"/>
				</g>
				<g id="XMLID_2253_">
					<circle id="XMLID_2254_" style="fill:#DC4355;" cx="248.775" cy="94.296" r="3.341"/>
				</g>
				<g id="XMLID_2251_">
					<circle id="XMLID_2252_" style="fill:#DC4355;" cx="239.694" cy="84.522" r="2.308"/>
				</g>
				<g id="XMLID_2249_">
					<circle id="XMLID_2250_" style="fill:#DC4355;" cx="240.268" cy="104.241" r="2.308"/>
				</g>
				<g id="XMLID_2247_">
					<path id="XMLID_2248_" style="fill:#C60053;" d="M239.426,72.529l-4.167,0.85c-0.459,0.094-0.707,0.608-0.477,1.017
						c0.43,0.764,1.184,1.294,2.041,1.449l0.426,2.089c0.12,0.588,0.694,0.968,1.283,0.848c0.588-0.12,0.968-0.694,0.848-1.283
						l-0.426-2.089c0.728-0.478,1.214-1.261,1.31-2.133C240.315,72.811,239.885,72.435,239.426,72.529z"/>
				</g>
				<g id="XMLID_2245_">
					<path id="XMLID_2246_" style="fill:#C60053;" d="M219.891,89.07l-0.553,4.217c-0.061,0.465,0.345,0.867,0.806,0.782
						c0.863-0.158,1.609-0.698,2.035-1.458l2.114,0.277c0.595,0.078,1.141-0.341,1.219-0.937c0.078-0.595-0.341-1.141-0.937-1.219
						l-2.114-0.277c-0.215-0.844-0.797-1.559-1.59-1.933C220.448,88.321,219.952,88.605,219.891,89.07z"/>
				</g>
				<g id="XMLID_2243_">
					<path id="XMLID_2244_" style="fill:#C60053;" d="M261.567,98.185v-4.253c0-0.469-0.454-0.814-0.901-0.671
						c-0.835,0.269-1.505,0.901-1.828,1.71h-2.132c-0.6,0-1.087,0.487-1.087,1.087c0,0.6,0.487,1.087,1.087,1.087h2.132
						c0.323,0.809,0.993,1.442,1.828,1.71C261.113,98.999,261.567,98.653,261.567,98.185z"/>
				</g>
				<g id="XMLID_2241_">
					<path id="XMLID_2242_" style="fill:#C60053;" d="M244.877,115.712l-4.239,0.348c-0.467,0.038-0.849-0.386-0.742-0.843
						c0.199-0.854,0.775-1.574,1.555-1.961l-0.174-2.125c-0.049-0.598,0.396-1.123,0.995-1.172s1.123,0.396,1.172,0.995l0.174,2.125
						c0.833,0.255,1.518,0.872,1.854,1.682C245.652,115.192,245.344,115.673,244.877,115.712z"/>
				</g>
				<g id="XMLID_2239_">
					<path id="XMLID_2240_" style="fill:#C60053;" d="M231.042,114.555l-3.729-2.046c-0.411-0.225-0.495-0.79-0.155-1.112
						c0.637-0.603,1.514-0.886,2.378-0.78l1.026-1.87c0.289-0.526,0.95-0.719,1.476-0.43s0.719,0.95,0.43,1.476l-1.026,1.87
						c0.554,0.672,0.786,1.564,0.62,2.425C231.975,114.549,231.453,114.781,231.042,114.555z"/>
				</g>
			</g>
		</g>
		<g id="XMLID_2202_">
			<g id="XMLID_2234_">
				<circle id="XMLID_2236_" style="fill:#F8E689;" cx="157.411" cy="327.63" r="29.465"/>
				<path id="XMLID_2235_" style="fill:#D1C377;" d="M156.562,348.024c3.058,3.187,6.829,5.694,11.054,7.255
					c-3.178,1.177-6.62,1.816-10.206,1.816c-16.27,0-29.464-13.194-29.464-29.464c0-16.275,13.194-29.468,29.464-29.468
					c3.586,0,7.028,0.639,10.206,1.816c-4.225,1.561-7.996,4.068-11.054,7.255c-5.077,5.295-8.2,12.485-8.2,20.398
					C148.362,335.543,151.485,342.729,156.562,348.024z"/>
			</g>
			<g id="XMLID_2203_">
				<g id="XMLID_2232_">
					<path id="XMLID_2233_" style="fill:#C60053;" d="M170.686,345.699l3.135-2.874c0.345-0.317,0.293-0.885-0.114-1.117
						c-0.762-0.434-1.681-0.5-2.496-0.191l-1.441-1.572c-0.406-0.443-1.094-0.472-1.536-0.067s-0.472,1.094-0.067,1.536l1.441,1.572
						c-0.378,0.785-0.392,1.706-0.025,2.503C169.779,345.914,170.341,346.016,170.686,345.699z"/>
				</g>
				<g id="XMLID_2230_">
					<path id="XMLID_2231_" style="fill:#C60053;" d="M176.989,318.229l-2.135-3.678c-0.235-0.405-0.802-0.476-1.116-0.128
						c-0.587,0.651-0.849,1.535-0.722,2.397l-1.844,1.071c-0.519,0.301-0.696,0.967-0.394,1.486
						c0.301,0.519,0.967,0.696,1.486,0.394l1.844-1.071c0.685,0.538,1.582,0.748,2.439,0.562
						C177.005,319.162,177.225,318.634,176.989,318.229z"/>
				</g>
				<g id="XMLID_2228_">
					<path id="XMLID_2229_" style="fill:#C60053;" d="M170.177,309.628l-3.77-1.968c-0.415-0.217-0.932,0.026-1.011,0.488
						c-0.148,0.864,0.103,1.751,0.67,2.411l-0.987,1.89c-0.278,0.532-0.072,1.189,0.461,1.467s1.189,0.072,1.467-0.461l0.987-1.89
						c0.866,0.088,1.737-0.213,2.362-0.829C170.689,310.408,170.593,309.845,170.177,309.628z"/>
				</g>
				<g id="XMLID_2226_">
					<path id="XMLID_2227_" style="fill:#C60053;" d="M138.033,337.94l2.415,3.501c0.266,0.386,0.836,0.412,1.122,0.041
						c0.535-0.695,0.727-1.596,0.534-2.445l1.755-1.211c0.494-0.341,0.619-1.018,0.278-1.512c-0.341-0.494-1.018-0.619-1.512-0.278
						l-1.755,1.211c-0.725-0.483-1.636-0.623-2.475-0.37C137.945,337.012,137.767,337.554,138.033,337.94z"/>
				</g>
				<g id="XMLID_2224_">
					<path id="XMLID_2225_" style="fill:#C60053;" d="M143.91,311.385l-3.36,2.608c-0.37,0.287-0.365,0.858,0.022,1.123
						c0.724,0.495,1.635,0.636,2.472,0.395l1.308,1.684c0.368,0.474,1.051,0.56,1.525,0.192c0.474-0.368,0.56-1.051,0.192-1.525
						l-1.308-1.684c0.441-0.751,0.53-1.668,0.23-2.492C144.832,311.245,144.28,311.097,143.91,311.385z"/>
				</g>
				<circle id="XMLID_2223_" style="fill:#C60053;" cx="157.376" cy="327.961" r="17.145"/>
				<path id="XMLID_2222_" style="fill:#970A4B;" d="M160.159,343.719c-2.453-1.055-3.346-4.088-1.873-6.315
					c1.791-2.708,2.833-5.954,2.833-9.443c0-3.489-1.042-6.735-2.833-9.442c-1.473-2.228-0.581-5.261,1.873-6.315
					c0.018-0.008,0.035-0.015,0.053-0.023c0.628-0.268,1.275-0.498,1.939-0.69c-1.515-0.439-3.118-0.674-4.775-0.674
					c-2.382,0-4.651,0.486-6.712,1.364c-6.134,2.611-10.433,8.694-10.433,15.78c0,7.087,4.3,13.169,10.433,15.781
					c2.061,0.878,4.33,1.364,6.712,1.364c1.657,0,3.26-0.235,4.775-0.674c-0.664-0.191-1.311-0.423-1.939-0.69
					C160.195,343.734,160.177,343.726,160.159,343.719z"/>
				<g id="XMLID_2220_">
					<circle id="XMLID_2221_" style="fill:#DC4355;" cx="147.475" cy="327.939" r="3.341"/>
				</g>
				<g id="XMLID_2218_">
					<circle id="XMLID_2219_" style="fill:#DC4355;" cx="165.858" cy="327.961" r="3.341"/>
				</g>
				<g id="XMLID_2216_">
					<circle id="XMLID_2217_" style="fill:#DC4355;" cx="156.777" cy="318.187" r="2.308"/>
				</g>
				<g id="XMLID_2214_">
					<circle id="XMLID_2215_" style="fill:#DC4355;" cx="157.351" cy="337.905" r="2.308"/>
				</g>
				<g id="XMLID_2212_">
					<path id="XMLID_2213_" style="fill:#C60053;" d="M156.509,306.194l-4.167,0.85c-0.459,0.094-0.707,0.608-0.477,1.017
						c0.43,0.764,1.184,1.294,2.041,1.449l0.426,2.089c0.12,0.588,0.694,0.968,1.283,0.848s0.968-0.694,0.848-1.283l-0.426-2.089
						c0.728-0.478,1.214-1.261,1.31-2.133C157.398,306.476,156.969,306.1,156.509,306.194z"/>
				</g>
				<g id="XMLID_2210_">
					<path id="XMLID_2211_" style="fill:#C60053;" d="M136.975,322.734l-0.553,4.217c-0.061,0.465,0.345,0.867,0.806,0.782
						c0.863-0.158,1.609-0.698,2.035-1.458l2.114,0.277c0.595,0.078,1.141-0.341,1.219-0.937c0.078-0.595-0.341-1.141-0.937-1.219
						l-2.114-0.277c-0.215-0.844-0.797-1.559-1.59-1.933C137.531,321.986,137.036,322.27,136.975,322.734z"/>
				</g>
				<g id="XMLID_2208_">
					<path id="XMLID_2209_" style="fill:#C60053;" d="M178.65,331.85v-4.253c0-0.469-0.454-0.814-0.901-0.671
						c-0.835,0.269-1.505,0.901-1.828,1.71h-2.132c-0.6,0-1.087,0.487-1.087,1.087s0.487,1.087,1.087,1.087h2.132
						c0.323,0.809,0.993,1.442,1.828,1.71C178.196,332.664,178.65,332.318,178.65,331.85z"/>
				</g>
				<g id="XMLID_2206_">
					<path id="XMLID_2207_" style="fill:#C60053;" d="M161.961,349.377l-4.239,0.348c-0.467,0.038-0.849-0.386-0.742-0.843
						c0.199-0.854,0.775-1.574,1.555-1.961l-0.174-2.125c-0.049-0.598,0.396-1.123,0.995-1.172c0.598-0.049,1.123,0.396,1.172,0.995
						l0.174,2.125c0.833,0.255,1.518,0.872,1.854,1.682C162.735,348.857,162.428,349.338,161.961,349.377z"/>
				</g>
				<g id="XMLID_2204_">
					<path id="XMLID_2205_" style="fill:#C60053;" d="M148.125,348.22l-3.729-2.046c-0.411-0.225-0.495-0.79-0.155-1.112
						c0.637-0.603,1.514-0.886,2.378-0.78l1.026-1.87c0.289-0.526,0.95-0.719,1.476-0.43c0.526,0.289,0.719,0.95,0.43,1.476
						l-1.026,1.87c0.554,0.672,0.786,1.564,0.62,2.425C149.058,348.214,148.536,348.446,148.125,348.22z"/>
				</g>
			</g>
		</g>
		<g id="XMLID_2165_">
			<g id="XMLID_2198_">
				<circle id="XMLID_2201_" style="fill:#F8E689;" cx="247.873" cy="385.475" r="29.465"/>
				<path id="XMLID_2199_" style="fill:#D1C377;" d="M247.024,405.87c3.058,3.187,6.829,5.694,11.054,7.255
					c-3.178,1.177-6.62,1.816-10.206,1.816c-16.27,0-29.464-13.194-29.464-29.464c0-16.275,13.194-29.468,29.464-29.468
					c3.586,0,7.028,0.639,10.206,1.816c-4.225,1.561-7.996,4.068-11.054,7.255c-5.077,5.295-8.2,12.485-8.2,20.398
					C238.824,393.389,241.946,400.574,247.024,405.87z"/>
			</g>
			<g id="XMLID_2166_">
				<g id="XMLID_2196_">
					<path id="XMLID_2197_" style="fill:#C60053;" d="M261.148,403.544l3.135-2.874c0.345-0.317,0.293-0.885-0.114-1.117
						c-0.762-0.434-1.681-0.5-2.496-0.191l-1.441-1.572c-0.406-0.443-1.094-0.472-1.536-0.067s-0.472,1.094-0.067,1.536l1.441,1.572
						c-0.378,0.785-0.392,1.706-0.025,2.503C260.24,403.76,260.802,403.861,261.148,403.544z"/>
				</g>
				<g id="XMLID_2194_">
					<path id="XMLID_2195_" style="fill:#C60053;" d="M267.451,376.075l-2.135-3.678c-0.235-0.405-0.802-0.476-1.116-0.128
						c-0.587,0.651-0.849,1.535-0.722,2.397l-1.844,1.071c-0.519,0.301-0.696,0.967-0.394,1.486
						c0.301,0.519,0.967,0.696,1.486,0.394l1.844-1.071c0.685,0.538,1.582,0.748,2.439,0.562
						C267.467,377.007,267.686,376.48,267.451,376.075z"/>
				</g>
				<g id="XMLID_2192_">
					<path id="XMLID_2193_" style="fill:#C60053;" d="M260.639,367.474l-3.77-1.968c-0.415-0.217-0.932,0.026-1.011,0.488
						c-0.148,0.864,0.103,1.751,0.67,2.411l-0.987,1.89c-0.278,0.532-0.072,1.189,0.461,1.467c0.532,0.278,1.189,0.072,1.467-0.461
						l0.987-1.89c0.866,0.088,1.737-0.213,2.362-0.829C261.151,368.254,261.055,367.691,260.639,367.474z"/>
				</g>
				<g id="XMLID_2190_">
					<path id="XMLID_2191_" style="fill:#C60053;" d="M228.495,395.786l2.415,3.501c0.266,0.386,0.836,0.412,1.122,0.041
						c0.535-0.695,0.727-1.596,0.534-2.445l1.755-1.211c0.494-0.341,0.619-1.018,0.278-1.512c-0.341-0.494-1.018-0.619-1.512-0.278
						l-1.755,1.211c-0.725-0.483-1.636-0.623-2.475-0.37C228.407,394.857,228.229,395.4,228.495,395.786z"/>
				</g>
				<g id="XMLID_2188_">
					<path id="XMLID_2189_" style="fill:#C60053;" d="M234.371,369.231l-3.36,2.608c-0.37,0.287-0.365,0.858,0.022,1.123
						c0.724,0.495,1.635,0.636,2.472,0.395l1.308,1.684c0.368,0.474,1.051,0.56,1.525,0.192c0.474-0.368,0.56-1.051,0.192-1.525
						l-1.308-1.684c0.441-0.751,0.53-1.668,0.23-2.492C235.293,369.09,234.741,368.943,234.371,369.231z"/>
				</g>
				<circle id="XMLID_2187_" style="fill:#C60053;" cx="247.838" cy="385.806" r="17.145"/>
				<path id="XMLID_2186_" style="fill:#970A4B;" d="M250.621,401.564c-2.453-1.055-3.346-4.088-1.873-6.315
					c1.791-2.708,2.833-5.954,2.833-9.443c0-3.489-1.042-6.735-2.833-9.442c-1.473-2.228-0.581-5.261,1.873-6.315
					c0.018-0.008,0.035-0.015,0.053-0.023c0.628-0.268,1.275-0.498,1.939-0.69c-1.515-0.439-3.118-0.674-4.775-0.674
					c-2.382,0-4.651,0.486-6.712,1.364c-6.134,2.611-10.433,8.694-10.433,15.78c0,7.087,4.3,13.169,10.433,15.781
					c2.061,0.878,4.33,1.364,6.712,1.364c1.657,0,3.26-0.235,4.775-0.674c-0.664-0.191-1.311-0.423-1.939-0.69
					C250.657,401.58,250.639,401.572,250.621,401.564z"/>
				<g id="XMLID_2184_">
					<circle id="XMLID_2185_" style="fill:#DC4355;" cx="237.937" cy="385.785" r="3.341"/>
				</g>
				<g id="XMLID_2182_">
					<circle id="XMLID_2183_" style="fill:#DC4355;" cx="256.32" cy="385.806" r="3.341"/>
				</g>
				<g id="XMLID_2180_">
					<circle id="XMLID_2181_" style="fill:#DC4355;" cx="247.239" cy="376.032" r="2.308"/>
				</g>
				<g id="XMLID_2178_">
					<circle id="XMLID_2179_" style="fill:#DC4355;" cx="247.812" cy="395.751" r="2.308"/>
				</g>
				<g id="XMLID_2175_">
					<path id="XMLID_2177_" style="fill:#C60053;" d="M246.971,364.04l-4.167,0.85c-0.459,0.094-0.707,0.608-0.477,1.017
						c0.43,0.764,1.184,1.294,2.041,1.449l0.426,2.089c0.12,0.588,0.694,0.968,1.283,0.848s0.968-0.694,0.848-1.283l-0.426-2.089
						c0.728-0.478,1.214-1.261,1.31-2.133C247.86,364.322,247.43,363.946,246.971,364.04z"/>
				</g>
				<g id="XMLID_2173_">
					<path id="XMLID_2174_" style="fill:#C60053;" d="M227.436,380.58l-0.553,4.217c-0.061,0.465,0.345,0.867,0.806,0.782
						c0.863-0.158,1.609-0.698,2.035-1.458l2.114,0.277c0.595,0.078,1.141-0.341,1.219-0.937c0.078-0.595-0.341-1.141-0.937-1.219
						l-2.114-0.277c-0.215-0.844-0.797-1.559-1.59-1.933C227.993,379.832,227.497,380.115,227.436,380.58z"/>
				</g>
				<g id="XMLID_2171_">
					<path id="XMLID_2172_" style="fill:#C60053;" d="M269.112,389.695v-4.253c0-0.469-0.454-0.814-0.901-0.671
						c-0.835,0.269-1.505,0.901-1.828,1.71h-2.132c-0.6,0-1.087,0.487-1.087,1.087s0.487,1.087,1.087,1.087h2.132
						c0.323,0.809,0.993,1.442,1.828,1.71C268.658,390.51,269.112,390.164,269.112,389.695z"/>
				</g>
				<g id="XMLID_2169_">
					<path id="XMLID_2170_" style="fill:#C60053;" d="M252.422,407.222l-4.239,0.348c-0.467,0.038-0.849-0.386-0.742-0.843
						c0.199-0.854,0.775-1.574,1.555-1.961l-0.174-2.125c-0.049-0.598,0.396-1.123,0.995-1.172c0.598-0.049,1.123,0.396,1.172,0.995
						l0.174,2.125c0.833,0.255,1.518,0.872,1.854,1.682C253.197,406.703,252.889,407.184,252.422,407.222z"/>
				</g>
				<g id="XMLID_2167_">
					<path id="XMLID_2168_" style="fill:#C60053;" d="M238.587,406.066l-3.729-2.046c-0.411-0.225-0.495-0.79-0.155-1.112
						c0.637-0.603,1.514-0.886,2.378-0.78l1.026-1.87c0.289-0.526,0.95-0.719,1.476-0.43c0.526,0.289,0.719,0.95,0.43,1.476
						l-1.026,1.87c0.554,0.672,0.786,1.564,0.62,2.425C239.519,406.059,238.998,406.292,238.587,406.066z"/>
				</g>
			</g>
		</g>
		<g id="XMLID_2129_">
			<g id="XMLID_2162_">
				<circle id="XMLID_2164_" style="fill:#F8E689;" cx="396.846" cy="321.595" r="29.465"/>
				<path id="XMLID_2163_" style="fill:#D1C377;" d="M395.997,341.99c3.058,3.187,6.829,5.694,11.054,7.255
					c-3.178,1.177-6.62,1.816-10.206,1.816c-16.27,0-29.464-13.194-29.464-29.464c0-16.275,13.194-29.468,29.464-29.468
					c3.586,0,7.028,0.639,10.206,1.816c-4.225,1.561-7.996,4.068-11.054,7.255c-5.077,5.295-8.2,12.485-8.2,20.398
					S390.92,336.694,395.997,341.99z"/>
			</g>
			<g id="XMLID_2130_">
				<g id="XMLID_2160_">
					<path id="XMLID_2161_" style="fill:#C60053;" d="M410.121,339.664l3.135-2.874c0.345-0.317,0.293-0.885-0.114-1.117
						c-0.762-0.434-1.681-0.5-2.496-0.191l-1.441-1.572c-0.406-0.443-1.094-0.472-1.536-0.067c-0.443,0.406-0.472,1.094-0.067,1.536
						l1.441,1.572c-0.378,0.785-0.392,1.706-0.025,2.503C409.214,339.88,409.776,339.981,410.121,339.664z"/>
				</g>
				<g id="XMLID_2158_">
					<path id="XMLID_2159_" style="fill:#C60053;" d="M416.424,312.195l-2.135-3.678c-0.235-0.405-0.802-0.476-1.116-0.128
						c-0.587,0.651-0.849,1.535-0.722,2.397l-1.844,1.071c-0.519,0.301-0.696,0.967-0.394,1.486
						c0.301,0.519,0.967,0.696,1.486,0.394l1.844-1.071c0.685,0.538,1.582,0.748,2.439,0.562
						C416.44,313.127,416.66,312.6,416.424,312.195z"/>
				</g>
				<g id="XMLID_2156_">
					<path id="XMLID_2157_" style="fill:#C60053;" d="M409.612,303.594l-3.77-1.968c-0.415-0.217-0.932,0.026-1.011,0.488
						c-0.148,0.864,0.103,1.751,0.67,2.411l-0.987,1.89c-0.278,0.532-0.072,1.189,0.461,1.467c0.532,0.278,1.189,0.072,1.467-0.461
						l0.987-1.89c0.866,0.088,1.737-0.213,2.362-0.829C410.124,304.374,410.028,303.811,409.612,303.594z"/>
				</g>
				<g id="XMLID_2154_">
					<path id="XMLID_2155_" style="fill:#C60053;" d="M377.468,331.906l2.415,3.501c0.266,0.386,0.836,0.412,1.122,0.041
						c0.535-0.695,0.727-1.596,0.534-2.445l1.755-1.211c0.494-0.341,0.619-1.018,0.278-1.512s-1.018-0.619-1.512-0.278l-1.755,1.211
						c-0.725-0.483-1.636-0.623-2.475-0.37C377.38,330.977,377.202,331.52,377.468,331.906z"/>
				</g>
				<g id="XMLID_2152_">
					<path id="XMLID_2153_" style="fill:#C60053;" d="M383.345,305.351l-3.36,2.608c-0.37,0.287-0.365,0.858,0.022,1.123
						c0.724,0.495,1.635,0.636,2.472,0.395l1.308,1.684c0.368,0.474,1.051,0.56,1.525,0.192c0.474-0.368,0.56-1.051,0.192-1.525
						l-1.308-1.684c0.441-0.751,0.53-1.668,0.23-2.492C384.267,305.21,383.715,305.063,383.345,305.351z"/>
				</g>
				<circle id="XMLID_2151_" style="fill:#C60053;" cx="396.811" cy="321.926" r="17.145"/>
				<path id="XMLID_2150_" style="fill:#970A4B;" d="M399.594,337.684c-2.453-1.055-3.346-4.088-1.873-6.315
					c1.791-2.708,2.833-5.954,2.833-9.443c0-3.489-1.043-6.735-2.833-9.442c-1.473-2.228-0.581-5.261,1.873-6.315
					c0.018-0.008,0.035-0.015,0.053-0.023c0.628-0.268,1.275-0.498,1.939-0.69c-1.515-0.439-3.118-0.674-4.775-0.674
					c-2.382,0-4.651,0.486-6.712,1.364c-6.134,2.611-10.433,8.694-10.433,15.78c0,7.087,4.3,13.169,10.433,15.781
					c2.061,0.878,4.33,1.364,6.712,1.364c1.657,0,3.26-0.235,4.775-0.674c-0.664-0.191-1.311-0.423-1.939-0.69
					C399.63,337.7,399.612,337.692,399.594,337.684z"/>
				<g id="XMLID_2148_">
					<circle id="XMLID_2149_" style="fill:#DC4355;" cx="386.91" cy="321.905" r="3.341"/>
				</g>
				<g id="XMLID_2146_">
					<circle id="XMLID_2147_" style="fill:#DC4355;" cx="405.293" cy="321.926" r="3.341"/>
				</g>
				<g id="XMLID_2144_">
					<circle id="XMLID_2145_" style="fill:#DC4355;" cx="396.212" cy="312.152" r="2.308"/>
				</g>
				<g id="XMLID_2142_">
					<circle id="XMLID_2143_" style="fill:#DC4355;" cx="396.786" cy="331.871" r="2.308"/>
				</g>
				<g id="XMLID_2140_">
					<path id="XMLID_2141_" style="fill:#C60053;" d="M395.944,300.16l-4.167,0.85c-0.459,0.094-0.707,0.608-0.477,1.017
						c0.43,0.764,1.184,1.294,2.041,1.449l0.426,2.089c0.12,0.588,0.694,0.968,1.283,0.848c0.588-0.12,0.968-0.694,0.848-1.283
						l-0.426-2.089c0.728-0.478,1.214-1.261,1.31-2.133C396.833,300.442,396.403,300.066,395.944,300.16z"/>
				</g>
				<g id="XMLID_2138_">
					<path id="XMLID_2139_" style="fill:#C60053;" d="M376.409,316.7l-0.553,4.217c-0.061,0.465,0.345,0.867,0.806,0.782
						c0.863-0.158,1.609-0.698,2.035-1.458l2.114,0.277c0.595,0.078,1.141-0.341,1.219-0.937c0.078-0.595-0.341-1.141-0.936-1.219
						l-2.114-0.277c-0.215-0.844-0.797-1.559-1.59-1.933C376.966,315.952,376.47,316.235,376.409,316.7z"/>
				</g>
				<g id="XMLID_2135_">
					<path id="XMLID_2137_" style="fill:#C60053;" d="M418.085,325.815v-4.253c0-0.469-0.454-0.814-0.901-0.671
						c-0.835,0.269-1.505,0.901-1.828,1.71h-2.132c-0.6,0-1.087,0.487-1.087,1.087c0,0.6,0.487,1.087,1.087,1.087h2.132
						c0.323,0.809,0.993,1.442,1.828,1.71C417.631,326.63,418.085,326.284,418.085,325.815z"/>
				</g>
				<g id="XMLID_2133_">
					<path id="XMLID_2134_" style="fill:#C60053;" d="M401.395,343.342l-4.239,0.348c-0.467,0.038-0.849-0.386-0.742-0.843
						c0.199-0.854,0.775-1.574,1.555-1.961l-0.174-2.125c-0.049-0.598,0.396-1.123,0.995-1.172c0.598-0.049,1.123,0.396,1.172,0.995
						l0.174,2.125c0.833,0.255,1.518,0.872,1.854,1.682C402.17,342.823,401.863,343.304,401.395,343.342z"/>
				</g>
				<g id="XMLID_2131_">
					<path id="XMLID_2132_" style="fill:#C60053;" d="M387.56,342.186l-3.729-2.046c-0.411-0.225-0.495-0.79-0.155-1.112
						c0.637-0.603,1.514-0.886,2.378-0.78l1.026-1.87c0.289-0.526,0.95-0.719,1.476-0.43c0.526,0.289,0.719,0.95,0.43,1.476
						l-1.026,1.87c0.554,0.672,0.786,1.564,0.62,2.425C388.493,342.179,387.971,342.412,387.56,342.186z"/>
				</g>
			</g>
		</g>
		<g id="XMLID_1636_">
			<g id="XMLID_2126_">
				<circle id="XMLID_2128_" style="fill:#F8E689;" cx="374.84" cy="144.118" r="29.465"/>
				<path id="XMLID_2127_" style="fill:#D1C377;" d="M373.991,164.512c3.058,3.187,6.829,5.694,11.054,7.255
					c-3.178,1.177-6.62,1.816-10.206,1.816c-16.27,0-29.464-13.194-29.464-29.464c0-16.275,13.194-29.468,29.464-29.468
					c3.586,0,7.028,0.639,10.206,1.816c-4.225,1.561-7.996,4.068-11.054,7.255c-5.077,5.295-8.2,12.485-8.2,20.398
					C365.791,152.032,368.913,159.217,373.991,164.512z"/>
			</g>
			<g id="XMLID_1637_">
				<g id="XMLID_2124_">
					<path id="XMLID_2125_" style="fill:#C60053;" d="M388.115,162.187l3.135-2.874c0.345-0.317,0.293-0.885-0.114-1.117
						c-0.762-0.434-1.681-0.5-2.496-0.191l-1.441-1.572c-0.406-0.443-1.094-0.472-1.536-0.067c-0.443,0.406-0.472,1.094-0.067,1.536
						l1.441,1.572c-0.378,0.785-0.392,1.706-0.025,2.503C387.207,162.402,387.769,162.504,388.115,162.187z"/>
				</g>
				<g id="XMLID_2122_">
					<path id="XMLID_2123_" style="fill:#C60053;" d="M394.418,134.717l-2.135-3.678c-0.235-0.405-0.802-0.476-1.116-0.128
						c-0.587,0.651-0.849,1.535-0.722,2.397l-1.844,1.071c-0.519,0.301-0.696,0.967-0.394,1.486
						c0.301,0.519,0.967,0.696,1.486,0.394l1.844-1.071c0.685,0.538,1.582,0.748,2.439,0.562
						C394.434,135.65,394.653,135.123,394.418,134.717z"/>
				</g>
				<g id="XMLID_2120_">
					<path id="XMLID_2121_" style="fill:#C60053;" d="M387.606,126.117l-3.77-1.968c-0.415-0.217-0.932,0.026-1.011,0.488
						c-0.148,0.864,0.103,1.751,0.67,2.411l-0.987,1.89c-0.278,0.532-0.072,1.189,0.461,1.467c0.532,0.278,1.189,0.072,1.467-0.461
						l0.987-1.89c0.866,0.088,1.737-0.213,2.362-0.829C388.118,126.896,388.021,126.334,387.606,126.117z"/>
				</g>
				<g id="XMLID_2118_">
					<path id="XMLID_2119_" style="fill:#C60053;" d="M355.462,154.428l2.415,3.501c0.266,0.386,0.836,0.412,1.122,0.041
						c0.535-0.695,0.727-1.596,0.534-2.445l1.755-1.211c0.494-0.341,0.619-1.018,0.278-1.512s-1.018-0.619-1.512-0.278l-1.755,1.211
						c-0.725-0.483-1.636-0.623-2.475-0.37C355.374,153.5,355.196,154.042,355.462,154.428z"/>
				</g>
				<g id="XMLID_1719_">
					<path id="XMLID_1756_" style="fill:#C60053;" d="M361.338,127.873l-3.36,2.608c-0.37,0.287-0.365,0.858,0.022,1.123
						c0.724,0.495,1.635,0.636,2.472,0.395l1.308,1.684c0.368,0.474,1.051,0.56,1.525,0.192c0.474-0.368,0.56-1.051,0.192-1.525
						l-1.308-1.684c0.441-0.751,0.53-1.668,0.23-2.492C362.26,127.733,361.708,127.586,361.338,127.873z"/>
				</g>
				<circle id="XMLID_1718_" style="fill:#C60053;" cx="374.805" cy="144.449" r="17.145"/>
				<path id="XMLID_1717_" style="fill:#970A4B;" d="M377.588,160.207c-2.453-1.055-3.346-4.088-1.873-6.315
					c1.791-2.708,2.833-5.954,2.833-9.443c0-3.489-1.042-6.735-2.833-9.442c-1.473-2.228-0.581-5.261,1.873-6.315
					c0.018-0.008,0.035-0.015,0.053-0.023c0.628-0.268,1.275-0.498,1.939-0.69c-1.515-0.439-3.118-0.674-4.775-0.674
					c-2.382,0-4.651,0.486-6.712,1.364c-6.134,2.611-10.433,8.694-10.433,15.78c0,7.087,4.3,13.169,10.433,15.781
					c2.061,0.878,4.33,1.364,6.712,1.364c1.657,0,3.26-0.235,4.775-0.674c-0.664-0.191-1.311-0.423-1.939-0.69
					C377.623,160.222,377.606,160.215,377.588,160.207z"/>
				<g id="XMLID_1715_">
					<circle id="XMLID_1716_" style="fill:#DC4355;" cx="364.903" cy="144.427" r="3.341"/>
				</g>
				<g id="XMLID_1713_">
					<circle id="XMLID_1714_" style="fill:#DC4355;" cx="383.287" cy="144.449" r="3.341"/>
				</g>
				<g id="XMLID_1711_">
					<circle id="XMLID_1712_" style="fill:#DC4355;" cx="374.206" cy="134.675" r="2.308"/>
				</g>
				<g id="XMLID_1709_">
					<circle id="XMLID_1710_" style="fill:#DC4355;" cx="374.779" cy="154.394" r="2.308"/>
				</g>
				<g id="XMLID_1674_">
					<path id="XMLID_1676_" style="fill:#C60053;" d="M373.938,122.682l-4.167,0.85c-0.459,0.094-0.707,0.608-0.477,1.017
						c0.43,0.764,1.184,1.294,2.041,1.449l0.426,2.089c0.12,0.588,0.694,0.968,1.283,0.848s0.968-0.694,0.848-1.283l-0.426-2.089
						c0.728-0.478,1.214-1.261,1.31-2.133C374.827,122.965,374.397,122.588,373.938,122.682z"/>
				</g>
				<g id="XMLID_1644_">
					<path id="XMLID_1645_" style="fill:#C60053;" d="M354.403,139.223l-0.553,4.217c-0.061,0.465,0.345,0.867,0.806,0.782
						c0.863-0.158,1.609-0.698,2.035-1.458l2.114,0.277c0.595,0.078,1.141-0.341,1.219-0.937c0.078-0.595-0.341-1.141-0.937-1.219
						l-2.114-0.277c-0.215-0.844-0.797-1.559-1.59-1.933C354.96,138.474,354.464,138.758,354.403,139.223z"/>
				</g>
				<g id="XMLID_1642_">
					<path id="XMLID_1643_" style="fill:#C60053;" d="M396.079,148.338v-4.253c0-0.469-0.454-0.814-0.901-0.671
						c-0.835,0.269-1.505,0.901-1.828,1.71h-2.132c-0.6,0-1.087,0.487-1.087,1.087s0.487,1.087,1.087,1.087h2.132
						c0.323,0.809,0.993,1.442,1.828,1.71C395.624,149.152,396.079,148.807,396.079,148.338z"/>
				</g>
				<g id="XMLID_1640_">
					<path id="XMLID_1641_" style="fill:#C60053;" d="M379.389,165.865l-4.239,0.348c-0.467,0.038-0.849-0.386-0.742-0.843
						c0.199-0.854,0.775-1.574,1.555-1.961l-0.174-2.125c-0.049-0.598,0.396-1.123,0.995-1.172c0.598-0.049,1.123,0.396,1.172,0.995
						l0.174,2.125c0.833,0.255,1.518,0.872,1.854,1.682C380.164,165.345,379.856,165.827,379.389,165.865z"/>
				</g>
				<g id="XMLID_1638_">
					<path id="XMLID_1639_" style="fill:#C60053;" d="M365.554,164.709l-3.729-2.046c-0.411-0.225-0.495-0.79-0.155-1.112
						c0.637-0.603,1.514-0.886,2.378-0.78l1.026-1.87c0.289-0.526,0.95-0.719,1.476-0.43s0.719,0.95,0.43,1.476l-1.026,1.87
						c0.554,0.672,0.786,1.564,0.62,2.425C366.486,164.702,365.965,164.934,365.554,164.709z"/>
				</g>
			</g>
		</g>
	</g>
</g>
</svg>
