<?xml version="1.0" encoding="iso-8859-1"?>
<!-- Generator: Adobe Illustrator 22.0.1, SVG Export Plug-In . SVG Version: 6.00 Build 0)  -->
<svg version="1.1" xmlns="http://www.w3.org/2000/svg" xmlns:xlink="http://www.w3.org/1999/xlink" x="0px" y="0px"
	 viewBox="0 0 512 512" style="enable-background:new 0 0 512 512;" xml:space="preserve">
<g id="BULINE">
	<circle id="XMLID_1158_" style="fill:#273277;" cx="256" cy="256" r="256"/>
</g>
<g id="Icons">
	<g>
		<path id="XMLID_2779_" style="fill:#222B5A;" d="M511.07,277.89C499.97,409.02,390.01,512,256,512C114.62,512,0,397.38,0,256
			C0,158.45,54.57,73.64,134.84,30.44c10.12,11.75,19,27.8,25.11,49.62c5.93,21.19,5.76,43.55,0.47,64.91
			c-2.6,10.47-4.09,24.38-0.49,39.55c0.98,4.12,2.31,8.09,3.96,11.87c3.46,7.98,8.32,15.17,14.26,21.3
			c11.6,12.02,27.3,20.03,44.63,22.16c0.45,0.06,0.91,0.11,1.38,0.17c8.75,1.13,19.09,2.93,29.94,5.81
			c26.54,7.02,56.22,20.46,73.75,46.17c2.43,3.55,4.61,7.33,6.53,11.36c3.73,7.84,6.43,16.62,7.81,26.46l-4.03,35.28l-1.42,12.48
			c-1,8.82,5.78,16.71,14.66,16.82h0.18c25.74,0.23,48.23-17.16,55.59-41.83c1.61-5.39,3.7-11.57,6.38-18.05
			c11.84-28.65,35.13-63.26,78.31-62.13l0.5,0.14L511.07,277.89z"/>
		<g>
			<path id="XMLID_1757_" style="fill:none;stroke:#8DC1F6;stroke-width:10;stroke-miterlimit:10;" d="M385.497,205.692
				c0,0,23.473-35.444,58.344-32.137c18.557,1.76,33.878,15.316,38.492,33.377c8.456,33.098,12.023,97.876-80.382,117.73
				c0,0-28.074,10.26-43.628-7.136"/>
			<path id="XMLID_864_" style="fill:none;stroke:#8DC1F6;stroke-width:10;stroke-miterlimit:10;" d="M126.502,205.692
				c0,0-23.473-35.444-58.344-32.137c-18.557,1.76-33.878,15.316-38.492,33.377c-8.456,33.098-12.023,97.876,80.382,117.73
				c0,0,28.074,10.26,43.628-7.136"/>
			<g id="XMLID_865_">
				<path id="XMLID_1755_" style="fill:#D4DAF9;" d="M424.548,193.063c-18.251-7.68-36.501-14.11-54.752-19.293
					c-12.611-3.582-24.136-10.413-32.897-20.166c-17.279-19.236-47.059-31.938-80.902-31.938s-63.623,12.703-80.902,31.938
					c-8.761,9.753-20.286,16.584-32.897,20.166c-18.251,5.183-36.501,11.613-54.752,19.293c-6.541,2.753-10.816,9.138-10.816,16.235
					v53.46c0,57.842,42.174,107.177,99.362,115.852c53.337,8.09,106.673,8.09,160.01,0c57.188-8.675,99.362-58.009,99.362-115.852
					v-53.46C435.364,202.2,431.089,195.815,424.548,193.063z"/>
				<path id="XMLID_1657_" style="fill:#BECAF6;" d="M435.362,263.893v-22.284c0-7.089-4.268-13.473-10.807-16.235
					c-18.255-7.675-36.509-14.106-54.752-19.295c-12.624-3.574-24.149-10.401-32.899-20.168
					c-17.286-19.223-47.066-31.931-80.897-31.931h-0.239c-11.142,0-22.128,3.192-31.249,9.588
					c-6.539,4.579-13.88,7.998-21.626,10.197c-5.667,1.614-11.321,3.335-16.988,5.188c-4.112,1.339-7.794,3.742-10.747,6.898
					c-0.012,0.012-0.036,0.036-0.06,0.06c0,0.012,0,0.012,0,0.012c-3.419,3.802-7.256,7.149-11.417,10.054
					c-14.071,12.66-23.204,29.803-25.655,48.44h42.439c11.369,0,22.379-1.889,32.72-5.607c15.72-5.678,46.934-13.341,79.451-1.052
					c11.704,4.423,23.551,6.659,35.206,6.659h83.181c3.969,0,7.149,3.419,6.754,7.472c-0.335,3.527-3.503,6.121-7.053,6.121h-82.882
					c-13.305,0-26.766-2.534-40.012-7.543c-28.428-10.747-56.079-3.909-70.031,1.124c-11.823,4.256-24.387,6.42-37.334,6.42h-38.398
					c-1.315,0-2.499,0.526-3.359,1.387c-0.849,0.861-1.387,2.056-1.387,3.359c0,12.038,1.853,23.694,5.26,34.693h46.934
					c9.851,0,19.378-1.626,28.321-4.854c13.856-4.997,41.375-11.751,70.055-0.921c10.138,3.837,20.395,5.774,30.484,5.774h72.72
					c3.969,0,7.137,3.419,6.754,7.472c-0.335,3.527-3.503,6.121-7.053,6.121h-72.422c-11.74,0-23.61-2.236-35.29-6.647
					c-24.591-9.301-48.548-3.383-60.634,0.98c-10.436,3.766-21.506,5.667-32.935,5.667h-30.939c-5.069,0-8.321,5.487-5.798,9.887
					c6.695,11.727,15.374,22.212,25.619,30.974c1.458-3.12,5.081-4.686,8.404-3.527c0.956,0.334,66.133,22.439,138.866-0.072
					c3.586-1.112,7.388,0.897,8.5,4.483c1.112,3.574-0.897,7.388-4.483,8.5c-26.264,8.129-51.357,10.843-73.163,10.843
					c-13.497,0-25.727-1.04-36.187-2.486c-3.06-0.419-4.089,3.993-1.136,4.913c5.643,1.781,11.476,3.144,17.49,4.053
					c16.557,2.51,33.114,4.244,49.66,5.2c-21.53,1.243-43.073,1.16-64.627-0.239c-15.242-0.992-30.484-2.642-45.727-4.961
					c-56.821-8.619-98.817-57.371-99.355-114.717c-0.012-0.18-0.012-0.359-0.012-0.526v-0.598l0.012-52.864v-0.61
					c0-7.089,4.268-13.473,10.807-16.234c16.844-7.077,33.688-13.103,50.532-18.064c1.411-0.419,2.809-0.837,4.22-1.231
					c12.612-3.574,24.137-10.401,32.899-20.168c17.275-19.223,47.066-31.931,80.909-31.931c10.592,0,20.801,1.243,30.341,3.551
					c-0.418,0.095-0.849,0.203-1.279,0.311c21.483,4.949,39.725,15.207,51.836,28.68c8.751,9.755,20.275,16.593,32.899,20.167
					c18.243,5.176,36.498,11.608,54.752,19.295c6.539,2.75,10.807,9.146,10.807,16.235l0.012,53.461
					C435.374,263.534,435.374,263.713,435.362,263.893z"/>
				<path id="XMLID_1655_" style="fill:#B3BFE2;" d="M221.732,383.559l-0.012,0.012c-15.242-0.992-30.484-2.642-45.727-4.961
					c-56.821-8.619-98.817-57.371-99.355-114.717c-0.012-0.18-0.012-0.359-0.012-0.526v-0.598l0.012-52.864v-0.61
					c0-7.089,4.268-13.473,10.807-16.234c16.844-7.077,33.688-13.103,50.532-18.064C117.104,230.766,91.557,347.001,221.732,383.559
					z"/>
				<g id="XMLID_1752_">
					<path id="XMLID_1753_" style="fill:#FFFFFF;" d="M411.018,245.586h-83.172c-13.31,0-26.773-2.539-40.018-7.545
						c-28.424-10.745-56.078-3.91-70.032,1.121c-11.823,4.263-24.383,6.424-37.335,6.424H93.955c-3.752,0-6.794-3.042-6.794-6.794
						c0-3.752,3.042-6.794,6.794-6.794h86.506c11.375,0,22.385-1.89,32.725-5.618c15.718-5.667,46.938-13.338,79.447-1.049
						c11.702,4.424,23.55,6.667,35.212,6.667h83.172c3.753,0,6.794,3.042,6.794,6.794
						C417.812,242.544,414.771,245.586,411.018,245.586z"/>
				</g>
				<g id="XMLID_1750_">
					<path id="XMLID_1751_" style="fill:#FFFFFF;" d="M391.088,301.218h-72.717c-11.739,0-23.612-2.238-35.288-6.652
						c-24.595-9.3-48.548-3.375-60.638,0.985c-10.428,3.761-21.507,5.667-32.93,5.667h-75.631c-3.752,0-6.794-3.041-6.794-6.794
						c0-3.753,3.042-6.794,6.794-6.794h75.631c9.846,0,19.375-1.636,28.321-4.862c13.853-4.993,41.374-11.752,70.052-0.912
						c10.136,3.831,20.392,5.774,30.484,5.774h72.717c3.753,0,6.794,3.041,6.794,6.794
						C397.883,298.177,394.841,301.218,391.088,301.218z"/>
				</g>
				<g id="XMLID_1748_">
					<path id="XMLID_1749_" style="fill:#FFFFFF;" d="M256.522,363.358c-42.411,0-72.365-10.268-74.23-10.923
						c-3.54-1.244-5.402-5.122-4.158-8.663c1.245-3.54,5.12-5.403,8.663-4.158c0.956,0.332,66.134,22.434,138.87-0.081
						c3.584-1.111,7.39,0.897,8.5,4.482c1.109,3.585-0.897,7.39-4.482,8.5C303.422,360.644,278.326,363.358,256.522,363.358z"/>
				</g>
			</g>
		</g>
	</g>
</g>
</svg>
