<?xml version="1.0" encoding="iso-8859-1"?>
<!-- Generator: Adobe Illustrator 22.0.1, SVG Export Plug-In . SVG Version: 6.00 Build 0)  -->
<svg version="1.1" xmlns="http://www.w3.org/2000/svg" xmlns:xlink="http://www.w3.org/1999/xlink" x="0px" y="0px"
	 viewBox="0 0 512 512" style="enable-background:new 0 0 512 512;" xml:space="preserve">
<g id="BULINE">
	<circle id="XMLID_6492_" style="fill:#78C478;" cx="256" cy="256" r="256"/>
</g>
<g id="Icons">
	<g id="XMLID_1120_">
		<path id="XMLID_6606_" style="fill:#6BAA6B;" d="M460.36,402.28c0,2.72-0.05,5.43-0.16,8.13C413.46,472.13,339.39,512,256,512
			c-82.93,0-156.65-39.44-203.43-100.58c-0.14-3.03-0.21-6.08-0.21-9.14c0-48.89,17.19-93.77,45.87-128.9
			c7.73-9.47,16.29-18.23,25.58-26.17c13.82-11.83,29.23-21.84,45.88-29.66c0.6-0.28,1.2-0.56,1.81-0.84
			c4.55-2.09,9.19-4.01,13.92-5.75c4.98-1.86,10.06-3.52,15.22-4.98c2.49-0.7,5-1.36,7.53-1.97c3.88-0.95,7.79-1.77,11.75-2.48
			c2.46-0.45,4.94-0.85,7.43-1.2c0.85-0.13,1.71-0.24,2.57-0.35c8.65-1.12,17.48-1.7,26.44-1.7c6.54,0,13.01,0.31,19.4,0.91
			c10.23,0.97,20.25,2.69,29.98,5.11c1.73,0.43,3.46,0.88,5.17,1.36c2.78,0.76,5.53,1.59,8.26,2.47c1.51,0.49,3.01,0.99,4.5,1.51
			c0.64,0.23,1.28,0.45,1.91,0.69c2.51,0.9,5,1.85,7.46,2.86c20.49,8.31,39.32,19.86,55.86,34.01c9.29,7.95,17.85,16.71,25.58,26.18
			C443.16,308.51,460.36,353.39,460.36,402.28z"/>
		<g id="XMLID_2297_">
			<path id="XMLID_6466_" style="fill:#E4975F;" d="M401.043,456.426h-289.37c-7.423,0-13.441-6.018-13.441-13.441V36.149
				c0-4.825,3.911-8.736,8.736-8.736h298.779c4.825,0,8.736,3.911,8.736,8.736v406.836
				C414.483,450.409,408.466,456.426,401.043,456.426z"/>
			<path id="XMLID_6465_" style="fill:#C58156;" d="M180.099,456.426h-71.444c-5.754,0-10.422-6.022-10.422-13.446V36.149
				c0-4.822,3.034-8.736,6.772-8.736h71.453c-3.746,0-6.771,3.914-6.771,8.736V442.98
				C169.685,450.404,174.344,456.426,180.099,456.426z"/>
			<path id="XMLID_6464_" style="fill:#FFFFFF;" d="M382.068,432.909H130.647c-3.775,0-6.836-3.061-6.836-6.836V27.414h265.093
				v398.66C388.904,429.849,385.844,432.909,382.068,432.909z"/>
			<path id="XMLID_6463_" style="fill:#D1D1D1;" d="M388.903,27.413v39.408H209.315c-20.886,0-37.817,16.931-37.817,37.817v328.271
				h-40.855c-3.772,0-6.83-3.058-6.83-6.83V27.413H388.903z"/>
			<g id="XMLID_6461_">
				<path id="XMLID_6462_" style="fill:#BFC6F4;" d="M307.852,74.417H204.865c-11.079,0-20.093-9.014-20.093-20.093V38.915h11.215
					v15.409c0,4.895,3.983,8.879,8.879,8.879h102.987c4.895,0,8.877-3.983,8.877-8.879V38.915h11.215v15.409
					C327.944,65.403,318.931,74.417,307.852,74.417z"/>
			</g>
			<path id="XMLID_6460_" style="fill:#354488;" d="M322.337,47.128H190.379c-5.677,0-10.28-4.603-10.28-10.28V26.381
				c0-5.677,4.603-10.28,10.28-10.28h131.958c5.677,0,10.28,4.603,10.28,10.28v10.467C332.617,42.526,328.014,47.128,322.337,47.128
				z"/>
			<path id="XMLID_6459_" style="fill:#313E73;" d="M332.618,31.612v5.24c0,5.67-4.6,10.28-10.28,10.28h-131.96
				c-5.68,0-10.28-4.61-10.28-10.28v-10.47c0-5.68,4.6-10.28,10.28-10.28h10.72v5.23c0,5.68,4.6,10.28,10.28,10.28H332.618z"/>
			<rect id="XMLID_6458_" x="225.705" y="63.203" style="fill:#273277;" width="61.306" height="11.215"/>
			<g id="XMLID_3003_">
				<g id="XMLID_6454_">
					<path id="XMLID_6457_" style="fill:#DC4355;" d="M319.735,268.632l14.168-12.99c1.561-1.431,1.325-4.001-0.516-5.049
						c-3.444-1.96-7.598-2.26-11.279-0.865l-6.513-7.103c-1.834-2-4.942-2.135-6.942-0.301c-2,1.834-2.135,4.942-0.301,6.942
						l6.513,7.103c-1.709,3.546-1.77,7.71-0.115,11.311C315.635,269.605,318.174,270.063,319.735,268.632z"/>
					<path id="XMLID_6456_" style="fill:#A13243;" d="M307.12,244.9c0.213-0.937,0.702-1.814,1.464-2.513
						c2.003-1.836,5.109-1.699,6.942,0.301l6.514,7.105c3.68-1.398,7.834-1.097,11.278,0.864c1.842,1.048,2.078,3.613,0.516,5.045
						l-4.094,3.754c1.562-1.432,1.326-3.998-0.516-5.045c-3.444-1.961-7.598-2.262-11.278-0.864l-6.514-7.105
						C310.294,245.201,308.666,244.677,307.12,244.9z"/>
					
						<ellipse id="XMLID_6455_" transform="matrix(0.7371 -0.6758 0.6758 0.7371 -94.7128 285.0389)" style="fill:#E27C8D;" cx="318.967" cy="264.242" rx="2.831" ry="1.869"/>
				</g>
				<g id="XMLID_6450_">
					<path id="XMLID_6453_" style="fill:#DC4355;" d="M348.223,144.485l-9.65-16.624c-1.063-1.832-3.624-2.152-5.042-0.579
						c-2.653,2.944-3.837,6.937-3.263,10.831l-8.335,4.838c-2.347,1.362-3.145,4.369-1.783,6.716
						c1.362,2.347,4.369,3.145,6.716,1.783l8.335-4.838c3.097,2.43,7.151,3.382,11.023,2.538
						C348.294,148.699,349.286,146.317,348.223,144.485z"/>
					<path id="XMLID_6452_" style="fill:#A13243;" d="M322.338,151.717c-0.87-0.409-1.622-1.074-2.141-1.969
						c-1.364-2.35-0.564-5.354,1.783-6.716l8.336-4.839c-0.576-3.895,0.609-7.887,3.263-10.831c1.418-1.574,3.975-1.255,5.039,0.578
						l2.788,4.804c-1.064-1.833-3.621-2.152-5.039-0.578c-2.654,2.943-3.839,6.936-3.263,10.831l-8.336,4.839
						C323.312,148.682,322.451,150.16,322.338,151.717z"/>
					
						<ellipse id="XMLID_6451_" transform="matrix(0.8649 -0.502 0.502 0.8649 -25.9795 192.0834)" style="fill:#E27C8D;" cx="343.77" cy="144.294" rx="1.869" ry="2.831"/>
				</g>
				<g id="XMLID_6446_">
					<path id="XMLID_6449_" style="fill:#DC4355;" d="M317.437,105.615l-17.04-8.894c-1.878-0.98-4.213,0.118-4.571,2.206
						c-0.67,3.906,0.464,7.914,3.03,10.898l-4.459,8.543c-1.256,2.406-0.323,5.374,2.082,6.629s5.374,0.323,6.629-2.082l4.459-8.543
						c3.916,0.399,7.852-0.963,10.674-3.746C319.749,109.139,319.315,106.595,317.437,105.615z"/>
					<path id="XMLID_6448_" style="fill:#A13243;" d="M299.423,125.561c-0.954,0.119-1.945-0.041-2.861-0.52
						c-2.409-1.257-3.338-4.224-2.082-6.629l4.46-8.545c-2.568-2.984-3.7-6.992-3.031-10.898c0.357-2.088,2.689-3.185,4.568-2.204
						l4.924,2.57c-1.879-0.981-4.21,0.116-4.568,2.204c-0.67,3.906,0.462,7.914,3.03,10.898l-4.46,8.545
						C298.625,122.474,298.687,124.184,299.423,125.561z"/>
					
						<ellipse id="XMLID_6447_" transform="matrix(0.4627 -0.8865 0.8865 0.4627 72.8841 335.9222)" style="fill:#E27C8D;" cx="313.571" cy="107.833" rx="1.869" ry="2.831"/>
				</g>
				<g id="XMLID_6442_">
					<path id="XMLID_6445_" style="fill:#DC4355;" d="M172.164,233.566l10.912,15.824c1.203,1.744,3.78,1.864,5.072,0.185
						c2.417-3.141,3.286-7.214,2.411-11.052l7.934-5.471c2.234-1.541,2.796-4.6,1.255-6.834c-1.541-2.234-4.6-2.796-6.834-1.255
						l-7.934,5.471c-3.276-2.182-7.393-2.816-11.187-1.674C171.766,229.371,170.962,231.823,172.164,233.566z"/>
					<path id="XMLID_6444_" style="fill:#A13243;" d="M197.409,224.344c0.899,0.34,1.7,0.945,2.287,1.796
						c1.543,2.237,0.978,5.294-1.255,6.834l-7.935,5.472c0.877,3.838,0.006,7.911-2.411,11.052c-1.291,1.68-3.865,1.56-5.068-0.185
						l-3.153-4.572c1.203,1.745,3.777,1.864,5.068,0.185c2.417-3.141,3.288-7.214,2.411-11.052l7.935-5.472
						C196.673,227.447,197.417,225.906,197.409,224.344z"/>
					
						<ellipse id="XMLID_6443_" transform="matrix(0.8232 -0.5677 0.5677 0.8232 -101.2901 141.5328)" style="fill:#E27C8D;" cx="176.619" cy="233.411" rx="1.869" ry="2.831"/>
				</g>
				<g id="XMLID_6438_">
					<path id="XMLID_6441_" style="fill:#DC4355;" d="M198.722,113.553l-15.184,11.786c-1.673,1.299-1.648,3.879,0.101,5.074
						c3.272,2.236,7.388,2.875,11.17,1.785l5.909,7.613c1.664,2.144,4.751,2.532,6.894,0.868s2.532-4.751,0.868-6.894l-5.909-7.613
						c1.994-3.394,2.395-7.539,1.041-11.264C202.889,112.919,200.395,112.254,198.722,113.553z"/>
					<path id="XMLID_6440_" style="fill:#A13243;" d="M209.351,138.238c-0.289,0.917-0.848,1.751-1.665,2.385
						c-2.147,1.666-5.231,1.275-6.894-0.869l-5.91-7.614c-3.782,1.092-7.898,0.451-11.17-1.785c-1.75-1.195-1.775-3.771-0.101-5.071
						l4.388-3.406c-1.674,1.299-1.648,3.876,0.101,5.071c3.272,2.236,7.387,2.876,11.17,1.785l5.91,7.614
						C206.212,137.678,207.792,138.334,209.351,138.238z"/>
					
						<ellipse id="XMLID_6439_" transform="matrix(0.7899 -0.6132 0.6132 0.7899 -30.5217 146.8867)" style="fill:#E27C8D;" cx="199.128" cy="117.991" rx="2.831" ry="1.869"/>
				</g>
				<circle id="XMLID_6437_" style="fill:#C60053;" cx="259.583" cy="188.465" r="77.486"/>
				<path id="XMLID_6436_" style="fill:#970A4B;" d="M272.16,259.683c-11.088-4.767-15.121-18.474-8.464-28.541
					c8.092-12.239,12.805-26.908,12.805-42.678c0-15.769-4.711-30.437-12.803-42.674c-6.657-10.068-2.624-23.777,8.466-28.542
					c0.079-0.034,0.159-0.068,0.238-0.102c2.837-1.209,5.764-2.252,8.763-3.119c-6.849-1.982-14.091-3.046-21.581-3.046
					c-10.767,0-21.021,2.196-30.336,6.165c-27.721,11.801-47.152,39.291-47.152,71.318s19.432,59.517,47.152,71.323
					c9.314,3.969,19.569,6.165,30.336,6.165c7.49,0,14.732-1.064,21.581-3.046c-2.999-0.863-5.926-1.91-8.763-3.119
					C272.322,259.752,272.241,259.718,272.16,259.683z"/>
				<g id="XMLID_6432_">
					<circle id="XMLID_6435_" style="fill:#DC4355;" cx="214.835" cy="200.81" r="15.101"/>
					<path id="XMLID_6434_" style="fill:#A13243;" d="M218.887,215.362c-1.29,0.359-2.649,0.551-4.055,0.551
						c-8.34,0-15.099-6.764-15.099-15.104c0-8.34,6.759-15.099,15.099-15.099c1.406,0,2.764,0.192,4.055,0.551
						c-6.375,1.769-11.053,7.61-11.053,14.548C207.834,207.748,212.513,213.593,218.887,215.362z"/>
					<circle id="XMLID_6433_" style="fill:#E27C8D;" cx="223.277" cy="198.703" r="4.389"/>
				</g>
				<g id="XMLID_6428_">
					<circle id="XMLID_6431_" style="fill:#DC4355;" cx="289.475" cy="138.75" r="15.101"/>
					<path id="XMLID_6430_" style="fill:#A13243;" d="M293.527,153.302c-1.29,0.359-2.649,0.551-4.055,0.551
						c-8.34,0-15.099-6.764-15.099-15.104c0-8.34,6.759-15.099,15.099-15.099c1.406,0,2.764,0.192,4.055,0.551
						c-6.375,1.769-11.053,7.61-11.053,14.548C282.474,145.688,287.153,151.533,293.527,153.302z"/>
					<circle id="XMLID_6429_" style="fill:#E27C8D;" cx="297.917" cy="136.643" r="4.389"/>
				</g>
				<g id="XMLID_6424_">
					<circle id="XMLID_6427_" style="fill:#DC4355;" cx="227.666" cy="146.915" r="15.101"/>
					<path id="XMLID_6426_" style="fill:#A13243;" d="M231.719,161.467c-1.29,0.359-2.649,0.551-4.055,0.551
						c-8.34,0-15.099-6.764-15.099-15.104c0-8.34,6.759-15.099,15.099-15.099c1.406,0,2.764,0.192,4.055,0.551
						c-6.375,1.769-11.053,7.61-11.053,14.548C220.666,153.854,225.344,159.699,231.719,161.467z"/>
					<circle id="XMLID_6425_" style="fill:#E27C8D;" cx="236.108" cy="144.809" r="4.389"/>
				</g>
				<g id="XMLID_6420_">
					<circle id="XMLID_6423_" style="fill:#DC4355;" cx="281.348" cy="183.733" r="10.433"/>
					<path id="XMLID_6422_" style="fill:#A13243;" d="M284.147,193.786c-0.891,0.248-1.83,0.381-2.801,0.381
						c-5.762,0-10.432-4.673-10.432-10.434c0-5.762,4.67-10.432,10.432-10.432c0.971,0,1.91,0.133,2.801,0.381
						c-4.404,1.222-7.636,5.257-7.636,10.051C276.511,188.526,279.743,192.564,284.147,193.786z"/>
					<circle id="XMLID_6421_" style="fill:#E27C8D;" cx="287.18" cy="182.277" r="3.032"/>
				</g>
				<g id="XMLID_6416_">
					<circle id="XMLID_6419_" style="fill:#DC4355;" cx="251.264" cy="185.709" r="10.433"/>
					<path id="XMLID_6418_" style="fill:#A13243;" d="M254.064,195.763c-0.891,0.248-1.83,0.381-2.801,0.381
						c-5.762,0-10.432-4.673-10.432-10.434s4.67-10.432,10.432-10.432c0.971,0,1.91,0.133,2.801,0.381
						c-4.404,1.222-7.636,5.257-7.636,10.051S249.66,194.541,254.064,195.763z"/>
					<circle id="XMLID_6417_" style="fill:#E27C8D;" cx="257.097" cy="184.254" r="3.032"/>
				</g>
				<g id="XMLID_6017_">
					<circle id="XMLID_6020_" style="fill:#DC4355;" cx="236.01" cy="238.729" r="10.433"/>
					<path id="XMLID_6019_" style="fill:#A13243;" d="M238.81,248.783c-0.891,0.248-1.83,0.381-2.801,0.381
						c-5.762,0-10.432-4.673-10.432-10.434c0-5.762,4.67-10.432,10.432-10.432c0.971,0,1.91,0.133,2.801,0.381
						c-4.404,1.222-7.636,5.257-7.636,10.051C231.174,243.523,234.406,247.561,238.81,248.783z"/>
					<circle id="XMLID_6018_" style="fill:#E27C8D;" cx="241.842" cy="237.274" r="3.032"/>
				</g>
				<circle id="XMLID_6016_" style="fill:#DC4355;" cx="274.685" cy="228.589" r="11.919"/>
				<path id="XMLID_6015_" style="fill:#A13243;" d="M277.883,240.074c-1.018,0.283-2.091,0.435-3.2,0.435
					c-6.583,0-11.917-5.338-11.917-11.921s5.335-11.917,11.917-11.917c1.109,0,2.182,0.152,3.2,0.435
					c-5.031,1.396-8.724,6.006-8.724,11.482S272.852,238.678,277.883,240.074z"/>
				<circle id="XMLID_6014_" style="fill:#E27C8D;" cx="281.348" cy="226.926" r="3.464"/>
				<circle id="XMLID_6013_" style="fill:#DC4355;" cx="313.948" cy="212.951" r="11.919"/>
				<path id="XMLID_6012_" style="fill:#A13243;" d="M317.147,224.437c-1.018,0.283-2.091,0.435-3.2,0.435
					c-6.583,0-11.917-5.338-11.917-11.921c0-6.583,5.335-11.917,11.917-11.917c1.109,0,2.182,0.152,3.2,0.435
					c-5.031,1.396-8.724,6.006-8.724,11.482C308.423,218.427,312.116,223.041,317.147,224.437z"/>
				<circle id="XMLID_6011_" style="fill:#E27C8D;" cx="320.611" cy="211.288" r="3.464"/>
				<circle id="XMLID_6010_" style="fill:#DC4355;" cx="309.079" cy="166.422" r="11.919"/>
				<path id="XMLID_6009_" style="fill:#A13243;" d="M312.278,177.908c-1.018,0.283-2.091,0.435-3.2,0.435
					c-6.583,0-11.917-5.338-11.917-11.921s5.335-11.917,11.917-11.917c1.109,0,2.182,0.152,3.2,0.435
					c-5.031,1.396-8.724,6.006-8.724,11.482S307.246,176.512,312.278,177.908z"/>
				<circle id="XMLID_6008_" style="fill:#E27C8D;" cx="315.742" cy="164.759" r="3.464"/>
				<g id="XMLID_3092_">
					<path id="XMLID_3095_" style="fill:#DC4355;" d="M255.665,90.093l-18.833,3.843c-2.075,0.423-3.195,2.748-2.157,4.594
						c1.943,3.454,5.351,5.849,9.224,6.548l1.927,9.443c0.543,2.659,3.138,4.374,5.797,3.832c2.659-0.543,4.374-3.138,3.832-5.797
						l-1.927-9.443c3.29-2.16,5.487-5.699,5.922-9.638C259.682,91.37,257.74,89.67,255.665,90.093z"/>
					<path id="XMLID_3094_" style="fill:#A13243;" d="M254.263,116.933c-0.665,0.694-1.535,1.194-2.549,1.401
						c-2.663,0.543-5.254-1.174-5.797-3.832l-1.927-9.444c-3.875-0.696-7.281-3.093-9.224-6.547
						c-1.04-1.846,0.078-4.167,2.155-4.591l5.442-1.11c-2.076,0.424-3.194,2.745-2.155,4.591c1.943,3.454,5.35,5.851,9.224,6.547
						l1.927,9.444C251.696,115.04,252.822,116.328,254.263,116.933z"/>
					
						<ellipse id="XMLID_3093_" transform="matrix(0.9798 -0.1999 0.1999 0.9798 -13.7142 52.6967)" style="fill:#E27C8D;" cx="254.063" cy="94.252" rx="2.831" ry="1.869"/>
				</g>
				<g id="XMLID_3069_">
					<path id="XMLID_3072_" style="fill:#DC4355;" d="M167.379,164.847l-2.501,19.058c-0.276,2.1,1.558,3.916,3.641,3.535
						c3.898-0.713,7.273-3.154,9.195-6.589l9.555,1.254c2.691,0.353,5.158-1.542,5.511-4.233c0.353-2.691-1.542-5.158-4.233-5.511
						l-9.555-1.254c-0.97-3.815-3.601-7.044-7.184-8.738C169.895,161.465,167.655,162.746,167.379,164.847z"/>
					<path id="XMLID_3071_" style="fill:#A13243;" d="M192.299,174.914c0.439,0.855,0.629,1.841,0.494,2.866
						c-0.354,2.694-2.821,4.585-5.511,4.233l-9.557-1.254c-1.92,3.437-5.296,5.877-9.194,6.589
						c-2.084,0.382-3.915-1.432-3.639-3.533l0.723-5.507c-0.276,2.101,1.555,3.914,3.639,3.533c3.899-0.712,7.274-3.152,9.194-6.589
						l9.557,1.254C189.674,176.724,191.258,176.079,192.299,174.914z"/>
					
						<ellipse id="XMLID_3070_" transform="matrix(0.1301 -0.9915 0.9915 0.1301 -17.7191 315.2347)" style="fill:#E27C8D;" cx="170.79" cy="167.715" rx="2.831" ry="1.869"/>
				</g>
				<g id="XMLID_3063_">
					<path id="XMLID_3067_" style="fill:#DC4355;" d="M355.729,206.042V186.82c0-2.118-2.054-3.68-4.07-3.032
						c-3.773,1.214-6.801,4.073-8.259,7.729h-9.637c-2.714,0-4.914,2.2-4.914,4.914c0,2.714,2.2,4.913,4.914,4.913h9.637
						c1.458,3.656,4.487,6.515,8.259,7.729C353.676,209.722,355.729,208.16,355.729,206.042z"/>
					<path id="XMLID_3065_" style="fill:#A13243;" d="M329.712,199.302c-0.547-0.79-0.863-1.743-0.863-2.777
						c0-2.717,2.2-4.913,4.914-4.913h9.639c1.457-3.657,4.486-6.516,8.259-7.729c2.017-0.649,4.068,0.91,4.068,3.029v5.554
						c0-2.119-2.051-3.679-4.068-3.029c-3.773,1.213-6.802,4.072-8.259,7.729h-9.639
						C332.079,197.166,330.592,198.012,329.712,199.302z"/>
					<ellipse id="XMLID_3064_" style="fill:#E27C8D;" cx="351.975" cy="203.641" rx="1.869" ry="2.831"/>
				</g>
				<g id="XMLID_3011_">
					<path id="XMLID_3049_" style="fill:#DC4355;" d="M280.301,285.253l-19.157,1.572c-2.111,0.173-3.836-1.746-3.354-3.809
						c0.901-3.859,3.503-7.111,7.028-8.864l-0.788-9.605c-0.222-2.705,1.791-5.077,4.495-5.299c2.705-0.222,5.077,1.791,5.299,4.495
						l0.788,9.605c3.763,1.155,6.86,3.939,8.378,7.6C283.801,282.905,282.412,285.08,280.301,285.253z"/>
					<path id="XMLID_3048_" style="fill:#A13243;" d="M271.457,259.874c-0.833-0.48-1.808-0.718-2.838-0.633
						c-2.708,0.222-4.717,2.595-4.495,5.299l0.788,9.607c-3.526,1.751-6.127,5.004-7.028,8.863c-0.482,2.063,1.24,3.98,3.352,3.806
						l5.536-0.454c-2.112,0.173-3.834-1.743-3.352-3.806c0.901-3.859,3.502-7.112,7.028-8.863l-0.788-9.607
						C269.521,262.408,270.243,260.857,271.457,259.874z"/>
					
						<ellipse id="XMLID_3047_" transform="matrix(0.9967 -0.0818 0.0818 0.9967 -22.1041 23.6411)" style="fill:#E27C8D;" cx="277.601" cy="281.707" rx="2.831" ry="1.869"/>
				</g>
				<g id="XMLID_3004_">
					<path id="XMLID_3010_" style="fill:#DC4355;" d="M217.774,280.028l-16.852-9.245c-1.857-1.019-2.239-3.571-0.7-5.027
						c2.879-2.724,6.842-4.004,10.749-3.524l4.635-8.449c1.305-2.379,4.292-3.25,6.671-1.944c2.379,1.305,3.25,4.292,1.944,6.671
						l-4.635,8.449c2.504,3.037,3.554,7.067,2.804,10.959C221.988,279.997,219.631,281.047,217.774,280.028z"/>
					<path id="XMLID_3009_" style="fill:#A13243;" d="M224.379,253.976c-0.43-0.86-1.113-1.595-2.02-2.092
						c-2.382-1.307-5.366-0.434-6.671,1.944l-4.636,8.451c-3.907-0.482-7.87,0.799-10.749,3.523
						c-1.539,1.456-1.159,4.004,0.699,5.023l4.87,2.672c-1.858-1.019-2.239-3.567-0.699-5.023c2.878-2.724,6.842-4.005,10.749-3.523
						l4.636-8.451C221.367,255.024,222.824,254.127,224.379,253.976z"/>
					
						<ellipse id="XMLID_3005_" transform="matrix(0.481 -0.8767 0.8767 0.481 -128.737 333.6973)" style="fill:#E27C8D;" cx="217.475" cy="275.581" rx="1.869" ry="2.831"/>
				</g>
			</g>
			
				<line id="XMLID_2998_" style="fill:none;stroke:#DC4355;stroke-width:10;stroke-linecap:round;stroke-miterlimit:10;" x1="214.36" y1="316.467" x2="311.383" y2="316.467"/>
			
				<line id="XMLID_2994_" style="fill:none;stroke:#DC4355;stroke-width:10;stroke-linecap:round;stroke-miterlimit:10;" x1="175.374" y1="353.612" x2="350.368" y2="353.612"/>
			
				<line id="XMLID_2990_" style="fill:none;stroke:#DC4355;stroke-width:10;stroke-linecap:round;stroke-miterlimit:10;" x1="175.374" y1="397.612" x2="350.368" y2="397.612"/>
		</g>
	</g>
</g>
</svg>
