<?xml version="1.0" encoding="iso-8859-1"?>
<!-- Generator: Adobe Illustrator 22.0.1, SVG Export Plug-In . SVG Version: 6.00 Build 0)  -->
<svg version="1.1" xmlns="http://www.w3.org/2000/svg" xmlns:xlink="http://www.w3.org/1999/xlink" x="0px" y="0px"
	 viewBox="0 0 512 512" style="enable-background:new 0 0 512 512;" xml:space="preserve">
<g id="BULINE">
	<circle id="XMLID_1274_" style="fill:#556AAC;" cx="256" cy="256" r="256"/>
</g>
<g id="Icons">
	<g id="XMLID_1695_">
		<path id="XMLID_2458_" style="fill:#4E6297;" d="M155.97,491.71c7.51,3.2,15.2,6.04,23.06,8.51C203.32,507.87,229.18,512,256,512
			c42.19,0,81.99-10.21,117.07-28.28c30.54-15.73,57.5-37.42,79.34-63.53c20.65-24.67,36.74-53.29,46.96-84.57
			c-29.19-32.88-76.87-59.07-134.82-73.7c-20.3-5.13-41.86-8.83-64.33-10.9c-13.78-1.28-27.89-1.94-42.27-1.94
			c-7.8,0-15.53,0.19-23.16,0.58c0,0,0,0-0.01,0c-1.41,0.07-2.81,0.14-4.21,0.23c-19.29,1.14-38,3.47-55.89,6.88
			c-4.51,0.85-8.96,1.78-13.36,2.77c-6.79,1.53-13.45,3.21-19.97,5.05c-5.1,1.43-10.1,2.95-15.01,4.57
			c-1.3,0.42-2.59,0.85-3.88,1.29c-0.33,0.11-0.65,0.22-0.98,0.34c-0.58,0.19-1.16,0.39-1.73,0.6c-0.69,0.23-1.37,0.47-2.05,0.72
			c-1.89,0.67-3.76,1.36-5.61,2.06c-1.35,0.5-2.68,1.01-4.01,1.53c-0.49,0.19-0.97,0.38-1.45,0.58c-0.33,0.13-0.66,0.26-0.99,0.39
			h-0.01c-1.72,0.69-3.41,1.39-5.1,2.1c-0.78,0.32-1.55,0.65-2.32,0.99H98.2c-3.06,1.31-6.06,2.66-9.02,4.05
			c-2.34,1.09-4.64,2.21-6.91,3.35c-0.65,0.32-1.3,0.65-1.94,0.97c-1.25,0.64-2.48,1.28-3.7,1.93c-5.05,2.66-9.93,5.44-14.62,8.33
			H62c-0.04,0.02-0.08,0.05-0.11,0.07c-0.01,0-0.01,0-0.01,0c-1.6,0.99-3.18,1.98-4.74,2.99c-2.02,1.3-4,2.62-5.94,3.96
			c-0.18,0.12-0.36,0.25-0.54,0.37c-0.1,0.07-0.19,0.14-0.29,0.2c-4.23,2.95-8.28,5.98-12.15,9.1c-0.1,0.08-0.19,0.15-0.28,0.23
			c-9.15,7.4-17.27,15.27-24.22,23.56c10.61,31.03,27.01,59.38,47.93,83.75c18.86,21.99,41.4,40.74,66.66,55.3
			c8.86,5.12,18.06,9.71,27.55,13.75L155.97,491.71z"/>
		<g id="XMLID_2443_">
			<g id="XMLID_4283_">
				<path id="XMLID_4287_" style="fill:#F2D750;" d="M141.354,264.47c0,35.037-28.162,63.499-63.084,63.976
					c-0.3,0.014-0.606,0.014-0.905,0.014h-0.266c-13.07-0.054-25.214-4.023-35.317-10.796
					c-17.134-11.484-28.407-31.021-28.407-53.193c0-10.837,2.696-21.048,7.447-29.993c0.3-0.558,0.606-1.116,0.912-1.661
					c0.722-1.259,1.477-2.491,2.28-3.69c1.443-2.185,3.022-4.268,4.724-6.249c0.027-0.034,0.054-0.068,0.082-0.102
					c3.805-4.425,8.203-8.325,13.07-11.566c4.547-3.036,9.496-5.507,14.765-7.304c6.413-2.192,13.288-3.397,20.442-3.424h0.266
					c21.695,0,40.871,10.796,52.437,27.311C137.086,238.18,141.354,250.821,141.354,264.47z"/>
				<circle id="XMLID_4286_" style="fill:#F4E38B;" cx="77.362" cy="264.468" r="49.194"/>
				<path id="XMLID_4285_" style="fill:#C8B349;" d="M83.818,319.63c3.976,2.349,8.237,4.275,12.709,5.718
					c-5.766,1.872-11.892,2.948-18.251,3.091c-0.388,0.014-0.783,0.02-1.178,0.02h-0.313c-13.063,0-25.214-3.914-35.344-10.647
					c-17.263-11.457-28.645-31.069-28.645-53.342c0-11.007,2.777-21.361,7.672-30.408c0.068-0.123,0.136-0.245,0.197-0.368
					c0.912-1.654,1.892-3.261,2.934-4.82c1.443-2.151,3.009-4.207,4.697-6.161c0.027-0.034,0.054-0.061,0.082-0.095
					c4.05-4.683,8.768-8.768,14.01-12.11c4.37-2.798,9.108-5.071,14.125-6.746c6.372-2.131,13.186-3.281,20.272-3.281h0.313
					c6.78,0.034,13.308,1.123,19.428,3.111c-5.95,1.92-11.518,4.697-16.562,8.176c-1.607,1.103-3.152,2.28-4.643,3.526
					c-0.007,0.007-0.02,0.014-0.027,0.02c-2.029,1.695-3.948,3.513-5.745,5.439c-1.232,1.307-2.396,2.662-3.499,4.064
					c-2.941,3.71-5.473,7.754-7.536,12.063c-0.014,0.041-0.034,0.089-0.054,0.129c-1.62,3.39-2.941,6.944-3.941,10.633v0.007
					c-1.464,5.357-2.24,11.001-2.24,16.821c0,14.99,5.153,28.781,13.798,39.687c1.743,2.212,3.635,4.302,5.657,6.263
					c1.144,1.11,2.328,2.178,3.553,3.199c0.007,0.007,0.02,0.014,0.027,0.02c1.613,1.341,3.288,2.607,5.024,3.785
					C81.47,318.2,82.634,318.935,83.818,319.63z"/>
				<path id="XMLID_4284_" style="fill:#D0C27E;" d="M75.318,313.639c-26.487-0.776-47.726-22.491-47.726-49.169
					s21.246-48.4,47.733-49.176c-14.078,11.736-23.043,29.408-23.043,49.176C52.282,284.231,61.24,301.903,75.318,313.639z"/>
			</g>
			<g id="XMLID_2444_">
				<g id="XMLID_4279_">
					<path id="XMLID_4282_" style="fill:#DA4355;" d="M105.14,302.601l6.817-6.25c0.751-0.689,0.637-1.925-0.248-2.429
						c-1.657-0.943-3.656-1.088-5.427-0.416l-3.134-3.418c-0.882-0.962-2.378-1.027-3.34-0.145c-0.962,0.882-1.027,2.378-0.145,3.34
						l3.134,3.418c-0.822,1.706-0.852,3.71-0.055,5.442C103.167,303.069,104.389,303.289,105.14,302.601z"/>
					<path id="XMLID_4281_" style="fill:#9F3243;" d="M99.07,291.182c0.102-0.451,0.338-0.873,0.704-1.209
						c0.964-0.884,2.458-0.817,3.34,0.145l3.134,3.418c1.771-0.673,3.77-0.528,5.427,0.416c0.886,0.504,1,1.738,0.248,2.428
						l-1.97,1.806c0.752-0.689,0.638-1.924-0.248-2.428c-1.657-0.943-3.656-1.088-5.427-0.416l-3.134-3.418
						C100.598,291.327,99.814,291.074,99.07,291.182z"/>
					
						<ellipse id="XMLID_4280_" transform="matrix(0.7371 -0.6758 0.6758 0.7371 -175.527 149.8122)" style="fill:#E07C8B;" cx="104.771" cy="300.488" rx="1.362" ry="0.899"/>
				</g>
				<g id="XMLID_4275_">
					<path id="XMLID_4278_" style="fill:#DA4355;" d="M118.847,242.866l-4.643-7.999c-0.512-0.881-1.744-1.035-2.426-0.278
						c-1.277,1.416-1.846,3.338-1.57,5.211l-4.01,2.328c-1.129,0.655-1.513,2.102-0.858,3.232c0.656,1.129,2.102,1.513,3.232,0.858
						l4.01-2.328c1.49,1.169,3.441,1.627,5.304,1.221C118.881,244.894,119.359,243.748,118.847,242.866z"/>
					<path id="XMLID_4277_" style="fill:#9F3243;" d="M106.392,246.346c-0.419-0.197-0.78-0.517-1.03-0.947
						c-0.656-1.131-0.271-2.576,0.858-3.232l4.011-2.328c-0.277-1.874,0.293-3.795,1.57-5.211c0.682-0.757,1.912-0.604,2.424,0.278
						l1.342,2.311c-0.512-0.882-1.742-1.035-2.424-0.278c-1.277,1.416-1.847,3.337-1.57,5.211l-4.011,2.328
						C106.861,244.886,106.447,245.597,106.392,246.346z"/>
					
						<ellipse id="XMLID_4276_" transform="matrix(0.8649 -0.502 0.502 0.8649 -106.1071 91.3998)" style="fill:#E07C8B;" cx="116.705" cy="242.774" rx="0.899" ry="1.362"/>
				</g>
				<g id="XMLID_4271_">
					<path id="XMLID_4274_" style="fill:#DA4355;" d="M104.034,224.164l-8.199-4.279c-0.903-0.472-2.027,0.057-2.199,1.061
						c-0.322,1.879,0.223,3.808,1.458,5.244l-2.146,4.111c-0.604,1.158-0.156,2.586,1.002,3.19c1.158,0.604,2.586,0.156,3.19-1.002
						l2.146-4.111c1.884,0.192,3.778-0.463,5.136-1.802C105.147,225.859,104.938,224.635,104.034,224.164z"/>
					<path id="XMLID_4273_" style="fill:#9F3243;" d="M95.367,233.761c-0.459,0.057-0.936-0.02-1.377-0.25
						c-1.159-0.605-1.606-2.033-1.002-3.19l2.146-4.112c-1.236-1.436-1.781-3.364-1.458-5.244c0.172-1.005,1.294-1.532,2.198-1.061
						l2.369,1.237c-0.904-0.472-2.026,0.056-2.198,1.061c-0.322,1.879,0.222,3.808,1.458,5.244l-2.146,4.112
						C94.983,232.276,95.013,233.098,95.367,233.761z"/>
					
						<ellipse id="XMLID_4272_" transform="matrix(0.4627 -0.8865 0.8865 0.4627 -144.7722 211.5936)" style="fill:#E07C8B;" cx="102.174" cy="225.231" rx="0.899" ry="1.362"/>
				</g>
				<g id="XMLID_4267_">
					<path id="XMLID_4270_" style="fill:#DA4355;" d="M34.135,285.729l5.251,7.614c0.579,0.839,1.819,0.897,2.44,0.089
						c1.163-1.511,1.581-3.471,1.16-5.318l3.817-2.633c1.075-0.741,1.345-2.214,0.604-3.288s-2.214-1.345-3.288-0.604l-3.817,2.633
						c-1.576-1.05-3.557-1.355-5.383-0.805C33.944,283.71,33.557,284.89,34.135,285.729z"/>
					<path id="XMLID_4269_" style="fill:#9F3243;" d="M46.282,281.291c0.433,0.164,0.818,0.455,1.1,0.864
						c0.742,1.076,0.471,2.547-0.604,3.288l-3.818,2.633c0.422,1.847,0.003,3.806-1.16,5.318c-0.621,0.808-1.86,0.751-2.439-0.089
						l-1.517-2.2c0.579,0.839,1.817,0.897,2.439,0.089c1.163-1.511,1.582-3.471,1.16-5.318l3.818-2.633
						C45.928,282.784,46.286,282.043,46.282,281.291z"/>
					
						<ellipse id="XMLID_4268_" transform="matrix(0.8232 -0.5677 0.5677 0.8232 -155.7588 71.094)" style="fill:#E07C8B;" cx="36.278" cy="285.654" rx="0.899" ry="1.362"/>
				</g>
				<g id="XMLID_4263_">
					<path id="XMLID_4266_" style="fill:#DA4355;" d="M46.914,227.983l-7.306,5.671c-0.805,0.625-0.793,1.867,0.049,2.442
						c1.574,1.076,3.555,1.383,5.375,0.859l2.843,3.663c0.801,1.031,2.286,1.219,3.317,0.418s1.219-2.286,0.418-3.317l-2.843-3.663
						c0.959-1.633,1.153-3.628,0.501-5.42C48.918,227.678,47.719,227.358,46.914,227.983z"/>
					<path id="XMLID_4265_" style="fill:#9F3243;" d="M52.028,239.861c-0.139,0.441-0.408,0.842-0.801,1.147
						c-1.033,0.802-2.517,0.613-3.317-0.418l-2.844-3.664c-1.82,0.525-3.8,0.217-5.374-0.859c-0.842-0.575-0.854-1.815-0.049-2.44
						l2.111-1.639c-0.805,0.625-0.793,1.865,0.049,2.44c1.574,1.076,3.554,1.384,5.374,0.859l2.844,3.664
						C50.518,239.591,51.278,239.907,52.028,239.861z"/>
					
						<ellipse id="XMLID_4264_" transform="matrix(0.7899 -0.6132 0.6132 0.7899 -131.209 77.2247)" style="fill:#E07C8B;" cx="47.109" cy="230.119" rx="1.362" ry="0.899"/>
				</g>
				<circle id="XMLID_4262_" style="fill:#C40053;" cx="76.198" cy="264.028" r="37.283"/>
				<path id="XMLID_4261_" style="fill:#950A4B;" d="M82.249,298.295c-5.335-2.294-7.275-8.889-4.072-13.733
					c3.894-5.889,6.161-12.947,6.161-20.535c0-7.587-2.267-14.645-6.16-20.533c-3.203-4.844-1.262-11.441,4.073-13.733
					c0.038-0.016,0.076-0.033,0.115-0.049c1.365-0.582,2.773-1.083,4.216-1.501c-3.295-0.954-6.78-1.466-10.384-1.466
					c-5.181,0-10.115,1.057-14.596,2.967c-13.338,5.678-22.688,18.905-22.688,34.315s9.35,28.637,22.688,34.318
					c4.482,1.91,9.416,2.967,14.596,2.967c3.604,0,7.088-0.512,10.384-1.466c-1.443-0.415-2.851-0.919-4.216-1.501
					C82.327,298.328,82.288,298.312,82.249,298.295z"/>
				<g id="XMLID_4257_">
					<circle id="XMLID_4260_" style="fill:#DA4355;" cx="54.666" cy="269.967" r="7.266"/>
					<path id="XMLID_4259_" style="fill:#9F3243;" d="M56.616,276.969c-0.621,0.173-1.275,0.265-1.951,0.265
						c-4.013,0-7.265-3.254-7.265-7.267c0-4.013,3.252-7.265,7.265-7.265c0.676,0,1.33,0.092,1.951,0.265
						c-3.067,0.851-5.318,3.661-5.318,7S53.549,276.118,56.616,276.969z"/>
					<circle id="XMLID_4258_" style="fill:#E07C8B;" cx="58.728" cy="268.954" r="2.112"/>
				</g>
				<g id="XMLID_4253_">
					<circle id="XMLID_4256_" style="fill:#DA4355;" cx="90.58" cy="240.107" r="7.266"/>
					<path id="XMLID_4255_" style="fill:#9F3243;" d="M92.53,247.109c-0.621,0.173-1.275,0.265-1.951,0.265
						c-4.013,0-7.265-3.254-7.265-7.267c0-4.013,3.252-7.265,7.265-7.265c0.676,0,1.33,0.093,1.951,0.265
						c-3.067,0.851-5.318,3.661-5.318,7S89.463,246.258,92.53,247.109z"/>
					<circle id="XMLID_4254_" style="fill:#E07C8B;" cx="94.642" cy="239.093" r="2.112"/>
				</g>
				<g id="XMLID_4249_">
					<circle id="XMLID_4252_" style="fill:#DA4355;" cx="60.84" cy="244.036" r="7.266"/>
					<path id="XMLID_4251_" style="fill:#9F3243;" d="M62.79,251.038c-0.621,0.173-1.275,0.265-1.951,0.265
						c-4.013,0-7.265-3.254-7.265-7.267c0-4.013,3.252-7.265,7.265-7.265c0.676,0,1.33,0.093,1.951,0.265
						c-3.067,0.851-5.318,3.661-5.318,7S59.723,250.186,62.79,251.038z"/>
					<circle id="XMLID_4250_" style="fill:#E07C8B;" cx="64.902" cy="243.022" r="2.112"/>
				</g>
				<g id="XMLID_4245_">
					<circle id="XMLID_4248_" style="fill:#DA4355;" cx="86.67" cy="261.751" r="5.02"/>
					<path id="XMLID_4247_" style="fill:#9F3243;" d="M88.017,266.588c-0.429,0.119-0.881,0.183-1.348,0.183
						c-2.772,0-5.019-2.248-5.019-5.021c0-2.772,2.247-5.019,5.019-5.019c0.467,0,0.919,0.064,1.348,0.183
						c-2.119,0.588-3.674,2.529-3.674,4.836C84.343,264.057,85.898,266,88.017,266.588z"/>
					<circle id="XMLID_4246_" style="fill:#E07C8B;" cx="89.476" cy="261.05" r="1.459"/>
				</g>
				<g id="XMLID_4240_">
					<circle id="XMLID_4244_" style="fill:#DA4355;" cx="72.195" cy="262.702" r="5.02"/>
					<path id="XMLID_4243_" style="fill:#9F3243;" d="M73.542,267.539c-0.429,0.119-0.881,0.183-1.348,0.183
						c-2.772,0-5.019-2.248-5.019-5.021c0-2.772,2.247-5.019,5.019-5.019c0.467,0,0.919,0.064,1.348,0.183
						c-2.119,0.588-3.674,2.529-3.674,4.836C69.868,265.008,71.423,266.951,73.542,267.539z"/>
					<circle id="XMLID_4242_" style="fill:#E07C8B;" cx="75.001" cy="262.001" r="1.459"/>
				</g>
				<g id="XMLID_4236_">
					<circle id="XMLID_4239_" style="fill:#DA4355;" cx="64.855" cy="288.213" r="5.02"/>
					<path id="XMLID_4238_" style="fill:#9F3243;" d="M66.202,293.05c-0.429,0.119-0.881,0.183-1.348,0.183
						c-2.772,0-5.019-2.248-5.019-5.021c0-2.772,2.247-5.019,5.019-5.019c0.467,0,0.919,0.064,1.348,0.183
						c-2.119,0.588-3.674,2.529-3.674,4.836C62.528,290.519,64.083,292.462,66.202,293.05z"/>
					<circle id="XMLID_4237_" style="fill:#E07C8B;" cx="67.661" cy="287.512" r="1.459"/>
				</g>
				<circle id="XMLID_4235_" style="fill:#DA4355;" cx="83.464" cy="283.334" r="5.735"/>
				<path id="XMLID_4233_" style="fill:#9F3243;" d="M85.003,288.86c-0.49,0.136-1.006,0.209-1.54,0.209
					c-3.167,0-5.734-2.569-5.734-5.736c0-3.167,2.567-5.734,5.734-5.734c0.534,0,1.05,0.073,1.54,0.209
					c-2.421,0.672-4.198,2.89-4.198,5.525S82.582,288.188,85.003,288.86z"/>
				<circle id="XMLID_4232_" style="fill:#E07C8B;" cx="86.67" cy="282.533" r="1.667"/>
				<circle id="XMLID_4231_" style="fill:#DA4355;" cx="102.356" cy="275.809" r="5.735"/>
				<path id="XMLID_4230_" style="fill:#9F3243;" d="M103.895,281.336c-0.49,0.136-1.006,0.209-1.54,0.209
					c-3.167,0-5.734-2.569-5.734-5.736c0-3.167,2.567-5.734,5.734-5.734c0.534,0,1.05,0.073,1.54,0.209
					c-2.421,0.672-4.198,2.89-4.198,5.525S101.474,280.664,103.895,281.336z"/>
				<circle id="XMLID_4229_" style="fill:#E07C8B;" cx="105.562" cy="275.009" r="1.667"/>
				<circle id="XMLID_4228_" style="fill:#DA4355;" cx="100.013" cy="253.422" r="5.735"/>
				<path id="XMLID_4227_" style="fill:#9F3243;" d="M101.552,258.948c-0.49,0.136-1.006,0.209-1.54,0.209
					c-3.167,0-5.734-2.569-5.734-5.736c0-3.167,2.567-5.734,5.734-5.734c0.534,0,1.05,0.073,1.54,0.209
					c-2.421,0.672-4.198,2.89-4.198,5.525C97.354,256.057,99.131,258.276,101.552,258.948z"/>
				<circle id="XMLID_4226_" style="fill:#E07C8B;" cx="103.219" cy="252.622" r="1.667"/>
				<g id="XMLID_4222_">
					<path id="XMLID_4225_" style="fill:#DA4355;" d="M74.312,216.695l-9.062,1.849c-0.999,0.204-1.538,1.322-1.038,2.211
						c0.935,1.662,2.574,2.815,4.438,3.15l0.927,4.543c0.261,1.279,1.51,2.105,2.789,1.844c1.279-0.261,2.105-1.51,1.844-2.789
						l-0.927-4.543c1.583-1.039,2.64-2.742,2.849-4.637C76.245,217.309,75.311,216.491,74.312,216.695z"/>
					<path id="XMLID_4224_" style="fill:#9F3243;" d="M73.638,229.609c-0.32,0.334-0.739,0.575-1.226,0.674
						c-1.281,0.261-2.528-0.565-2.789-1.844l-0.927-4.544c-1.864-0.335-3.503-1.488-4.438-3.15c-0.5-0.888,0.038-2.005,1.037-2.209
						l2.619-0.534c-0.999,0.204-1.537,1.321-1.037,2.209c0.935,1.662,2.574,2.815,4.438,3.15l0.927,4.544
						C72.403,228.699,72.945,229.318,73.638,229.609z"/>
					
						<ellipse id="XMLID_4223_" transform="matrix(0.9798 -0.1999 0.1999 0.9798 -42.2383 19.1181)" style="fill:#E07C8B;" cx="73.542" cy="218.696" rx="1.362" ry="0.899"/>
				</g>
				<g id="XMLID_4218_">
					<path id="XMLID_4221_" style="fill:#DA4355;" d="M31.833,252.663l-1.203,9.17c-0.133,1.01,0.749,1.884,1.752,1.701
						c1.876-0.343,3.5-1.517,4.424-3.17l4.598,0.603c1.295,0.17,2.482-0.742,2.652-2.036c0.17-1.295-0.742-2.482-2.037-2.652
						l-4.598-0.603c-0.467-1.835-1.733-3.389-3.457-4.204C33.043,251.036,31.965,251.653,31.833,252.663z"/>
					<path id="XMLID_4220_" style="fill:#9F3243;" d="M43.823,257.507c0.211,0.411,0.303,0.886,0.238,1.379
						c-0.17,1.296-1.357,2.206-2.652,2.036l-4.598-0.603c-0.924,1.654-2.548,2.828-4.424,3.17c-1.003,0.184-1.884-0.689-1.751-1.7
						l0.348-2.65c-0.133,1.011,0.748,1.883,1.751,1.7c1.876-0.343,3.5-1.517,4.424-3.17l4.598,0.603
						C42.56,258.378,43.322,258.068,43.823,257.507z"/>
					
						<ellipse id="XMLID_4219_" transform="matrix(0.1301 -0.9915 0.9915 0.1301 -222.7656 254.183)" style="fill:#E07C8B;" cx="33.474" cy="254.044" rx="1.362" ry="0.899"/>
				</g>
				<g id="XMLID_4201_">
					<path id="XMLID_4217_" style="fill:#DA4355;" d="M122.459,272.485v-9.249c0-1.019-0.988-1.771-1.958-1.459
						c-1.815,0.584-3.272,1.96-3.974,3.719h-4.637c-1.306,0-2.364,1.059-2.364,2.364s1.058,2.364,2.364,2.364h4.637
						c0.702,1.759,2.159,3.135,3.974,3.719C121.471,274.256,122.459,273.504,122.459,272.485z"/>
					<path id="XMLID_4216_" style="fill:#9F3243;" d="M109.941,269.242c-0.263-0.38-0.415-0.839-0.415-1.336
						c0-1.307,1.059-2.364,2.364-2.364h4.638c0.701-1.76,2.159-3.135,3.974-3.719c0.97-0.312,1.957,0.438,1.957,1.458v2.673
						c0-1.02-0.987-1.77-1.957-1.458c-1.815,0.584-3.273,1.959-3.974,3.719h-4.638C111.08,268.214,110.364,268.621,109.941,269.242z
						"/>
					<ellipse id="XMLID_4215_" style="fill:#E07C8B;" cx="120.652" cy="271.33" rx="0.899" ry="1.362"/>
				</g>
				<g id="XMLID_2449_">
					<path id="XMLID_3390_" style="fill:#DA4355;" d="M86.166,310.598l-9.218,0.756c-1.016,0.083-1.846-0.84-1.614-1.833
						c0.434-1.857,1.686-3.422,3.381-4.265l-0.379-4.621c-0.107-1.301,0.862-2.443,2.163-2.55c1.301-0.107,2.443,0.862,2.55,2.163
						l0.379,4.621c1.811,0.556,3.301,1.895,4.031,3.657C87.85,309.468,87.182,310.515,86.166,310.598z"/>
					<path id="XMLID_2452_" style="fill:#9F3243;" d="M81.911,298.387c-0.401-0.231-0.87-0.345-1.366-0.305
						c-1.303,0.107-2.27,1.249-2.163,2.55l0.379,4.622c-1.697,0.843-2.948,2.408-3.382,4.265c-0.232,0.993,0.596,1.915,1.613,1.831
						l2.664-0.219c-1.016,0.083-1.845-0.839-1.613-1.831c0.433-1.857,1.685-3.422,3.382-4.265l-0.379-4.622
						C80.979,299.606,81.326,298.86,81.911,298.387z"/>
					
						<ellipse id="XMLID_2450_" transform="matrix(0.9967 -0.0818 0.0818 0.9967 -24.9722 7.9734)" style="fill:#E07C8B;" cx="84.867" cy="308.892" rx="1.362" ry="0.899"/>
				</g>
				<g id="XMLID_2445_">
					<path id="XMLID_2448_" style="fill:#DA4355;" d="M56.081,308.084l-8.108-4.448c-0.894-0.49-1.077-1.718-0.337-2.419
						c1.385-1.311,3.292-1.926,5.172-1.695l2.23-4.065c0.628-1.145,2.065-1.564,3.21-0.936c1.145,0.628,1.564,2.065,0.936,3.21
						l-2.23,4.065c1.205,1.461,1.71,3.401,1.349,5.273C58.108,308.069,56.974,308.574,56.081,308.084z"/>
					<path id="XMLID_2447_" style="fill:#9F3243;" d="M59.259,295.549c-0.207-0.414-0.536-0.768-0.972-1.007
						c-1.146-0.629-2.582-0.209-3.21,0.936l-2.231,4.066c-1.88-0.232-3.787,0.385-5.172,1.695c-0.741,0.7-0.557,1.926,0.337,2.417
						l2.343,1.285c-0.894-0.49-1.077-1.717-0.337-2.417c1.385-1.311,3.292-1.927,5.172-1.695l2.231-4.066
						C57.81,296.053,58.511,295.621,59.259,295.549z"/>
					
						<ellipse id="XMLID_2446_" transform="matrix(0.481 -0.8767 0.8767 0.481 -239.1981 207.8311)" style="fill:#E07C8B;" cx="55.937" cy="305.944" rx="0.899" ry="1.362"/>
				</g>
			</g>
		</g>
		<rect id="XMLID_2442_" x="202.331" y="288.426" style="fill:#C99F7E;" width="123.114" height="129.971"/>
		<path id="XMLID_2456_" style="fill:#F8E78F;" d="M155.97,491.71c7.51,3.2,15.2,6.04,23.06,8.51C203.32,507.87,229.18,512,256,512
			c42.19,0,81.99-10.21,117.07-28.28c30.54-15.73,57.5-37.42,79.34-63.53c-3.4-1.65-6.98-3.17-10.75-4.53
			c-6.59-2.38-13.03-5-19.31-7.84c-0.2-0.06-0.39-0.17-0.57-0.25c-20.45-9.19-39.03-20.26-54.31-30.52
			c-0.18-0.11-0.34-0.23-0.5-0.34c-11.42-7.71-20.97-14.93-28.04-20.57h-0.01c-8.01-6.39-12.81-10.73-13.47-11.33
			c-0.06-0.06-0.09-0.08-0.09-0.08c0.1,3.09-0.78,6.63-2.4,10.49c-3.97,9.41-12.38,20.64-21.82,31.44
			c-7.27,8.34-16.41,13.92-26.2,16.76h-0.01c-3.25,0.94-6.57,1.59-9.91,1.92c-5.15,0.52-10.34,0.33-15.43-0.59h-0.01
			c-6.02-1.06-11.9-3.14-17.35-6.21c-0.36-0.19-0.71-0.4-1.06-0.6c-0.32-0.2-0.62-0.38-0.93-0.58c-0.65-0.4-1.3-0.82-1.94-1.26
			c-0.64-0.43-1.28-0.88-1.9-1.35c-0.63-0.46-1.24-0.94-1.86-1.43c-0.6-0.5-1.21-1.01-1.8-1.53c-0.3-0.26-0.6-0.52-0.88-0.8
			c-0.72-0.66-1.42-1.33-2.1-2.03c-0.1-0.11-0.2-0.21-0.3-0.32c-0.22-0.23-0.44-0.46-0.66-0.68c-0.39-0.42-0.78-0.86-1.16-1.3
			c-0.82-0.94-1.63-1.87-2.43-2.81c-4.4-5.19-8.5-10.43-11.94-15.47c-0.31-0.47-0.63-0.94-0.94-1.42v-0.01
			c-0.09-0.13-0.18-0.27-0.27-0.4v-0.01c-0.03-0.03-0.05-0.06-0.06-0.09v-0.01c-0.13-0.19-0.25-0.37-0.38-0.56
			c-0.24-0.36-0.46-0.72-0.68-1.08v-0.01c-0.12-0.17-0.22-0.34-0.32-0.5c-0.83-1.34-1.6-2.66-2.3-3.96c-1.41-2.6-2.57-5.1-3.39-7.46
			c-0.23-0.66-0.43-1.3-0.61-1.94c-0.05-0.15-0.09-0.31-0.13-0.46c-0.14-0.54-0.26-1.06-0.37-1.58c-0.04-0.17-0.07-0.34-0.1-0.51
			c-0.05-0.28-0.1-0.56-0.13-0.83c-0.03-0.24-0.06-0.49-0.08-0.73c-0.01-0.14-0.02-0.28-0.04-0.42c-0.03-0.46-0.04-0.9-0.04-1.34
			v-0.33c0,0,0,0-0.01,0.01c0,0-3,2.75-8.45,7.26c-0.05,0.04-0.1,0.08-0.15,0.12c-0.05,0.04-0.1,0.08-0.15,0.13
			c-5.1,4.21-12.3,9.9-21.14,16.28c-0.58,0.41-1.16,0.83-1.76,1.26c-1.3,0.93-2.63,1.87-4,2.83c-0.01,0-0.01,0.01-0.02,0.01
			c-7.14,4.99-15.15,10.28-23.88,15.54c-2.9,1.75-5.88,3.5-8.93,5.22c0,0,0,0.01-0.01,0.01c-1.02,0.58-2.04,1.15-3.08,1.72
			c-0.78,0.43-1.56,0.86-2.34,1.28c-2.35,1.27-4.74,2.54-7.16,3.78c0,0.01-0.01,0.01-0.01,0.01c-2.93,1.5-5.9,2.98-8.95,4.41
			c-2.11,1-4.24,2-6.39,2.97c-2.14,0.98-4.32,1.93-6.51,2.85c-2.46,1.04-4.95,2.05-7.46,3.03c-0.84,0.32-1.68,0.64-2.52,0.96
			c-1.13,0.43-2.26,0.84-3.39,1.25c-3.01,1.09-5.91,2.27-8.69,3.56c-1.39,0.64-2.75,1.3-4.09,1.98c-0.44,0.22-0.88,0.45-1.32,0.68
			c-0.46,0.24-0.92,0.49-1.37,0.74c18.86,21.99,41.4,40.74,66.66,55.3c8.86,5.12,18.06,9.71,27.55,13.75L155.97,491.71z"/>
		<path id="XMLID_2703_" style="fill:#D1C37C;" d="M232.23,398.54c-1.04,0.57-2.1,1.11-3.16,1.65c-2.92,1.5-5.9,2.98-8.94,4.41
			c-3.35,1.61-6.75,3.16-10.21,4.65c-2.5,1.09-5.04,2.15-7.59,3.17c-0.85,0.35-1.7,0.69-2.55,1.01c-1.96,0.76-3.94,1.51-5.93,2.23
			c-0.47,0.17-0.94,0.34-1.4,0.53c-5.67,2.13-10.91,4.61-15.76,7.37c-0.05,0.03-0.1,0.06-0.15,0.09
			c-25.42,14.5-40.05,36.48-48.23,54.27c-25.26-14.56-47.8-33.31-66.66-55.3c0.45-0.25,0.91-0.5,1.37-0.74
			c0.44-0.23,0.88-0.46,1.32-0.68c1.34-0.68,2.7-1.34,4.09-1.98c2.78-1.29,5.68-2.47,8.69-3.56c1.13-0.41,2.26-0.82,3.39-1.25
			c0.84-0.32,1.68-0.64,2.52-0.96c2.51-0.98,5-1.99,7.46-3.03c2.19-0.92,4.37-1.87,6.51-2.85c2.15-0.97,4.28-1.97,6.39-2.97
			c3.05-1.43,6.02-2.91,8.95-4.41c0,0,0.01,0,0.01-0.01c3.24-1.65,6.41-3.34,9.5-5.06c1.04-0.57,2.06-1.14,3.08-1.72
			c0.01,0,0.01-0.01,0.01-0.01c3.05-1.72,6.03-3.47,8.93-5.22c8.73-5.26,16.74-10.55,23.88-15.54c0.01,0,0.01-0.01,0.02-0.01
			c1.37-0.96,2.7-1.9,4-2.83c0.6-0.43,1.18-0.85,1.76-1.26c8.84-6.38,16.04-12.07,21.14-16.28c0-0.01,0-0.01,0-0.01
			c0.05-0.04,0.1-0.08,0.15-0.12c0.05-0.04,0.1-0.08,0.15-0.12c5.45-4.51,8.45-7.26,8.45-7.26c-0.03,1.15,0.07,2.37,0.3,3.64
			c0.24,1.43,0.65,2.93,1.21,4.49c0.82,2.36,1.98,4.86,3.39,7.46c0.7,1.3,1.47,2.62,2.3,3.96c0.1,0.16,0.2,0.33,0.32,0.5v0.01
			c0.22,0.36,0.44,0.72,0.68,1.08c0.12,0.19,0.24,0.38,0.38,0.57c0.01,0.03,0.03,0.06,0.06,0.09v0.01c0.09,0.13,0.18,0.27,0.27,0.4
			v0.01c0.31,0.48,0.63,0.95,0.94,1.42c3.44,5.04,7.54,10.28,11.94,15.47c0.8,0.94,1.61,1.87,2.43,2.81
			c0.38,0.44,0.77,0.88,1.16,1.3c0.22,0.22,0.44,0.45,0.66,0.68c0.1,0.11,0.2,0.21,0.3,0.32c0.68,0.7,1.38,1.37,2.1,2.03
			c0.28,0.27,0.58,0.53,0.88,0.8c0.59,0.52,1.2,1.03,1.8,1.53c0.62,0.49,1.23,0.97,1.86,1.43c0.62,0.47,1.26,0.92,1.9,1.35
			c0.64,0.44,1.29,0.86,1.94,1.26c0.31,0.2,0.61,0.38,0.93,0.58C231.52,398.14,231.87,398.35,232.23,398.54z"/>
		<path id="XMLID_2439_" style="fill:#FFFFFF;" d="M210.124,306.212c0,0-54.506,20.333-5.534,146.025
			c0,0,14.776-51.756,45.275-47.135C249.865,405.102,199.034,345.029,210.124,306.212z"/>
		<path id="XMLID_2438_" style="fill:#FFFFFF;" d="M313.189,306.34c0,0,54.506,20.333,5.534,146.025
			c0,0-14.776-51.756-45.275-47.135C273.448,405.23,324.279,345.157,313.189,306.34z"/>
		<path id="XMLID_2437_" style="fill:#E6B68D;" d="M380.128,200.031c-0.658,5.097-2.516,18.743-4.85,27.474
			c0,0-1.907,41.088-22.196,39.016c-0.493,1.513-1.496,4.472-3.075,8.369c-3.502,8.665-9.849,22.015-19.664,34.725
			c-14.222,18.382-35.711,35.448-66.457,35.103c-30.729,0.345-52.219-16.721-66.424-35.103
			c-9.832-12.709-16.179-26.06-19.681-34.725c-2.351-5.82-3.436-9.52-3.436-9.52c2.187-16.014-6.56-75.714-6.56-75.714
			c-5.097-42.222,6.56-93.914,6.56-93.914c16.014-47.319,89.541-44.409,89.541-44.409s73.527-2.91,89.541,44.409
			c0,0,11.657,51.692,6.56,93.914c0,0-0.312,2.137-0.806,5.705c5.311-3.535,15.225-8.435,20.059,0.148
			C380.013,196.874,380.325,198.469,380.128,200.031z"/>
		<path id="XMLID_2436_" style="fill:#D0A684;" d="M252.727,308.547c-13.481-17.827-20.952-39.438-22.402-61.742
			c-1.53-23.544-6.452-57.15-6.452-57.15c-5.089-42.234,6.546-93.908,6.546-93.908c9.46-27.93,38.95-38.355,61.524-42.213
			c-15.699-2.688-28.053-2.196-28.053-2.196s-73.529-2.914-89.557,44.409c0,0-11.636,51.674-6.546,93.908
			c0,0,0.313,2.137,0.805,5.704c-5.317-3.541-15.219-8.434-20.061,0.144c-0.774,1.371-1.076,2.959-0.877,4.521
			c0.651,5.1,2.516,18.747,4.847,27.488c0,0,1.906,41.075,22.196,39.013c3.163,9.807,27.63,78.879,89.193,78.193
			c10.384,0.123,19.722-1.744,28.053-5.007C275.091,333.192,262.225,321.107,252.727,308.547z"/>
		<path id="XMLID_2435_" style="fill:#273277;" d="M374.022,128.509c0,0-4.739-42.736-32.901-64.015
			c-0.028-2.471-0.679-5.02-2.181-7.453C326.858,37.47,302.108,16,251.664,16c0,0-105.633,6.707-103.319,94.927
			c0.111,4.244,2.467,7.961,5.987,9.903c-1.888,25.34-1.871,54.081,14.26,74.529c0,0,11.509-42.046,9.642-75.424
			c3.083-0.999,6.369-2.334,9.858-4.121c0,0,62.68-54.668,135.153-37.246c3.938,0.947,7.609,0.28,10.592-1.42
			c14.545,13.952,30.788,44.772,26.151,112.506C359.987,189.655,380.691,172.784,374.022,128.509z"/>
		<path id="XMLID_2434_" style="fill:#2E3B6B;" d="M188.034,110.934c0.021,1.478,0.328,2.894,0.882,4.207
			c-0.534,0.431-0.821,0.677-0.821,0.677c-3.489,1.785-6.772,3.119-9.85,4.125c1.868,33.368-9.653,75.417-9.653,75.417
			c-16.13-20.44-16.143-49.19-14.255-74.534c-3.509-1.929-5.869-5.643-5.992-9.891C146.046,22.711,251.672,16,251.672,16
			c9.235,0,17.628,0.718,25.221,2.032C248.06,23.531,186.248,43.232,188.034,110.934z"/>
		
			<path id="XMLID_2433_" style="fill:none;stroke:#C99974;stroke-width:10;stroke-linecap:round;stroke-linejoin:round;stroke-miterlimit:10;" d="
			M244.234,303.719c13.585-5.117,26.671-4.935,39.308,0"/>
		<path id="XMLID_2430_" style="fill:#C99974;" d="M250.916,228.485L250.916,228.485c-2.07-0.293-3.51-2.209-3.217-4.279
			l5.619-39.677c0.293-2.07,2.209-3.51,4.279-3.217h0c2.07,0.293,3.51,2.209,3.217,4.279l-5.619,39.677
			C254.901,227.338,252.986,228.778,250.916,228.485z"/>
		<ellipse id="XMLID_2429_" style="fill:#C99974;" cx="250.846" cy="238.37" rx="8.552" ry="3.166"/>
		<ellipse id="XMLID_2428_" style="fill:#C99974;" cx="276.893" cy="238.37" rx="8.552" ry="3.166"/>
		<ellipse id="XMLID_2425_" style="fill:#C99974;" cx="265.365" cy="272.293" rx="30.211" ry="20.806"/>
		<path id="XMLID_2424_" style="fill:#C18B61;" d="M249.176,275.586c0,7.309,5.473,13.741,13.75,17.441
			c-15.55-0.85-27.772-9.815-27.772-20.734c0-11.489,13.524-20.806,30.214-20.806c6.07,0,11.733,1.239,16.464,3.365
			c-0.805-0.045-1.619-0.072-2.443-0.072C262.7,254.779,249.176,264.097,249.176,275.586z"/>
		<path id="XMLID_2454_" style="fill:#8ADB8C;" d="M155.97,491.71c7.51,3.2,15.2,6.04,23.06,8.51C203.32,507.87,229.18,512,256,512
			c42.19,0,81.99-10.21,117.07-28.28c-8.3-34.86-21.33-68.72-35.49-99.04v-0.01c-3.98-8.53-8.05-16.76-12.13-24.66
			c-0.83-1.61-1.66-3.21-2.49-4.79c-3.57-6.78-7.12-13.3-10.63-19.51c-1.03-1.83-2.05-3.63-3.08-5.41
			c-9.4-16.39-18.27-30.47-25.55-41.48c-0.08-0.13-0.17-0.26-0.25-0.39h-0.01c-1.15-1.75-2.26-3.41-3.33-5
			c-3.09-4.59-7.8-7.17-12.71-7.74c-0.33-0.04-0.66-0.06-0.99-0.08c-0.66-0.04-1.32-0.03-1.97,0c-5.08,0.25-10.06,2.66-13.38,7.21
			c-0.16,0.2-0.3,0.4-0.44,0.61c-1.07,1.59-2.18,3.25-3.34,5c-0.08,0.13-0.17,0.26-0.25,0.39c-1.13,1.7-2.29,3.47-3.48,5.32
			c-6.77,10.44-14.65,23.15-22.91,37.62l-0.01,0.01c-2.3,4.03-4.63,8.19-6.97,12.48c-3.76,6.87-7.56,14.07-11.33,21.54
			c-0.11,0.21-0.22,0.43-0.33,0.65v0.01c-4.84,9.61-9.64,19.67-14.25,30.1c-3.89,8.8-7.66,17.85-11.21,27.1
			c-8.41,21.82-15.65,44.74-20.68,68.02L155.97,491.71z"/>
		<path id="XMLID_2726_" style="fill:#79BF7B;" d="M283.54,288.4c-0.03,0.01-0.07,0.02-0.1,0.03c-0.01,0-0.01,0-0.02,0
			c-2.29,0.56-4.5,1.58-6.45,3.07c-1.52,1.14-2.89,2.56-4.03,4.26c-0.97,1.44-1.98,2.95-3.02,4.53
			c-3.21,4.85-6.75,10.31-10.51,16.33c-4.84,7.72-10.05,16.34-15.44,25.72c-5.43,9.44-11.03,19.65-16.62,30.49
			c-2.64,5.13-5.28,10.4-7.89,15.81c-3.24,6.68-6.43,13.56-9.54,20.61c-1.34,3.02-2.66,6.07-3.96,9.15
			c-2.48,5.87-4.9,11.85-7.22,17.92c-7.89,20.53-14.75,42.04-19.71,63.9c-7.86-2.47-15.55-5.31-23.06-8.51
			c5.04-23.33,12.3-46.29,20.72-68.15c3.52-9.16,7.24-18.12,11.1-26.83c4.62-10.45,9.43-20.54,14.27-30.18v-0.01
			c0.09-0.17,0.18-0.35,0.27-0.52c3.79-7.51,7.6-14.74,11.38-21.65c2.35-4.31,4.7-8.5,7.01-12.54c0-0.01,0-0.02,0-0.02
			c8.26-14.44,16.12-27.13,22.88-37.57c1.21-1.87,2.38-3.65,3.51-5.37c0.01,0,0-0.01,0-0.01c0.1-0.14,0.2-0.29,0.29-0.43
			c1.16-1.75,2.27-3.41,3.34-5c0.12-0.18,0.24-0.35,0.37-0.52c3.3-4.57,8.26-7,13.33-7.3c0.65-0.03,1.31-0.04,1.97,0
			c5.3,0.26,10.49,2.88,13.82,7.82C281.3,285.01,282.4,286.67,283.54,288.4z"/>
		<ellipse id="XMLID_2420_" style="fill:#79BF7B;" cx="284.458" cy="360.545" rx="11.117" ry="13.066"/>
		<ellipse id="XMLID_2419_" style="fill:#79BF7B;" cx="237.398" cy="417.43" rx="10.263" ry="11.361"/>
		<ellipse id="XMLID_2418_" style="fill:#79BF7B;" cx="284.419" cy="445.361" rx="7.526" ry="7.004"/>
		<ellipse id="XMLID_2417_" style="fill:#79BF7B;" cx="273.448" cy="316.731" rx="7.526" ry="7.004"/>
		<ellipse id="XMLID_2416_" style="fill:#79BF7B;" cx="339.141" cy="488.237" rx="7.526" ry="7.004"/>
		<ellipse id="XMLID_2415_" style="fill:#79BF7B;" cx="253.83" cy="474.572" rx="11.535" ry="13.666"/>
		<ellipse id="XMLID_2414_" style="fill:#79BF7B;" cx="325.469" cy="418.953" rx="6.833" ry="12.885"/>
		<g id="XMLID_1696_">
			
				<path id="XMLID_1698_" style="fill:none;stroke:#CB9B74;stroke-width:10;stroke-linecap:round;stroke-linejoin:round;stroke-miterlimit:10;" d="
				M192.6,188.373c0,0,21.484-11.25,37.109,0"/>
			
				<path id="XMLID_1697_" style="fill:none;stroke:#CB9B74;stroke-width:10;stroke-linecap:round;stroke-linejoin:round;stroke-miterlimit:10;" d="
				M335.176,188.373c0,0-21.484-11.25-37.109,0"/>
		</g>
	</g>
</g>
</svg>
