<?xml version="1.0" encoding="iso-8859-1"?>
<!-- Generator: Adobe Illustrator 22.0.1, SVG Export Plug-In . SVG Version: 6.00 Build 0)  -->
<svg version="1.1" xmlns="http://www.w3.org/2000/svg" xmlns:xlink="http://www.w3.org/1999/xlink" x="0px" y="0px"
	 viewBox="0 0 512 512" style="enable-background:new 0 0 512 512;" xml:space="preserve">
<g id="BULINE">
	<circle id="XMLID_2324_" style="fill:#5747B9;" cx="256" cy="256" r="256"/>
</g>
<g id="Icons">
	<g id="XMLID_1646_">
		<path id="XMLID_4488_" style="fill:#4B41A3;" d="M512,256c0,68.01-26.53,129.83-69.8,175.68C395.53,481.13,329.37,512,256,512
			c-43.98,0-85.38-11.1-121.53-30.64c-23.04-12.44-43.95-28.32-62.05-46.94c-36.43-37.49-61.49-86.09-69.59-140.23v-0.03
			C2.28,287.3,2,280.37,2,273.37c0-8.3-0.78-16.58-1.89-24.79c0.89-31.59,7.52-61.75,18.87-89.47
			c26.81,5.91,65.73,20.64,74.25,53.36c0,0-13.59,53.34,44.71,59.34c0,0,9.96-0.89,22.69,2.93c3.77,1.13,7.77,2.67,11.84,4.77h0.01
			c0.03,0.01,0.07,0.03,0.1,0.05h0.01c9.31,4.83,18.91,12.58,26.56,24.99c0.76,1.23,1.5,2.51,2.22,3.83
			c2.21,4.06,4.22,8.57,5.95,13.58c0.4,1.14,0.79,2.31,1.16,3.51v0.01c0.54,1.76,1.05,3.59,1.53,5.47c0.08,0.29,0.15,0.57,0.22,0.86
			l0.32,0.01l0.65,0.01l18.3,0.34l32.34,0.6l32.41,0.61l14.45,0.27l8.29,0.16c0,0,0.5-1.02,1.57-2.75c0.98-1.6,2.45-3.8,4.46-6.37
			c0.85-1.07,1.79-2.21,2.83-3.39c0.72-0.83,1.5-1.68,2.32-2.55c0.51-0.53,1.03-1.07,1.58-1.61c4.75-4.75,10.98-9.86,18.9-14.41
			c15.31-8.78,36.96-15.47,66.58-13.31c0,0,41.25,1.94,38.24-41.02c-0.06-0.9-0.14-1.83-0.24-2.77c0,0,0.06-3.03,0.5-8.02
			c1.2-13.6,20.46-49.99,40.63-75.18c8.21,20.91,13.76,43.17,16.2,66.36c0.09,2.11,0.28,4.16,0.58,6.15c0,0.02,0.01,0.04,0.01,0.06
			C511.71,241.93,512,248.93,512,256z"/>
		<g id="XMLID_4478_">
			<rect id="XMLID_4487_" x="201.375" y="302.341" style="fill:#C99F7E;" width="128.373" height="135.523"/>
			<path id="XMLID_4567_" style="fill:#E08CC8;" d="M442.2,431.68C395.53,481.13,329.37,512,256,512
				c-43.98,0-85.38-11.1-121.53-30.64c-23.04-12.44-43.95-28.32-62.05-46.94c0.64-0.23,1.28-0.47,1.93-0.71
				c3.51-1.32,6.97-2.71,10.4-4.16c2.29-0.96,4.56-1.96,6.79-2.97c2.25-1.02,4.47-2.06,6.67-3.1c3.17-1.5,6.27-3.04,9.33-4.6
				c0,0,0.01,0,0.01-0.01c4.5-2.3,8.87-4.67,13.11-7.07c0.01,0,0.01-0.01,0.01-0.01c3.19-1.8,6.3-3.62,9.32-5.44
				c9.1-5.49,17.46-11,24.89-16.21c0.01,0,0.01-0.01,0.03-0.01c1.42-0.99,2.82-1.97,4.17-2.95c0.62-0.45,1.23-0.88,1.83-1.31
				c9.22-6.66,16.73-12.59,22.05-16.98l0.01-0.01c0.05-0.04,0.1-0.08,0.15-0.12c0.04-0.04,0.1-0.08,0.15-0.13
				c5.69-4.7,8.82-7.57,8.82-7.57c0.01-0.01,0.01-0.01,0.01-0.01c-0.01,0.11,0,0.23,0,0.34c-0.01,0.45,0.001,0.901,0.039,1.371
				c0.03,0.396,0.064,0.793,0.121,1.199c0.04,0.29,0.08,0.59,0.14,0.89c0.03,0.18,0.07,0.36,0.1,0.54c0.1,0.53,0.23,1.07,0.38,1.62
				v0.04c0.13,0.47,0.27,0.94,0.42,1.42c0.11,0.35,0.23,0.71,0.36,1.07c0.85,2.46,2.06,5.06,3.53,7.78c0.73,1.36,1.53,2.72,2.4,4.12
				c0.11,0.18,0.21,0.35,0.33,0.53v0.01c0.46,0.74,0.94,1.5,1.45,2.24v0.01c0.32,0.5,0.66,0.99,0.99,1.48
				c3.58,5.26,7.85,10.72,12.45,16.13c0.83,0.98,1.68,1.95,2.53,2.93c0.4,0.46,0.8,0.91,1.21,1.35c0.34,0.35,0.67,0.71,1,1.05
				c0.71,0.73,1.43,1.43,2.18,2.11c0.3,0.28,0.61,0.56,0.92,0.84c0.62,0.54,1.25,1.08,1.88,1.59c0.63,0.52,1.29,1.02,1.94,1.5
				c0.65,0.49,1.31,0.96,1.99,1.41c0.66,0.46,1.34,0.9,2.02,1.31c0.32,0.21,0.64,0.4,0.97,0.6c0.36,0.21,0.72,0.43,1.1,0.63
				c5.68,3.2,11.82,5.37,18.09,6.48c5.31,0.95,10.73,1.15,16.1,0.61c3.48-0.35,6.93-1.02,10.32-2h0.01
				c10.21-2.96,19.75-8.79,27.34-17.48c13.87-15.88,25.62-32.64,25.25-43.72c0,0,0.04,0.02,0.09,0.08
				c0.69,0.63,5.7,5.15,14.05,11.82l0.01,0.01c7.37,5.87,17.33,13.4,29.23,21.44c0.17,0.11,0.34,0.23,0.53,0.35
				c15.93,10.7,35.31,22.24,56.63,31.83c0.19,0.08,0.38,0.19,0.6,0.25C434.54,428.52,438.34,430.15,442.2,431.68z"/>
			<path id="XMLID_4562_" style="fill:#D864AB;" d="M232.55,417.16c-1.08,0.59-2.19,1.16-3.29,1.72c-3.05,1.56-6.16,3.1-9.32,4.6
				c-6.02,2.88-12.23,5.62-18.57,8.15c-0.88,0.37-1.77,0.72-2.66,1.05c-2.04,0.8-4.1,1.58-6.17,2.33c-0.5,0.18-0.99,0.35-1.47,0.55
				c-27.15,10.22-45,28.2-56.6,45.8c-23.04-12.44-43.95-28.32-62.05-46.94c0.64-0.23,1.28-0.47,1.93-0.71
				c3.5-1.33,6.97-2.72,10.4-4.16c2.29-0.96,4.56-1.96,6.79-2.97c2.25-1.02,4.47-2.06,6.67-3.1c3.17-1.5,6.27-3.04,9.33-4.6
				c0,0,0.01,0,0.01-0.01c4.5-2.3,8.87-4.67,13.11-7.07c0.01,0,0.01-0.01,0.01-0.01c3.19-1.8,6.3-3.62,9.32-5.44
				c9.1-5.49,17.46-11,24.89-16.21c0.01,0,0.01-0.01,0.03-0.01c1.43-1,2.82-1.98,4.17-2.95c0.62-0.45,1.23-0.88,1.83-1.31
				c9.22-6.66,16.73-12.59,22.05-16.98c0-0.01,0-0.01,0-0.01h0.01v-0.01c0.05-0.04,0.1-0.08,0.15-0.11c0.04-0.04,0.1-0.08,0.15-0.13
				c5.69-4.7,8.82-7.57,8.82-7.57c-0.03,0.93,0.03,1.9,0.17,2.9c0.04,0.29,0.08,0.59,0.14,0.89c0.02,0.18,0.05,0.36,0.1,0.54
				c0.1,0.53,0.23,1.07,0.38,1.62v0.04c0.13,0.47,0.27,0.94,0.42,1.42c0.11,0.35,0.23,0.71,0.36,1.07c0.85,2.46,2.06,5.06,3.53,7.78
				c0.73,1.36,1.53,2.72,2.4,4.12c0.11,0.18,0.21,0.35,0.33,0.53v0.01c0.46,0.74,0.94,1.5,1.45,2.24v0.01
				c0.32,0.5,0.66,0.99,0.99,1.48c3.58,5.26,7.85,10.72,12.45,16.13c0.83,0.98,1.68,1.95,2.53,2.93c0.4,0.46,0.8,0.91,1.21,1.35
				c0.34,0.35,0.67,0.71,1,1.05c0.71,0.73,1.43,1.43,2.18,2.11c0.3,0.28,0.61,0.56,0.92,0.84c0.62,0.54,1.25,1.08,1.88,1.59
				c0.64,0.51,1.29,1.02,1.94,1.5c0.65,0.49,1.31,0.96,1.99,1.41c0.66,0.46,1.34,0.9,2.02,1.31c0.32,0.21,0.64,0.4,0.97,0.6
				C231.81,416.74,232.17,416.96,232.55,417.16z"/>
			<path id="XMLID_4484_" style="fill:#8CBFF4;" d="M209.5,320.886c0,0-56.834,21.201-5.77,152.263c0,0,15.407-53.967,47.209-49.148
				C250.939,424.001,197.936,361.361,209.5,320.886z"/>
			<path id="XMLID_4483_" style="fill:#8CBFF4;" d="M316.968,321.02c0,0,56.834,21.201,5.77,152.263
				c0,0-15.407-53.967-47.209-49.148C275.529,424.134,328.532,361.495,316.968,321.02z"/>
			<path id="XMLID_4482_" style="fill:#E6B68D;" d="M386.767,210.169c-0.686,5.315-2.623,19.544-5.057,28.648
				c0,0-1.989,42.843-23.144,40.683c-0.514,1.577-1.56,4.663-3.206,8.726c-3.652,9.035-10.269,22.956-20.504,36.208
				c-14.83,19.167-37.237,36.962-69.296,36.602c-32.042,0.36-54.449-17.435-69.262-36.602
				c-10.252-13.252-16.87-27.173-20.521-36.208c-2.452-6.069-3.583-9.926-3.583-9.926c2.28-16.698-6.84-78.948-6.84-78.948
				c-5.315-44.026,6.84-97.926,6.84-97.926c16.698-49.34,93.366-46.306,93.366-46.306s76.668-3.035,93.366,46.306
				c0,0,12.155,53.901,6.84,97.926c0,0-0.326,2.229-0.84,5.949c5.537-3.686,15.875-8.795,20.916,0.154
				C386.647,206.877,386.972,208.54,386.767,210.169z"/>
			<path id="XMLID_4481_" style="fill:#D0A684;" d="M253.923,323.321c-14.057-18.589-21.847-41.123-23.359-64.379
				c-1.596-24.55-6.727-59.591-6.727-59.591c-5.307-44.038,6.826-97.919,6.826-97.919c9.865-29.123,40.614-39.994,64.153-44.017
				c-16.37-2.803-29.252-2.29-29.252-2.29s-76.67-3.039-93.383,46.306c0,0-12.133,53.881-6.826,97.919c0,0,0.326,2.229,0.839,5.948
				c-5.544-3.692-15.869-8.794-20.918,0.15c-0.807,1.43-1.122,3.086-0.914,4.714c0.679,5.318,2.623,19.548,5.054,28.662
				c0,0,1.987,42.829,23.145,40.679c3.298,10.226,28.811,82.249,93.004,81.533c10.828,0.128,20.564-1.819,29.252-5.221
				C277.242,349.019,263.827,336.417,253.923,323.321z"/>
			<path id="XMLID_4480_" style="fill:#F4D950;" d="M380.399,135.592c0,0-4.941-44.562-34.306-66.75
				c-0.03-2.576-0.708-5.234-2.274-7.772c-12.598-20.406-38.405-42.794-91.004-42.794c0,0-110.145,6.993-107.733,98.982
				c0.116,4.426,2.573,8.302,6.242,10.326c-1.969,26.423-1.95,56.391,14.87,77.713c0,0,12-43.842,10.054-78.646
				c3.215-1.041,6.641-2.434,10.279-4.297c0,0,65.357-57.003,140.927-38.837c4.106,0.987,7.935,0.292,11.044-1.481
				c15.166,14.548,32.103,46.684,27.268,117.312C365.765,199.35,387.354,181.758,380.399,135.592z"/>
			<path id="XMLID_4479_" style="fill:#E9AE41;" d="M186.466,117.266c0.021,1.541,0.342,3.017,0.92,4.387
				c-0.556,0.449-0.856,0.706-0.856,0.706c-3.638,1.862-7.061,3.252-10.271,4.301c1.947,34.794-10.065,78.638-10.065,78.638
				c-16.819-21.313-16.833-51.291-14.864-77.718c-3.659-2.011-6.12-5.885-6.248-10.314c-2.397-91.992,107.741-98.989,107.741-98.989
				c9.629,0,18.381,0.749,26.299,2.118C249.057,26.13,184.604,46.672,186.466,117.266z"/>
		</g>
		
			<path id="XMLID_4477_" style="fill:none;stroke:#C99974;stroke-width:10;stroke-linecap:round;stroke-linejoin:round;stroke-miterlimit:10;" d="
			M243.29,287.689c18.85-7.099,27.007-6.847,44.542,0"/>
		<path id="XMLID_4475_" style="fill:#C99974;" d="M252.034,239.839L252.034,239.839c-2.158-0.306-3.66-2.303-3.355-4.462
			l5.859-41.372c0.306-2.158,2.303-3.66,4.462-3.355l0,0c2.158,0.306,3.66,2.303,3.355,4.462l-5.859,41.372
			C256.19,238.642,254.193,240.144,252.034,239.839z"/>
		<ellipse id="XMLID_4474_" style="fill:#C99974;" cx="251.962" cy="250.146" rx="8.917" ry="3.301"/>
		<ellipse id="XMLID_4473_" style="fill:#C99974;" cx="279.121" cy="250.146" rx="8.917" ry="3.301"/>
		
			<path id="XMLID_4470_" style="fill:none;stroke:#C99974;stroke-width:10;stroke-linecap:round;stroke-linejoin:round;stroke-miterlimit:10;" d="
			M243.045,180.963h1.504c4.863,0,9.002-3.538,9.76-8.341l1.208-7.659"/>
		
			<path id="XMLID_4469_" style="fill:none;stroke:#C99974;stroke-width:10;stroke-linecap:round;stroke-linejoin:round;stroke-miterlimit:10;" d="
			M288.002,180.963h-1.504c-4.863,0-9.002-3.538-9.76-8.341l-1.208-7.659"/>
		<g id="XMLID_4463_">
			<path id="XMLID_4468_" style="fill:#FFFFFF;" d="M178.31,88.926c-0.03,0.03-0.05,0.07-0.08,0.11h0.01
				C178.26,88.996,178.29,88.966,178.31,88.926z"/>
			<path id="XMLID_4464_" style="fill:#FFFFFF;" d="M437.08,44.79c-3.28-11.94-22.76-16.59-59.58-14.17h-0.01
				c-0.37,0.02-0.75,0.04-1.13,0.07c-16.1,1.1-34.39,3.52-54.04,7.1h-0.03c3.65,2.68,6.9,5.51,9.8,8.43h0.03
				c16.23-2.74,31.39-4.62,44.93-5.56c6.15-0.42,11.62-0.61,16.46-0.63h0.7c24.23,0,32.44,4.53,33.22,7.41
				c0.5,1.83-1.24,5.76-7.94,11.56c-6,5.21-16,11.92-31.95,19.95c-6.64,3.35-13.84,6.69-21.52,10c-0.91-0.41-1.84-0.83-2.77-1.24
				c-0.02-0.01-0.03-0.01-0.05-0.02c0.42,0.65,0.83,1.3,1.23,1.95c-2.93,1.25-5.93,2.49-8.99,3.73c-0.01,0-0.02,0.01-0.03,0.01
				c-0.72,0.3-1.44,0.59-2.17,0.88c-1.28,0.52-2.58,1.02-3.88,1.53c-0.01,0-0.01,0.01-0.02,0.01c-22.9,8.98-48.99,17.57-76.49,25.1
				c-4.51,1.24-9,2.43-13.47,3.58c-4.47-1.15-8.96-2.34-13.48-3.58c-6.07-1.67-12.06-3.37-17.97-5.13c-0.01,0-0.03-0.01-0.04-0.01
				c-7.63-2.27-15.11-4.61-22.4-7.01c-0.01,0-0.02-0.01-0.03-0.01c-6.27-2.07-12.39-4.16-18.35-6.31c-0.01,0-0.03-0.01-0.04-0.01
				c-4.56-1.64-9.02-3.28-13.37-4.95h-0.01l-0.01-0.01c-0.01-0.01-0.01-0.01-0.01-0.01c-2.76-1.06-5.48-2.12-8.15-3.19
				c-4.39-1.76-8.66-3.53-12.79-5.31c-1.32-0.57-2.62-1.14-3.9-1.71h-0.01c-0.01,0-0.01-0.01-0.02-0.01
				c-6.22-2.75-12.09-5.51-17.58-8.28c-19.15-9.65-29.72-17.38-35.1-22.89c-4.11-4.2-5.21-7.12-4.8-8.62
				c0.72-2.62,7.57-6.6,27.01-7.31h0.01c1.95-0.06,4.01-0.1,6.21-0.1c5.01,0,10.7,0.19,17.16,0.63c11.34,0.78,23.82,2.23,37.11,4.29
				c0,0,0,0,0.01,0.01c0.62-0.47,1.23-0.92,1.86-1.37c0.28-0.21,0.56-0.41,0.84-0.6v-0.01c0.11-0.07,0.22-0.15,0.33-0.23
				c0.29-0.2,0.58-0.4,0.87-0.6v-0.01c0.37-0.25,0.74-0.5,1.11-0.75c0.39-0.26,0.77-0.51,1.16-0.76c0.46-0.3,0.93-0.6,1.4-0.9
				c0.54-0.33,1.07-0.67,1.61-0.99c0.54-0.33,1.09-0.66,1.63-0.97c0.49-0.29,1-0.58,1.49-0.87c0.03-0.01,0.05-0.02,0.08-0.04
				c-0.01-0.01-0.01-0.01-0.02-0.01c-17.66-3.07-34.14-5.16-48.8-6.16c-2.49-0.17-4.89-0.31-7.23-0.42h-0.01
				c-32.87-1.51-50.39,3.26-53.47,14.52c-1.5,5.47,0.71,11.35,6.7,17.72c7.22,7.7,19.96,16.11,38.34,25.37
				c4.45,2.24,9.14,4.48,14.05,6.7c-1,0.49-1.99,0.98-2.96,1.47c-33.61,16.93-48.35,31.03-45.04,43.09
				c2.72,9.91,16.61,14.8,42.3,14.8c4.74,0,9.88-0.17,15.43-0.5h0.03c0.97-0.06,1.96-0.12,2.96-0.19c3.69-0.25,7.49-0.57,11.4-0.97
				h0.03c3.51-0.34,7.1-0.75,10.77-1.2c0,0,0,0,0.01,0s0.01,0,0.02,0h0.01c15.03-1.88,31.36-4.63,48.47-8.17
				c0.01,0,0.03-0.01,0.04-0.01c11.42-2.36,23.18-5.07,35.14-8.11c39.15,9.94,76.26,16.43,105.89,18.46
				c0.12,0.01,0.25,0.02,0.37,0.02h0.04c0.19,0.02,0.37,0.03,0.56,0.04h0.03c5.56,0.37,10.72,0.58,15.48,0.62h0.03
				c0.64,0.01,1.28,0.01,1.9,0.01c25.7,0,39.59-4.89,42.31-14.8c3.3-12.06-11.43-26.16-45.05-43.09c-0.97-0.49-1.96-0.98-2.96-1.47
				c4.91-2.22,9.6-4.46,14.05-6.7c15.93-8.02,27.62-15.4,35.15-22.23C435.56,58.05,438.82,51.14,437.08,44.79z M225.45,132.43
				c-0.01,0-0.03,0.01-0.04,0.01v0.01c-17.32,3.66-33.86,6.52-49.06,8.47h-0.01c-0.01,0-0.01,0-0.02,0h-0.01
				c-3.56,0.46-7.06,0.86-10.47,1.22h-0.01c-0.01,0-0.01,0-0.02,0h-0.01c-4.48,0.47-8.81,0.84-13,1.13
				c-0.77,0.05-1.53,0.1-2.28,0.14h-0.01c-0.01,0-0.01,0-0.02,0c0,0,0,0.01-0.01,0.01c-5.51,0.34-10.44,0.49-14.84,0.49
				c-24.23,0-32.43-4.53-33.22-7.41c-0.96-3.47,6.16-14.53,39.89-31.51c1.08-0.54,2.17-1.08,3.27-1.63h0.01
				c0.01,0,0.01-0.01,0.02-0.01h0.01c2.36-1.16,4.79-2.32,7.28-3.47c5.79,2.44,11.83,4.86,18.08,7.24c0.01,0,0.01,0,0.01,0
				c0.01,0,0.01,0.01,0.02,0.01h0.01c5,1.92,10.13,3.8,15.38,5.66c0.01,0,0.03,0.01,0.04,0.01c2.82,1,5.67,1.99,8.56,2.98h0.02
				c10.09,3.43,20.55,6.76,31.31,9.94c0.01,0,0.02,0.01,0.03,0.01c4.22,1.25,8.49,2.47,12.79,3.68
				C234.53,130.47,229.97,131.48,225.45,132.43z M416.42,135.85c0,0.24-0.03,0.46-0.08,0.65c-0.81,2.94-9.38,7.62-34.97,7.4h-0.03
				c-4.58-0.04-9.68-0.24-15.39-0.63c-0.19-0.01-0.37-0.03-0.56-0.04h-0.03c-0.27-0.02-0.54-0.04-0.81-0.07h-0.03
				c-24.28-1.76-53.6-6.54-84.92-13.75c26.73-7.47,52.08-15.9,74.44-24.71c0.01,0,0.01-0.01,0.02-0.01
				c1.71-0.68,3.42-1.35,5.09-2.04c0.01,0,0.02-0.01,0.03-0.01c2.26-0.92,4.49-1.83,6.68-2.76c1.74,0.8,3.45,1.61,5.13,2.42
				c0.01,0.01,0.03,0.01,0.04,0.02c1.85,0.89,3.65,1.78,5.42,2.67C408.31,121.03,416.42,131.79,416.42,135.85z"/>
		</g>
		<circle id="XMLID_4462_" style="fill:#FFFFFF;" cx="88.021" cy="93.246" r="10"/>
		<circle id="XMLID_4461_" style="fill:#FFFFFF;" cx="426.42" cy="172.963" r="10"/>
		<path id="XMLID_4460_" style="fill:#FFFFFF;" d="M135.008,179.296c0-1.927-3.249-3.625-8.187-4.625
			c-2.867-0.581-5.102-2.815-5.682-5.682c-1-4.938-2.698-8.187-4.625-8.187s-3.625,3.249-4.625,8.187
			c-0.581,2.867-2.815,5.102-5.682,5.682c-4.937,1-8.186,2.698-8.186,4.625c0,1.927,3.249,3.625,8.187,4.625
			c2.867,0.581,5.102,2.815,5.682,5.682c1,4.938,2.698,8.187,4.625,8.187s3.625-3.249,4.625-8.187
			c0.581-2.867,2.815-5.102,5.682-5.682C131.759,182.921,135.008,181.223,135.008,179.296z"/>
		<path id="XMLID_4459_" style="fill:#FFFFFF;" d="M456.025,93.246c0-1.927-3.249-3.625-8.187-4.625
			c-2.867-0.581-5.102-2.815-5.682-5.682c-1-4.937-2.698-8.186-4.625-8.186c-1.927,0-3.625,3.249-4.625,8.186
			c-0.581,2.867-2.815,5.102-5.682,5.682c-4.938,1-8.186,2.698-8.186,4.625c0,1.927,3.249,3.625,8.187,4.625
			c2.867,0.581,5.102,2.815,5.682,5.682c1,4.938,2.698,8.187,4.625,8.187c1.927,0,3.625-3.249,4.625-8.187
			c0.581-2.867,2.815-5.102,5.682-5.682C452.776,96.871,456.025,95.173,456.025,93.246z"/>
		<g id="XMLID_1680_">
			
				<path id="XMLID_1682_" style="fill:none;stroke:#CB9B74;stroke-width:10;stroke-linecap:round;stroke-linejoin:round;stroke-miterlimit:10;" d="
				M193.273,200.29c0,0,21.484-11.25,37.109,0"/>
			
				<path id="XMLID_1681_" style="fill:none;stroke:#CB9B74;stroke-width:10;stroke-linecap:round;stroke-linejoin:round;stroke-miterlimit:10;" d="
				M335.849,200.29c0,0-21.484-11.25-37.109,0"/>
		</g>
	</g>
</g>
</svg>
