<?xml version="1.0" encoding="iso-8859-1"?>
<!-- Generator: Adobe Illustrator 22.0.1, SVG Export Plug-In . SVG Version: 6.00 Build 0)  -->
<svg version="1.1" xmlns="http://www.w3.org/2000/svg" xmlns:xlink="http://www.w3.org/1999/xlink" x="0px" y="0px"
	 viewBox="0 0 512 512" style="enable-background:new 0 0 512 512;" xml:space="preserve">
<g id="BULINE">
	<circle id="XMLID_6066_" style="fill:#EF9EDC;" cx="256" cy="256" r="256"/>
</g>
<g id="Icons">
	<path id="XMLID_4508_" style="fill:#E28ECA;" d="M404.65,464.44c-10.43,7.45-21.44,14.14-32.95,19.98
		c-19.08,9.69-39.54,17.05-61.01,21.72C293.07,509.98,274.77,512,256,512c-3.89,0-7.76-0.09-11.6-0.26C108.4,505.68,0,393.49,0,256
		c0-44.25,11.23-85.87,30.99-122.18c20.01,6.77,92.2,35.23,135.82,105.28c2.73,4.37,5.34,8.9,7.82,13.59
		c0.81,1.54,1.61,3.1,2.39,4.68c0.58,1.17,1.16,2.34,1.72,3.53c2.66,5.59,5.13,11.41,7.39,17.46c3.41,9.11,6.32,18.75,8.65,28.93
		c0,0,4.83,51,46.05,67.43c0,0,1.37,0.38,3.88,1.12c0,0,0,0,0,0.01c9.64,2.86,36.06,11.21,65.98,24.81
		c22.46,10.2,46.9,23.36,67.69,39.38C388.13,447.54,397.09,455.68,404.65,464.44z"/>
	<g id="XMLID_4388_">
		<g id="XMLID_4409_">
			<path id="XMLID_4547_" style="fill:#E8B88F;" d="M470.29,115.9l-20.66,43.98l-38.62,82.21l-6.62,14.09
				c1.93,14.7,2.17,28.84,1.33,42.02c-0.81,12.79-2.64,24.68-4.91,35.29c-0.97,4.56-2.03,8.88-3.12,12.94c0,0.01,0,0.01,0,0.02
				c-4.26,15.84-9.08,27.66-11.78,33.71c-1.38,3.08-2.17,6.37-2.33,9.74c-0.63,13.4-2.63,31.24-5.2,50.14
				c-2,14.69-4.36,30.02-6.68,44.38c-19.08,9.69-39.54,17.05-61.01,21.72C293.07,509.98,274.77,512,256,512
				c-3.89,0-7.76-0.09-11.6-0.26v-0.03c0.14-1.49,0.21-2.99,0.21-4.49V384.11c0-2.76,0.03-5.51,0.1-8.26c0-0.01,0-0.01,0-0.01
				c0.07-3.46,0.2-6.91,0.38-10.37c0.52-10.38,1.49-20.72,2.94-31c0.1-0.75,0.21-1.5,0.33-2.24c0.44-3.06,0.93-6.11,1.47-9.15
				c0.79-4.47,1.55-9.27,2.27-14.32c0.24-1.67,0.48-3.36,0.71-5.08c0.01-0.01,0.01-0.03,0.01-0.04c0.23-1.72,0.46-3.46,0.68-5.22
				c0.12-0.89,0.24-1.8,0.35-2.71c1.42-11.35,2.69-23.37,3.81-35.1c0.05-0.52,0.1-1.05,0.14-1.58c0.07-0.73,0.14-1.46,0.2-2.19
				c0.07-0.7,0.14-1.41,0.2-2.11c0.04-0.33,0.07-0.67,0.09-1c0.14-1.44,0.26-2.86,0.39-4.28c2.89-32.7,4.46-60.43,4.46-60.43
				c0.22-4.16,0.51-8.21,0.86-12.15c0.18-1.97,0.38-3.91,0.59-5.83c0.42-3.83,0.91-7.55,1.46-11.17c0.28-1.81,0.57-3.6,0.87-5.35
				c0.15-0.88,0.31-1.75,0.47-2.62c1.12-6.06,2.41-11.81,3.84-17.26c0.82-3.12,1.69-6.13,2.61-9.06c0.69-2.19,1.4-4.33,2.13-6.42
				c1.96-5.56,4.07-10.76,6.32-15.61c0.56-1.22,1.13-2.41,1.7-3.58c0.57-1.17,1.16-2.32,1.75-3.45c0.88-1.69,1.78-3.34,2.69-4.94
				c0.61-1.06,1.22-2.11,1.84-3.14c2.57-4.26,5.22-8.18,7.92-11.78c1.48-1.98,2.98-3.86,4.48-5.65
				c12.51-14.92,25.49-23.51,34.86-28.27v-0.01c0.03-0.01,0.06-0.02,0.09-0.04c8.12-4.11,13.51-5.34,13.51-5.34l19.72-10.19
				c10.23,5.13,20.06,10.94,29.44,17.35c7.1,4.85,13.94,10.05,20.5,15.58C439.87,76.16,456.58,94.96,470.29,115.9z"/>
			<path id="XMLID_4511_" style="fill:#E7AA70;" d="M403.87,288.71c0.41,1.85,1.06,5.24,1.85,9.49
				c-0.81,12.79-2.64,24.68-4.91,35.29c-0.97,4.56-2.03,8.88-3.12,12.94c0,0.01,0,0.01,0,0.02c-4.26,15.84-9.08,27.66-11.78,33.71
				l-33.17-74.7c-7.43-16.75-32.13-13.34-34.79,4.79c-0.6,4.15-1.23,8.13-1.89,11.88c-3.55,20.47-5.37,41.2-5.37,61.98v122.03
				C293.07,509.98,274.77,512,256,512c-3.89,0-7.76-0.09-11.6-0.26v-0.03c0.15-1.49,0.22-2.99,0.22-4.49V384.08
				c0-2.74,0.03-5.49,0.09-8.23c0-0.01,0-0.01,0-0.01c0.08-3.46,0.2-6.92,0.38-10.37c0.52-10.38,1.49-20.72,2.94-31
				c0.1-0.75,0.21-1.5,0.33-2.24c0.44-3.06,0.93-6.11,1.47-9.15c0.79-4.47,1.55-9.27,2.27-14.32c0.24-1.67,0.48-3.36,0.71-5.08
				c0.01-0.01,0.01-0.03,0.01-0.04c0.23-1.72,0.46-3.46,0.68-5.22c0.12-0.89,0.24-1.8,0.35-2.71c1.42-11.34,2.69-23.37,3.81-35.1
				c0.05-0.52,0.1-1.05,0.14-1.58c0.08-0.73,0.14-1.46,0.21-2.19c0.07-0.71,0.13-1.41,0.19-2.11c0.04-0.33,0.07-0.67,0.09-1
				c0.14-1.44,0.26-2.86,0.39-4.28c2.89-32.7,4.46-60.43,4.46-60.43c0.22-4.16,0.51-8.21,0.86-12.15c0.18-1.97,0.38-3.91,0.59-5.83
				c0.42-3.83,0.91-7.55,1.46-11.17c0.27-1.81,0.56-3.6,0.87-5.35c0.15-0.88,0.31-1.75,0.47-2.62c1.11-6.06,2.4-11.81,3.84-17.26
				c0.82-3.12,1.69-6.13,2.61-9.06c0.68-2.19,1.4-4.33,2.13-6.42c1.96-5.56,4.07-10.76,6.32-15.61c0.56-1.22,1.13-2.41,1.7-3.58
				c0.57-1.17,1.16-2.32,1.75-3.45c0.88-1.69,1.78-3.34,2.69-4.94c0.61-1.06,1.22-2.11,1.84-3.14c2.57-4.26,5.22-8.18,7.92-11.78
				c1.48-1.98,2.98-3.86,4.48-5.65c12.51-14.92,25.49-23.51,34.86-28.27c0.03-0.01,0.06-0.03,0.09-0.05
				c8.12-4.11,13.51-5.34,13.51-5.34l19.72-10.19c10.23,5.13,20.06,10.94,29.44,17.35c-12.11,6.76-28.71,19.38-42.87,42.17
				c-5.5,8.86-10.64,19.24-15,31.42c-2.22,6.2-4.24,12.86-6,20.02c-0.12,0.46-0.23,0.92-0.34,1.38c0,0.01,0,0.01,0,0.02
				c-0.84,3.49-1.62,7.1-2.33,10.83c4.73,9.01,11.92,22.71,19.91,38.06c0.01,0.02,0.02,0.03,0.02,0.05
				c6.5,12.47,13.53,26.03,20.22,39.03c4.71,9.16,9.25,18.05,13.31,26.09C396.48,271.95,403.25,285.93,403.87,288.71z"/>
			<path id="XMLID_4490_" style="fill:#334391;" d="M470.29,115.9C496.66,156.16,512,204.29,512,256c0,26.7-4.09,52.44-11.68,76.64
				c-13.19,42.12-36.98,79.55-68.23,109.18c-2.72-11.35-4.54-18.91-4.54-18.91c-3.04-4.92-5.86-10.15-8.48-15.53
				c-0.98-2.02-1.93-4.06-2.85-6.12c-1.22-2.73-2.4-5.5-3.53-8.26c-1.12-2.77-2.19-5.54-3.22-8.3c-1.03-2.75-2-5.5-2.92-8.21
				c-0.46-1.35-0.91-2.7-1.35-4.03c-3.11-9.51-5.6-18.47-7.51-26.01c0-0.01,0-0.01,0-0.02c-1.26-4.98-2.27-9.34-3.03-12.83
				c0,0,0-0.01-0.01-0.01c-1.24-5.71-1.84-9.1-1.84-9.1s-0.89-3.7-2.56-10.25c-0.1-0.39-0.2-0.78-0.3-1.19
				c-0.2-0.81-0.42-1.65-0.65-2.54c-0.22-0.88-0.46-1.81-0.71-2.77c-0.13-0.48-0.25-0.96-0.38-1.46c-0.25-1-0.52-2.02-0.8-3.09
				c-0.55-2.12-1.15-4.39-1.78-6.77c-0.16-0.6-0.32-1.2-0.48-1.81c-0.65-2.45-1.33-5.02-2.06-7.7c-0.36-1.34-0.73-2.7-1.11-4.1
				c-0.37-1.39-0.76-2.81-1.16-4.25c-0.2-0.72-0.4-1.45-0.6-2.19c-1.21-4.4-2.5-9.02-3.86-13.82c-0.45-1.6-0.91-3.22-1.38-4.86
				c-1.63-5.73-3.36-11.69-5.18-17.81c-0.26-0.88-0.52-1.76-0.78-2.64c-1.31-4.41-2.66-8.9-4.06-13.44
				c-0.28-0.91-0.56-1.83-0.84-2.74c-3.28-10.66-6.78-21.62-10.44-32.6c0-0.02-0.01-0.03-0.02-0.05c-3.86-11.59-7.91-23.2-12.1-34.5
				c-1.8-4.87-3.63-9.68-5.48-14.41c-1.64-4.19-3.3-8.31-4.97-12.35c-0.36-0.86-0.72-1.72-1.07-2.57c-0.71-1.7-1.43-3.39-2.15-5.06
				c-1.8-4.18-3.61-8.26-5.43-12.2c-0.73-1.58-1.46-3.13-2.19-4.67c-0.37-0.77-0.74-1.53-1.1-2.29c-0.74-1.51-1.47-3-2.21-4.46
				c-0.73-1.47-1.47-2.91-2.21-4.33c-0.74-1.41-1.48-2.8-2.22-4.17c-0.74-1.36-1.48-2.7-2.23-4.01c-2.54-4.48-5.09-8.62-7.63-12.38
				c-2.51-3.69-5-7-7.5-9.89c-0.16-0.19-0.32-0.38-0.49-0.57l0.56-0.49l35.62-31.25l4.96-4.35l14.1-6.68h0.01
				c7.13,2.82,14.11,5.95,20.92,9.38c10.23,5.13,20.06,10.94,29.44,17.35c7.1,4.85,13.94,10.05,20.5,15.58
				C439.87,76.16,456.58,94.96,470.29,115.9z"/>
			<path id="XMLID_4524_" style="fill:#293B6D;" d="M498.68,324.49c0,0,0.53,3.02,1.64,8.15c-13.19,42.12-36.98,79.55-68.23,109.18
				c-2.73-11.35-4.55-18.91-4.55-18.91c-3.04-4.92-5.86-10.15-8.47-15.53c-0.98-2.02-1.93-4.06-2.85-6.12
				c-1.23-2.73-2.41-5.5-3.53-8.26c-1.13-2.77-2.2-5.54-3.22-8.3c-1.03-2.75-2-5.5-2.92-8.21c-0.46-1.35-0.91-2.7-1.35-4.03
				c-3.11-9.51-5.61-18.47-7.51-26.01c-1.28-5.02-2.29-9.41-3.06-12.92c-1.23-5.67-1.83-9.04-1.83-9.04s-0.89-3.7-2.55-10.25
				c-0.1-0.39-0.2-0.78-0.3-1.19c-0.21-0.81-0.43-1.65-0.65-2.54c-0.23-0.88-0.47-1.81-0.71-2.77c-0.13-0.48-0.25-0.96-0.38-1.46
				c-0.26-1-0.53-2.02-0.8-3.09c-0.56-2.12-1.15-4.39-1.78-6.77c-0.16-0.6-0.32-1.2-0.48-1.81c-0.65-2.45-1.34-5.02-2.06-7.7
				c-0.36-1.34-0.73-2.7-1.11-4.1c-0.37-1.39-0.76-2.81-1.16-4.25c-0.2-0.72-0.4-1.45-0.6-2.19c-1.22-4.4-2.5-9.02-3.86-13.82
				c-0.45-1.6-0.91-3.22-1.38-4.86c-1.64-5.73-3.37-11.69-5.18-17.81c-0.26-0.88-0.52-1.76-0.78-2.64
				c-1.32-4.41-2.67-8.9-4.06-13.44c-0.28-0.91-0.56-1.83-0.84-2.74c-3.29-10.68-6.79-21.65-10.46-32.65
				c-3.87-11.59-7.92-23.2-12.1-34.5c-1.81-4.86-3.63-9.67-5.48-14.39c-1.64-4.19-3.3-8.32-4.97-12.37
				c-0.36-0.86-0.72-1.72-1.07-2.57c-0.71-1.7-1.43-3.39-2.15-5.06c-1.8-4.18-3.61-8.26-5.43-12.2c-0.73-1.58-1.46-3.13-2.19-4.67
				c-0.37-0.77-0.74-1.53-1.1-2.29c-0.74-1.51-1.47-3-2.21-4.46c-0.73-1.47-1.47-2.91-2.21-4.33c-0.74-1.41-1.48-2.8-2.22-4.17
				c-0.74-1.36-1.48-2.7-2.23-4.01c-2.54-4.48-5.09-8.62-7.63-12.38c-2.51-3.69-5-7-7.5-9.89c-0.16-0.19-0.32-0.38-0.49-0.57
				l0.56-0.49l35.61-31.25h0.01l4.96-4.36l14.1-6.67h0.01c7.13,2.82,14.11,5.95,20.92,9.38c10.23,5.13,20.06,10.94,29.44,17.35
				c7.1,4.85,13.94,10.05,20.5,15.58c-0.95,4.47-1.44,9.05-1.44,13.64c0,9.51,2.08,19.1,6.4,28.09
				c8.25,17.19,16.31,37.21,23.88,58.06C477.46,236.56,498.68,324.49,498.68,324.49z"/>
			<path id="XMLID_4412_" style="fill:#222B5A;" d="M296.574,54.466c3.447-8.655,12.515-23.696,34.287-25.655
				c0,0,105.708,214.543,79.335,267.289c0,0,7.977,41.301-15.528,37.529c0,0-88.738-216.93-99.11-267.63
				C294.766,62.131,295.113,58.133,296.574,54.466z"/>
			<path id="XMLID_4410_" style="fill:#273277;" d="M324.806,81.582c15.754,31.472,55.94,115.051,66.417,168.752
				c0.647,3.319-3.922,4.89-5.421,1.859c-16.581-33.545-54.749-114.505-65.262-169.168
				C320.042,80.436,323.626,79.225,324.806,81.582z"/>
		</g>
		<g id="XMLID_4389_">
			<g id="XMLID_4407_">
				<path id="XMLID_4408_" style="fill:#C0CED6;" d="M240.831,258.727c0-1.042,0.845-1.887,1.887-1.887h51.525
					c1.042,0,1.887,0.845,1.887,1.887s-0.845,1.887-1.887,1.887h-51.525C241.676,260.614,240.831,259.769,240.831,258.727z"/>
			</g>
			<path id="XMLID_4406_" style="fill:#ADD6F7;" d="M212.015,278.355H110.731v-39.257h101.284c5.911,0,10.698,4.794,10.698,10.698
				v17.862C222.712,273.569,217.926,278.355,212.015,278.355z"/>
			<path id="XMLID_4405_" style="fill:#DFF2FF;" d="M12.424,274.816v-32.172c0-3.668,2.973-6.641,6.641-6.641h0
				c3.668,0,6.641,2.973,6.641,6.641v32.172c0,3.668-2.973,6.641-6.641,6.641h0C15.397,281.456,12.424,278.483,12.424,274.816z"/>
			<path id="XMLID_4404_" style="fill:#C0CED6;" d="M12.421,254.22v-11.573c0-3.669,2.975-6.644,6.644-6.644
				c1.835,0,3.495,0.74,4.696,1.948c1.2,1.2,1.948,2.861,1.948,4.696v11.573c0-1.835-0.747-3.495-1.948-4.696
				c-1.2-1.2-2.861-1.948-4.696-1.948C15.396,247.577,12.421,250.551,12.421,254.22z"/>
			
				<rect id="XMLID_4403_" x="110.099" y="252.061" transform="matrix(4.494520e-11 1 -1 4.494520e-11 388.4574 129.0023)" style="fill:#354488;" width="39.257" height="13.337"/>
			
				<rect id="XMLID_4402_" x="65.832" y="210.053" transform="matrix(4.488569e-11 1 -1 4.488569e-11 333.1121 184.3476)" style="fill:#83A2B2;" width="17.101" height="97.353"/>
			<rect id="XMLID_4401_" x="25.708" y="250.179" style="fill:#768F98;" width="97.351" height="8.546"/>
			<path id="XMLID_4400_" style="fill:#DFF2FF;" d="M96.384,284.398v-51.337c0-2.641,2.141-4.781,4.781-4.781h4.781
				c2.641,0,4.781,2.141,4.781,4.781v51.337c0,2.641-2.141,4.781-4.781,4.781h-4.781C98.525,289.179,96.384,287.039,96.384,284.398z
				"/>
			<rect id="XMLID_4399_" x="123.059" y="239.099" style="fill:#313E73;" width="13.34" height="13.589"/>
			<path id="XMLID_4398_" style="fill:#C0CED6;" d="M96.387,246.648v-13.589c0-2.635,2.136-4.779,4.779-4.779h4.779
				c2.642,0,4.786,2.144,4.786,4.779v13.589c0-2.635-2.144-4.779-4.786-4.779h-4.779C98.523,241.869,96.387,244.013,96.387,246.648z
				"/>
			<path id="XMLID_4397_" style="fill:#8ADB8C;" d="M212.015,278.355h-75.616v-39.257h75.616c5.911,0,10.698,4.794,10.698,10.698
				v17.862C222.712,273.569,217.926,278.355,212.015,278.355z"/>
			<path id="XMLID_4396_" style="fill:#78C478;" d="M146.968,278.355h-10.569v-39.257h75.616c5.911,0,10.698,4.794,10.698,10.698
				v2.891h-61.59c-7.817,0-14.154,6.337-14.154,14.154V278.355z"/>
			<circle id="XMLID_4395_" style="fill:#78C478;" cx="198.554" cy="267.281" r="3.775"/>
			<circle id="XMLID_4394_" style="fill:#78C478;" cx="158.793" cy="271.055" r="3.775"/>
			<circle id="XMLID_4393_" style="fill:#78C478;" cx="176.66" cy="259.731" r="2.394"/>
			
				<rect id="XMLID_4392_" x="219.629" y="255.77" transform="matrix(4.485993e-11 1 -1 4.485993e-11 484.5216 33.0577)" style="fill:#83A2B2;" width="12.205" height="6.04"/>
			<path id="XMLID_4391_" style="fill:#C3D1D9;" d="M232.682,265.676V251.97c0-1.181-0.958-2.139-2.139-2.139l0,0
				c-1.181,0-2.139,0.958-2.139,2.139v13.706c0,1.181,0.958,2.139,2.139,2.139l0,0C231.724,267.815,232.682,266.858,232.682,265.676
				z"/>
			<path id="XMLID_4390_" style="fill:#DFF2FF;" d="M244.794,258.84L244.794,258.84c0-2.262-1.541-4.234-3.736-4.782l-8.377-2.088
				v13.74l8.377-2.088C243.254,263.074,244.794,261.102,244.794,258.84z"/>
		</g>
	</g>
</g>
</svg>
