<svg xmlns="http://www.w3.org/2000/svg" width="128" height="128" viewBox="0 0 128 128">
  <title>SYRINGE</title>
  <g>
    <path d="M51.658,105.839a1.749,1.749,0,0,1-1.75-1.75V81.2a1.75,1.75,0,0,1,3.5,0v22.887A1.749,1.749,0,0,1,51.658,105.839Z" fill="#080c35"/>
    <rect x="42.97" y="40.646" width="17.377" height="33.14" transform="translate(103.316 114.431) rotate(-180)" fill="#95edf7"/>
    <rect x="47.949" y="73.785" width="7.417" height="7.417" transform="translate(103.316 154.988) rotate(180)" fill="#4c506d"/>
    <rect x="47.155" y="23.911" width="9.006" height="16.734" transform="translate(103.316 64.557) rotate(180)" fill="#dee1f3"/>
    <path d="M60.347,25.661H42.97a1.75,1.75,0,0,1,0-3.5H60.347a1.75,1.75,0,1,1,0,3.5Z" fill="#4c506d"/>
    <path d="M60.346,57.892a8.2,8.2,0,0,0-7.84,1.978c-3.532,3.391-8.759,1.614-9.536-2.654V73.785H60.346Z" fill="#52e1f3"/>
    <rect x="67.41" y="67.25" width="17.057" height="6.536" fill="#dee1f3"/>
    <rect x="70.605" y="73.785" width="10.667" height="6.048" fill="#4c506d"/>
    <rect x="66.846" y="79.833" width="18.184" height="24.255" rx="2.937" fill="#f8495d"/>
  </g>
</svg>
